<svg width="67" height="67" viewBox="0 0 67 67" fill="none" xmlns="http://www.w3.org/2000/svg">
<path d="M60.7999 38.6589H38.9199C38.3676 38.6589 37.9199 39.1067 37.9199 39.6589V43.3336C37.9199 43.8858 38.3676 44.3336 38.9199 44.3336H60.7999" stroke="white" stroke-width="2"/>
<path d="M25.4404 52.0715V59.8096H14.7577C13.1907 59.8096 11.9204 61.08 11.9204 62.647V62.647C11.9204 64.214 13.1907 65.4843 14.7577 65.4843H29.0804" stroke="white" stroke-width="2"/>
<path d="M29.0795 21.6353H25.4395" stroke="white" stroke-width="2"/>
<path d="M28.0398 47.4287H21.7998" stroke="white" stroke-width="2"/>
<path d="M29.0794 59.8101H22.8394" stroke="white" stroke-width="2"/>
<path d="M55.0802 59.8101H44.6802" stroke="white" stroke-width="2"/>
<path d="M21.8005 6.15869L15.5605 6.15869" stroke="white" stroke-width="2"/>
<path d="M26.9994 6.15869L24.9194 6.15869" stroke="white" stroke-width="2"/>
<path d="M32.2001 6.15869L30.1201 6.15869" stroke="white" stroke-width="2"/>
<path d="M36.3598 6.15869L34.2798 6.15869" stroke="white" stroke-width="2"/>
<path d="M41.5595 6.15869L39.4795 6.15869" stroke="white" stroke-width="2"/>
<path d="M40.5199 49.4922H38.4399" stroke="white" stroke-width="2"/>
<path d="M47.8002 49.4922H45.7202" stroke="white" stroke-width="2"/>
<path d="M55.08 49.4922H53" stroke="white" stroke-width="2"/>
<path d="M33.2402 21.6353H65.5" stroke="white" stroke-width="2"/>
<path d="M28.04 51.5557H6C3.23858 51.5557 1 49.3171 1 46.5557V42.27M66 7.19049V6C66 3.23858 63.7614 1 61 1H6C3.23858 1 1 3.23858 1 6.00001V42.27M28.04 42.27H1" stroke="white" stroke-width="2"/>
<path d="M12.96 15.9603H16.5039C17.5792 15.9603 18.6259 15.6136 19.4886 14.9717L23.0713 12.306C23.934 11.6641 24.9807 11.3174 26.056 11.3174H60.48C63.2414 11.3174 65.48 13.556 65.48 16.3174V61.0001C65.48 63.7615 63.2414 66.0001 60.48 66.0001H37.72C34.9585 66.0001 32.72 63.7615 32.72 61.0001V16.992" stroke="white" stroke-width="2"/>
<path d="M27.5199 29.8892H23.3126C22.6572 29.8892 22.0082 29.7603 21.4026 29.51L16.9973 27.689C16.3916 27.4387 15.7427 27.3098 15.0873 27.3098H12.4399" stroke="white" stroke-width="2"/>
<path d="M28.5602 38.659H26.9442C25.6359 38.659 24.3685 38.2029 23.3602 37.3693V37.3693C22.3518 36.5356 21.0844 36.0796 19.7761 36.0796H18.1602" stroke="white" stroke-width="2"/>
<path d="M12.4802 15.4444C12.4802 17.1639 11.0729 18.5714 9.32016 18.5714C7.56741 18.5714 6.16016 17.1639 6.16016 15.4444C6.16016 13.7249 7.56741 12.3174 9.32016 12.3174C11.0729 12.3174 12.4802 13.7249 12.4802 15.4444Z" stroke="white" stroke-width="2"/>
<path d="M12.4802 27.8257C12.4802 29.5452 11.0729 30.9527 9.32016 30.9527C7.56741 30.9527 6.16016 29.5452 6.16016 27.8257C6.16016 26.1062 7.56741 24.6987 9.32016 24.6987C11.0729 24.6987 12.4802 26.1062 12.4802 27.8257Z" stroke="white" stroke-width="2"/>
<path d="M18.7199 36.0794C18.7199 37.7989 17.3126 39.2064 15.5599 39.2064C13.8072 39.2064 12.3999 37.7989 12.3999 36.0794C12.3999 34.3599 13.8072 32.9524 15.5599 32.9524C17.3126 32.9524 18.7199 34.3599 18.7199 36.0794Z" stroke="white" stroke-width="2"/>
<path d="M24.9601 21.6348C24.9601 23.3543 23.5529 24.7618 21.8001 24.7618C20.0474 24.7618 18.6401 23.3543 18.6401 21.6348C18.6401 19.9153 20.0474 18.5078 21.8001 18.5078C23.5529 18.5078 24.9601 19.9153 24.9601 21.6348Z" stroke="white" stroke-width="2"/>
<path d="M44.6682 32.6306C44.6184 33.3191 44.3635 33.8611 43.9036 34.2566C43.4465 34.6521 42.843 34.8499 42.093 34.8499C41.2727 34.8499 40.6267 34.5745 40.155 34.0237C39.6863 33.47 39.4519 32.7112 39.4519 31.7473V31.3562C39.4519 30.741 39.5603 30.199 39.7771 29.7302C39.9939 29.2615 40.303 28.9026 40.7043 28.6536C41.1086 28.4016 41.5774 28.2756 42.1106 28.2756C42.8489 28.2756 43.4436 28.4734 43.8948 28.8689C44.3459 29.2644 44.6067 29.8196 44.677 30.5344H43.3586C43.3264 30.1213 43.2107 29.8225 43.0115 29.6379C42.8152 29.4504 42.5149 29.3567 42.1106 29.3567C41.6711 29.3567 41.3415 29.5149 41.1218 29.8313C40.905 30.1448 40.7937 30.6326 40.7878 31.2947V31.7781C40.7878 32.4695 40.8918 32.9749 41.0998 33.2942C41.3108 33.6135 41.6418 33.7732 42.093 33.7732C42.5002 33.7732 42.8035 33.6809 43.0027 33.4963C43.2048 33.3088 43.3205 33.0203 43.3498 32.6306H44.6682ZM50.7414 34.762H49.4231V32.0198H46.8523V34.762H45.5339V28.3635H46.8523V30.9563H49.4231V28.3635H50.7414V34.762Z" fill="white"/>
<path d="M57.7445 31.4561H58.7113V32.8213H57.7445V34.667H56.0511V32.8213H52.5531L52.4769 31.7549L56.0336 26.1357H57.7445V31.4561ZM54.1644 31.4561H56.0511V28.4443L55.9398 28.6377L54.1644 31.4561Z" fill="white"/>
</svg>
