<svg width="75" height="64" viewBox="0 0 75 64" fill="none" xmlns="http://www.w3.org/2000/svg">
<g clip-path="url(#clip0)">
<path d="M15.7362 19.5893C16.6762 17.8277 18.7325 17.0643 20.5537 17.5928C20.7887 17.2405 21.0237 16.9469 21.2587 16.5945C22.0225 15.7137 22.7862 14.9503 23.6087 14.3631C26.3699 12.4253 29.6012 11.9555 33.1849 12.2491C37.1212 12.6602 41.0574 13.7759 44.8762 14.8916C48.6361 15.8899 52.5724 17.0056 56.4499 17.1817C61.6199 17.4166 65.2036 15.8312 67.7886 11.6032C66.4374 10.3701 66.0849 8.25608 66.9661 6.55315C68.0824 4.4979 70.6673 3.6758 72.7236 4.79151C74.7798 5.90722 75.5436 8.49096 74.4861 10.5462C73.5461 12.3079 71.5486 13.13 69.6686 12.6602C68.7286 14.1282 67.6711 15.4201 66.2611 16.5358C62.3836 19.5306 57.9186 19.7068 53.2774 19.0021C49.6349 18.4736 46.1099 17.4166 42.5262 16.4184C39.1187 15.4788 35.5937 14.4806 32.0687 14.3044C27.7799 14.1282 24.7249 15.3027 22.375 18.6498C23.7262 19.9417 24.0787 22.0556 23.1387 23.7586C21.9637 25.8138 19.3787 26.5185 17.3225 25.344C15.325 24.2283 14.5612 21.6446 15.7362 19.5893V19.5893ZM49.0474 13.13C49.0474 13.7172 48.5187 14.1869 47.9312 14.1869C47.3437 14.1282 46.9324 13.6585 46.9324 13.0712L46.9912 5.43744C46.9324 5.08511 47.1674 4.4979 46.4624 3.79324C46.1687 3.32347 45.2287 3.20603 44.9349 3.08858H5.04374C4.69124 3.20603 3.63374 3.08858 3.10499 3.79324C2.45875 4.61534 2.635 5.37872 2.57625 5.73105L2.45875 58.5804C2.57625 58.9915 2.45875 59.6374 3.16374 60.6944C3.86874 61.8101 4.33874 61.4578 4.69124 61.6339L45.1112 61.8101C45.3462 61.6926 46.2862 61.5165 46.5212 60.988C46.9324 60.3421 46.7562 59.2263 46.8149 58.9327V46.8361C46.8149 46.2489 47.2849 45.7791 47.8724 45.7791C48.4599 45.7791 48.9299 46.2489 48.9299 46.8361V59.0502C48.8124 59.931 48.8124 61.3403 48.3424 62.1037C47.8724 62.8671 46.8737 63.6892 45.6987 63.9241C31.8337 63.8653 18.0275 63.8066 4.16249 63.7479C3.45749 63.6305 2.10625 62.9845 1.46 61.9863C0.931249 61.2816 0.578749 60.6944 0.34375 58.9327C0.4025 41.0814 0.4025 23.2301 0.46125 5.43744C0.578749 4.38046 0.52 3.20603 1.5775 2.38393C3.04624 0.915888 3.75124 1.09205 4.45624 1.03333L45.3462 0.974609C46.1687 1.32694 47.4024 1.32694 48.0486 2.38393C49.1649 3.26475 48.8711 4.26301 49.1061 5.14384L49.0474 13.13ZM45.0524 7.37525C45.6399 7.37525 46.1099 7.84503 46.1099 8.43224C46.1099 8.96073 45.6399 9.48923 45.0524 9.48923L6.39499 9.37178V54.0001L45.2287 54.1176C45.8162 54.1176 46.2862 54.5873 46.2862 55.1746C46.2862 55.7031 45.8162 56.1728 45.2287 56.1728L4.27999 56.1141V7.25781L45.0524 7.37525V7.37525ZM28.4849 49.3024C27.8974 49.3024 27.3687 48.8326 27.3687 48.2454C27.3687 47.6582 27.8974 47.1884 28.4849 47.1884H37.6499C38.2374 47.1884 38.7074 47.6582 38.7074 48.2454C38.7074 48.8326 38.2374 49.3024 37.6499 49.3024H28.4849ZM10.7425 49.4199C10.155 49.4199 9.62623 48.9501 9.62623 48.3629C9.62623 47.7757 10.155 47.3059 10.7425 47.3059H19.9075C20.495 47.3059 20.965 47.7757 20.965 48.3629C20.965 48.9501 20.495 49.4199 19.9075 49.4199H10.7425ZM28.1912 44.7221C27.6037 44.7221 27.1337 44.2524 27.1337 43.6651C27.1337 43.0779 27.6037 42.6082 28.1912 42.6082H37.4149C38.0024 42.6082 38.4724 43.0779 38.4724 43.6651C38.4724 44.2524 38.0024 44.7221 37.4149 44.7221H28.1912ZM10.4487 44.8983C9.86123 44.8983 9.39123 44.4285 9.39123 43.8413C9.39123 43.2541 9.86123 42.7843 10.4487 42.7843H19.6725C20.26 42.7843 20.73 43.2541 20.73 43.8413C20.73 44.4285 20.26 44.8983 19.6725 44.8983H10.4487V44.8983ZM46.6387 37.0883H49.8111V22.2318H46.6387V37.0883V37.0883ZM44.5237 37.0883V20.1178H51.9261V37.0883H57.9186L54.9224 34.9744L59.7986 34.9156L64.7336 38.0866L59.8574 41.3163H54.9224L57.9186 39.2023L23.315 39.261C22.845 41.0814 21.2 42.432 19.2025 42.432C16.8525 42.432 14.9725 40.5529 14.9725 38.204C14.9725 35.8552 16.8525 33.9761 19.2025 33.9761C21.1412 33.9761 22.845 35.3267 23.315 37.1471H24.1375V25.4615H31.8337V37.1471H34.5362V24.3458H42.1149V37.0883H44.5237V37.0883ZM36.6512 37.0883H39.9999V26.4597H36.6512V37.0883ZM26.2524 37.1471H29.7187V27.5755H26.2524V37.1471ZM21.3175 38.204C21.3175 37.0296 20.3775 36.0901 19.2025 36.0901C18.0275 36.0901 17.0875 37.0296 17.0875 38.204C17.0875 39.3785 18.0275 40.318 19.2025 40.318C20.3775 40.318 21.3175 39.3785 21.3175 38.204ZM72.6061 9.54795C73.1348 8.49096 72.7823 7.19909 71.7248 6.6706C70.7261 6.1421 69.4336 6.49443 68.8461 7.55142C68.3174 8.54968 68.6699 9.84156 69.7274 10.4288C70.7261 10.9573 72.0186 10.5462 72.6061 9.54795ZM20.4362 19.8242C19.4375 19.237 18.145 19.5893 17.5575 20.6463C17.0287 21.6446 17.3812 22.9365 18.38 23.5237C19.3787 24.1109 20.6712 23.6998 21.2587 22.7016C21.8462 21.6446 21.4937 20.4114 20.4362 19.8242V19.8242Z" fill="white"/>
</g>
<defs>
<clipPath id="clip0">
<rect width="74.6123" height="62.9756" fill="white" transform="translate(0.347656 0.961548)"/>
</clipPath>
</defs>
</svg>
