<svg width="62" height="55" viewBox="0 0 62 55" fill="none" xmlns="http://www.w3.org/2000/svg">
<g clip-path="url(#clip0)">
<path fill-rule="evenodd" clip-rule="evenodd" d="M50.717 7.97933C48.6293 8.88298 46.4963 9.78664 44.4086 10.6451C43.8186 10.871 43.1378 10.5547 42.9109 9.96737C42.6386 9.37999 42.9563 8.70225 43.5463 8.47634C44.9532 7.93415 46.3147 7.34678 47.7217 6.7594C49.6732 5.94611 51.6247 5.08764 53.5762 4.22917C54.1662 4.00326 54.847 4.27436 55.0739 4.86173C55.1647 5.04246 55.2101 5.22319 55.1647 5.40392L54.6655 15.6152C54.6201 16.2478 54.0755 16.7448 53.4401 16.6996C52.8047 16.6544 52.3055 16.1122 52.3509 15.5248L52.6685 9.24445C50.8078 11.865 48.947 14.5308 47.0863 17.1966C45.3163 19.6816 43.5917 22.1667 41.8217 24.6969C41.2317 25.5554 40.6417 26.4138 40.0517 27.2723C39.8248 27.6338 39.4617 28.0856 39.2802 28.4471C38.8263 29.2604 36.8294 28.2663 36.2848 27.9952C34.5148 27.1368 32.7448 26.0072 31.111 24.9228C29.0233 23.5222 27.0264 22.0763 25.0295 20.6305L10.1434 41.4597C9.78035 41.9567 9.0542 42.0922 8.50959 41.7308C8.01036 41.3241 7.87421 40.6464 8.23728 40.1042L23.8041 18.3262C24.2126 17.8291 24.8933 17.6936 25.4379 18.0551C26.1187 18.5069 26.7995 18.9587 27.4802 19.3654C28.9325 20.269 30.3848 21.1727 31.8371 22.1215C33.2441 23.0251 34.6964 23.8836 36.1033 24.7873C36.6025 25.1036 37.0563 25.3746 37.5556 25.6909C37.6917 25.7813 37.964 25.9168 38.1002 26.0072C38.3271 25.6457 38.5994 25.2843 38.8263 24.9228C39.4163 24.1095 39.9609 23.2962 40.5509 22.483C42.1848 20.0883 43.864 17.7388 45.5432 15.3441C47.2678 12.9042 48.9924 10.4192 50.717 7.97933V7.97933ZM26.1641 47.1075C25.5287 47.1075 25.0295 46.6105 25.0295 45.9779V30.8869C25.0295 30.2544 25.5287 29.7574 26.1641 29.7574C26.7541 29.7574 27.2987 30.2544 27.2987 30.8869V45.9779C27.2987 46.6105 26.7541 47.1075 26.1641 47.1075ZM16.7695 42.4537C16.7695 41.8211 17.2688 41.3241 17.8588 41.3241C18.4941 41.3241 18.9934 41.8211 18.9934 42.4537V45.9779C18.9934 46.6105 18.4941 47.1075 17.8588 47.1075C17.2688 47.1075 16.7695 46.6105 16.7695 45.9779V42.4537V42.4537ZM50.9893 47.1075C50.3539 47.1075 49.8547 46.6105 49.8547 45.9779V23.6125C49.8547 22.98 50.3539 22.483 50.9893 22.483C51.6247 22.483 52.1239 22.98 52.1239 23.6125V45.9779C52.1239 46.6105 51.6247 47.1075 50.9893 47.1075ZM41.5948 34.6371C41.5948 34.0045 42.094 33.5075 42.7294 33.5075C43.3194 33.5075 43.8186 34.0045 43.8186 34.6371V45.9779C43.8186 46.6105 43.3194 47.1075 42.7294 47.1075C42.094 47.1075 41.5948 46.6105 41.5948 45.9779V34.6371ZM33.2894 35.1793C33.2894 34.5467 33.7887 34.0497 34.424 34.0497C35.0594 34.0497 35.5587 34.5467 35.5587 35.1793V45.9779C35.5587 46.6105 35.0594 47.1075 34.424 47.1075C33.7887 47.1075 33.2894 46.6105 33.2894 45.9779V35.1793V35.1793ZM2.74578 52.6198H60.747C61.337 52.6198 61.8816 53.1168 61.8816 53.7493C61.8816 54.3367 61.337 54.8789 60.747 54.8789H1.61117C0.97579 54.8789 0.476562 54.3367 0.476562 53.7493V1.24712C0.476562 0.614563 0.97579 0.117554 1.61117 0.117554C2.20117 0.117554 2.74578 0.614563 2.74578 1.24712V52.6198Z" fill="#FEFEFE"/>
</g>
<defs>
<clipPath id="clip0">
<rect width="61.6065" height="54.7614" fill="white" transform="translate(0.378906 0.117554)"/>
</clipPath>
</defs>
</svg>
