<svg width="38" height="45" viewBox="0 0 38 45" fill="none" xmlns="http://www.w3.org/2000/svg">
<path d="M4.00514 39.5573H14.425V40.969H4.00514V39.5573ZM0 37.8249H1.56298L1.59554 37.8891V37.9532V38.0174L1.62811 38.0816V38.1778L1.66067 38.242L1.69323 38.3061L1.75835 38.4024L1.79092 38.4665L1.82348 38.5307L1.8886 38.627L1.95373 38.6911L2.01885 38.7553L2.08398 38.8195L2.18166 38.8836L2.24679 38.9478L2.34447 39.0119L2.4096 39.0761L2.50728 39.1403L2.60497 39.2044L2.70266 39.2365L2.83291 39.3007L2.93059 39.3328L3.02828 39.3969L3.15853 39.429L3.25621 39.4611L3.38646 39.4932H3.51671L3.64696 39.5253H3.74464L3.87489 39.5573H4.00514V40.969L3.80977 40.9369H3.6144L3.41902 40.9048H3.22365L3.02828 40.8406L2.83291 40.8086L2.63753 40.7444L2.47472 40.7123L2.31191 40.6481L2.11654 40.5519L1.95373 40.4877L1.79092 40.3915L1.62811 40.3273L1.49786 40.2311L1.33505 40.1348L1.2048 40.0065L1.07455 39.9102L0.944302 39.814L0.846615 39.6857L0.716367 39.5573L0.61868 39.429L0.520994 39.3007L0.423308 39.1724L0.325621 39.044L0.260497 38.8836L0.195373 38.7553L0.130249 38.5949L0.0976864 38.4345L0.0651243 38.2741L0.0325621 38.1457L0 37.9853V37.8249H0ZM1.56298 6.12763V37.8249H0V6.12763H1.56298ZM4.00514 2.69482V4.10644H3.87489H3.74464H3.64696L3.51671 4.13853L3.38646 4.17061H3.28877L3.15853 4.20269L3.06084 4.26686L2.93059 4.29894L2.83291 4.33102L2.73522 4.39518L2.63753 4.45935L2.53985 4.49143L2.44216 4.5556L2.34447 4.61976L2.27935 4.68392L2.18166 4.78017L2.11654 4.84434L2.05141 4.9085L1.98629 5.00475L1.92117 5.06891L1.85604 5.16516L1.82348 5.26141L1.75835 5.35765L1.72579 5.42182L1.69323 5.51806L1.66067 5.61431L1.62811 5.71056L1.59554 5.8068V5.93513V6.03138L1.56298 6.12763H0V5.93513L0.0325621 5.77472V5.58223L0.0976864 5.42182L0.130249 5.26141L0.195373 5.10099L0.260497 4.94058L0.325621 4.78017L0.390746 4.61976L0.488432 4.45935L0.586118 4.33102L0.683805 4.17061L0.814053 4.04228L0.91174 3.91395L1.04199 3.78562L1.17224 3.68937L1.33505 3.56105L1.4653 3.4648L1.62811 3.36855L1.79092 3.27231L1.95373 3.17606L2.11654 3.07981L2.27935 3.01565L2.47472 2.95148L2.63753 2.88732L2.83291 2.82315L3.02828 2.79107L3.22365 2.75899L3.41902 2.72691L3.6144 2.69482H3.80977H4.00514ZM7.55441 4.10644H4.00514V2.69482H7.55441V4.10644ZM29.8269 4.10644H25.952V2.69482H29.8269V4.10644ZM33.5064 6.12763H31.9109V6.03138V5.90305L31.8783 5.8068V5.71056L31.8458 5.61431L31.8132 5.51806L31.7806 5.42182L31.7481 5.32557L31.6829 5.22932L31.6504 5.16516L31.5853 5.06891L31.5201 4.97266L31.455 4.9085L31.3899 4.81225L31.3248 4.74809L31.2271 4.68392L31.162 4.61976L31.0968 4.5556L30.9991 4.49143L30.9015 4.42727L30.8363 4.3631L30.7386 4.33102L30.641 4.26686L30.5433 4.23477L30.4781 4.20269L30.3805 4.17061L30.2828 4.13853H30.1851L30.0874 4.10644H30.0223H29.9246H29.8269V2.69482H30.0223H30.1851L30.3805 2.72691L30.5433 2.75899L30.7061 2.79107L30.9015 2.85524L31.0643 2.88732L31.2271 2.95148L31.3899 3.01565L31.5201 3.11189L31.6829 3.17606L31.8458 3.27231L31.976 3.36855L32.1063 3.4648L32.2365 3.59313L32.3668 3.68937L32.497 3.8177L32.6273 3.94603L32.7249 4.07436L32.8226 4.20269L32.9203 4.33102L33.018 4.49143L33.1157 4.61976L33.1808 4.78017L33.2459 4.94058L33.3111 5.10099L33.3762 5.26141L33.4087 5.42182L33.4413 5.61431L33.4739 5.77472V5.93513L33.5064 6.12763ZM31.9109 14.5973V6.12763H33.5064V14.5973H31.9109Z" fill="white"/>
<path d="M25.2687 4.71609V0.641645H26.6363V4.71609H25.2687ZM24.3895 6.76936V5.51815H24.4221L24.4872 5.48607H24.5198H24.5523H24.5849H24.65L24.6826 5.45398H24.7151L24.7477 5.4219H24.7803L24.8454 5.38982L24.8779 5.35774H24.9105L24.9431 5.32565L24.9756 5.29357L25.0082 5.26149L25.0408 5.22941V5.19733H25.0733L25.1059 5.13316L25.1384 5.10108V5.069L25.171 5.03691L25.2036 5.00483V4.97275V4.94067L25.2361 4.90859V4.8765V4.81234V4.78026L25.2687 4.74817V4.71609H26.6363L26.6037 4.81234V4.90859V5.00483L26.5712 5.10108L26.5386 5.22941L26.5061 5.32565L26.4735 5.4219L26.4409 5.51815L26.4084 5.58231L26.3432 5.67856L26.3107 5.77481L26.2456 5.87105L26.1804 5.93522L26.1153 6.03146L26.0502 6.09563L25.9525 6.15979L25.8874 6.22396L25.8222 6.28812L25.7246 6.35229L25.6269 6.41645L25.5292 6.48062L25.4641 6.5127L25.3664 6.57686L25.2687 6.60895L25.1384 6.64103L25.0408 6.67311L24.9431 6.70519L24.8454 6.73727H24.7151L24.6175 6.76936H24.4872H24.3895ZM9.11788 5.51815H24.3895V6.76936H9.11788V5.51815ZM6.87109 4.71609H8.2387V4.74817V4.78026V4.81234V4.8765L8.27127 4.90859V4.94067L8.30383 4.97275V5.00483L8.33639 5.03691V5.069L8.36895 5.10108L8.40151 5.13316V5.19733H8.43408L8.46664 5.22941L8.4992 5.26149L8.53176 5.29357L8.56432 5.32565L8.59689 5.35774H8.62945L8.66201 5.38982L8.69457 5.4219H8.72714L8.7597 5.45398H8.82482L8.85738 5.48607H8.88995H8.92251H8.98763H9.02019L9.05276 5.51815H9.11788V6.76936H8.98763H8.88995L8.7597 6.73727H8.66201L8.56432 6.70519L8.43408 6.67311L8.33639 6.64103L8.2387 6.60895L8.14102 6.57686L8.04333 6.5127L7.94564 6.48062L7.84796 6.41645L7.78283 6.35229L7.68515 6.28812L7.62002 6.22396L7.52234 6.15979L7.45721 6.09563L7.39209 6.03146L7.32696 5.93522L7.26184 5.87105L7.19672 5.77481L7.13159 5.67856L7.09903 5.58231L7.0339 5.51815L7.00134 5.4219L6.96878 5.32565L6.93622 5.22941L6.90366 5.10108V5.00483L6.87109 4.90859V4.81234V4.71609ZM8.2387 0.641645V4.71609H6.87109V0.641645L7.5549 0L8.2387 0.641645ZM6.87109 0.641645V0H7.5549L6.87109 0.641645ZM25.9525 1.25121H7.5549V0H25.9525L26.6363 0.641645L25.9525 1.25121ZM25.9525 0H26.6363V0.641645L25.9525 0Z" fill="white"/>
<path d="M35.0694 18.9607H19.8954V17.5491H35.0694V18.9607ZM38 20.3723H36.437V20.3081V20.2119L36.4044 20.1477V20.0836L36.3719 20.0194V19.9552L36.3393 19.8911L36.3067 19.7948L36.2742 19.7627L36.2416 19.6986L36.2091 19.6344L36.1765 19.5703L36.1439 19.5061L36.1114 19.474L36.0462 19.4098L36.0137 19.3457L35.9486 19.3136L35.916 19.2815L35.8509 19.2173L35.7858 19.1853L35.7532 19.1532L35.6881 19.1211L35.6229 19.089L35.5904 19.0569H35.5253L35.4601 19.0249L35.395 18.9928H35.3299H35.2648L35.1996 18.9607H35.1345H35.0694V17.5491H35.2322L35.395 17.5812H35.5253L35.6881 17.6132L35.8183 17.6453L35.9811 17.6774L36.1114 17.7416L36.2416 17.7736L36.3719 17.8378L36.5021 17.902L36.6324 17.9982L36.7301 18.0624L36.8603 18.1266L36.958 18.2228L37.0557 18.319L37.1859 18.4153L37.2836 18.5115L37.3487 18.6078L37.4464 18.704L37.5115 18.8324L37.6092 18.9286L37.6744 19.0569L37.7395 19.1853L37.772 19.3136L37.8372 19.4419L37.8697 19.5703L37.9349 19.6986L37.9674 19.8269V19.9552L38 20.0836V20.244V20.3723ZM36.437 41.8353V20.3723H38V41.8353H36.437ZM35.0694 44.6586V43.247H35.1345L35.1996 43.2149H35.2648H35.3299L35.395 43.1828H35.4601L35.5253 43.1507L35.5904 43.1186H35.6229L35.6881 43.0866L35.7532 43.0545L35.7858 43.0224L35.8509 42.9582L35.916 42.9261L35.9486 42.8941L36.0137 42.8299L36.0462 42.7978L36.1114 42.7336L36.1439 42.7016L36.1765 42.6374L36.2091 42.5732L36.2416 42.5091L36.2742 42.4449L36.3067 42.3807L36.3393 42.3166L36.3719 42.2524V42.1882L36.4044 42.1241V42.0599L36.437 41.9637V41.8995V41.8353H38V41.9637V42.092L37.9674 42.2524V42.3807L37.9349 42.5091L37.8697 42.6374L37.8372 42.7657L37.772 42.8941L37.7395 43.0224L37.6744 43.1507L37.6092 43.247L37.5115 43.3753L37.4464 43.4715L37.3487 43.5999L37.2836 43.6961L37.1859 43.7924L37.0557 43.8886L36.958 43.9849L36.8603 44.049L36.7301 44.1453L36.6324 44.2094L36.5021 44.3057L36.3719 44.3698L36.2416 44.4019L36.1114 44.4661L35.9811 44.4982L35.8183 44.5623L35.6881 44.5944L35.5253 44.6265H35.395L35.2322 44.6586H35.0694ZM19.8954 43.247H35.0694V44.6586H19.8954V43.247ZM16.9648 41.8353H18.5278V41.8995V41.9637L18.5604 42.0599V42.1241L18.5929 42.1882V42.2524L18.6255 42.3166L18.6581 42.3807L18.6906 42.4449L18.7232 42.5091L18.7558 42.5732L18.7883 42.6374L18.8209 42.7016L18.8534 42.7336L18.9186 42.7978L18.9511 42.8299L19.0163 42.8941L19.0488 42.9261L19.1139 42.9582L19.1791 43.0224L19.2116 43.0545L19.2768 43.0866L19.3419 43.1186H19.407L19.4396 43.1507L19.5047 43.1828H19.5698L19.6349 43.2149H19.7001H19.7652L19.8303 43.247H19.8954V44.6586H19.7326L19.6024 44.6265H19.4396L19.2768 44.5944L19.1465 44.5623L19.0163 44.4982L18.8534 44.4661L18.7232 44.4019L18.5929 44.3698L18.4627 44.3057L18.3325 44.2094L18.2348 44.1453L18.1045 44.049L18.0068 43.9849L17.9091 43.8886L17.7789 43.7924L17.6812 43.6961L17.6161 43.5999L17.5184 43.4715L17.4533 43.3753L17.3556 43.247L17.2905 43.1507L17.2253 43.0224L17.1928 42.8941L17.1277 42.7657L17.0951 42.6374L17.03 42.5091V42.3807L16.9974 42.2524L16.9648 42.092V41.9637V41.8353ZM18.5278 20.3723V41.8353H16.9648V20.3723H18.5278ZM19.8954 17.5491V18.9607H19.8303H19.7652L19.7001 18.9928H19.6349H19.5698L19.5047 19.0249L19.4396 19.0569H19.407L19.3419 19.089L19.2768 19.1211L19.2116 19.1532L19.1791 19.1853L19.1139 19.2173L19.0488 19.2815L19.0163 19.3136L18.9511 19.3457L18.9186 19.4098L18.8534 19.474L18.8209 19.5061L18.7883 19.5703L18.7558 19.6344L18.7232 19.6986L18.6906 19.7627L18.6581 19.7948L18.6255 19.8911L18.5929 19.9552V20.0194L18.5604 20.0836V20.1477L18.5278 20.2119V20.3081V20.3723H16.9648V20.244V20.0836L16.9974 19.9552L17.03 19.8269V19.6986L17.0951 19.5703L17.1277 19.4419L17.1928 19.3136L17.2253 19.1853L17.2905 19.0569L17.3556 18.9286L17.4533 18.8324L17.5184 18.704L17.6161 18.6078L17.6812 18.5115L17.7789 18.4153L17.9091 18.319L18.0068 18.2228L18.1045 18.1266L18.2348 18.0624L18.3325 17.9982L18.4627 17.902L18.5929 17.8378L18.7232 17.7736L18.8534 17.7416L19.0163 17.6774L19.1465 17.6453L19.2768 17.6132L19.4396 17.5812H19.6024L19.7326 17.5491H19.8954Z" fill="white"/>
<path d="M23.4787 30.5422H21.3621C21.0564 30.5422 20.8086 30.8582 20.8086 31.248V32.0822C20.8086 32.472 21.0564 32.788 21.3621 32.788H23.4787C23.7844 32.788 24.0322 32.472 24.0322 32.0822V31.248C24.0322 30.8582 23.7844 30.5422 23.4787 30.5422Z" fill="white"/>
<path d="M28.3928 30.5422H26.2762C25.9705 30.5422 25.7227 30.8582 25.7227 31.248V32.0822C25.7227 32.472 25.9705 32.788 26.2762 32.788H28.3928C28.6985 32.788 28.9463 32.472 28.9463 32.0822V31.248C28.9463 30.8582 28.6985 30.5422 28.3928 30.5422Z" fill="white"/>
<path d="M33.3107 30.5422H31.1942C30.8885 30.5422 30.6406 30.8582 30.6406 31.248V32.0822C30.6406 32.472 30.8885 32.788 31.1942 32.788H33.3107C33.6164 32.788 33.8643 32.472 33.8643 32.0822V31.248C33.8643 30.8582 33.6164 30.5422 33.3107 30.5422Z" fill="white"/>
<path d="M23.4787 34.4243H21.3621C21.0564 34.4243 20.8086 34.7403 20.8086 35.1301V35.9643C20.8086 36.3541 21.0564 36.6701 21.3621 36.6701H23.4787C23.7844 36.6701 24.0322 36.3541 24.0322 35.9643V35.1301C24.0322 34.7403 23.7844 34.4243 23.4787 34.4243Z" fill="white"/>
<path d="M28.3928 34.4243H26.2762C25.9705 34.4243 25.7227 34.7403 25.7227 35.1301V35.9643C25.7227 36.3541 25.9705 36.6701 26.2762 36.6701H28.3928C28.6985 36.6701 28.9463 36.3541 28.9463 35.9643V35.1301C28.9463 34.7403 28.6985 34.4243 28.3928 34.4243Z" fill="white"/>
<path d="M33.3107 34.4243H31.1942C30.8885 34.4243 30.6406 34.7403 30.6406 35.1301V35.9643C30.6406 36.3541 30.8885 36.6701 31.1942 36.6701H33.3107C33.6164 36.6701 33.8643 36.3541 33.8643 35.9643V35.1301C33.8643 34.7403 33.6164 34.4243 33.3107 34.4243Z" fill="white"/>
<path d="M23.4787 38.3062H21.3621C21.0564 38.3062 20.8086 38.6222 20.8086 39.012V39.8461C20.8086 40.2359 21.0564 40.5519 21.3621 40.5519H23.4787C23.7844 40.5519 24.0322 40.2359 24.0322 39.8461V39.012C24.0322 38.6222 23.7844 38.3062 23.4787 38.3062Z" fill="white"/>
<path d="M28.3928 38.3062H26.2762C25.9705 38.3062 25.7227 38.6222 25.7227 39.012V39.8461C25.7227 40.2359 25.9705 40.5519 26.2762 40.5519H28.3928C28.6985 40.5519 28.9463 40.2359 28.9463 39.8461V39.012C28.9463 38.6222 28.6985 38.3062 28.3928 38.3062Z" fill="white"/>
<path d="M33.3107 38.3062H31.1942C30.8885 38.3062 30.6406 38.6222 30.6406 39.012V39.8461C30.6406 40.2359 30.8885 40.5519 31.1942 40.5519H33.3107C33.6164 40.5519 33.8643 40.2359 33.8643 39.8461V39.012C33.8643 38.6222 33.6164 38.3062 33.3107 38.3062Z" fill="white"/>
<path d="M33.3452 23.6445H21.6228V22.2329H33.3452V23.6445ZM34.6477 23.42H33.0521V23.452H33.0847V23.4841V23.5162H33.1172V23.5483L33.1498 23.5804H33.1824V23.6124H33.2149H33.2475L33.28 23.6445H33.3126H33.3452V22.2329H33.4429H33.508H33.5731L33.6382 22.265H33.7034L33.7685 22.2971H33.8336L33.8987 22.3292L33.9313 22.3612L33.9964 22.3933L34.0615 22.4254L34.0941 22.4575L34.1592 22.4896L34.1918 22.5217L34.2569 22.5537L34.2895 22.6179L34.322 22.65L34.3872 22.6821L34.4197 22.7462L34.4523 22.7783L34.4848 22.8104V22.8746L34.5174 22.9387L34.55 22.9708L34.5825 23.035V23.067L34.6151 23.1312V23.1954V23.2595L34.6477 23.3237V23.3558V23.42ZM33.0521 26.4036V23.42H34.6477V26.4036H33.0521ZM33.3452 27.5906V26.179H33.3126L33.28 26.2111H33.2475H33.2149L33.1824 26.2432H33.1498V26.2753H33.1172V26.3074H33.0847V26.3394V26.3715L33.0521 26.4036H34.6477V26.4678V26.5319L34.6151 26.564V26.6282V26.6923L34.5825 26.7565V26.7886L34.55 26.8528L34.5174 26.9169L34.4848 26.949V27.0132L34.4523 27.0452L34.4197 27.1094L34.3872 27.1415L34.322 27.1736L34.2895 27.2377L34.2569 27.2698L34.1918 27.3019L34.1592 27.334L34.0941 27.3661L34.0615 27.4302H33.9964L33.9313 27.4623L33.8987 27.4944L33.8336 27.5265H33.7685L33.7034 27.5586H33.6382L33.5731 27.5906H33.508H33.4429H33.3452ZM21.6228 26.179H33.3452V27.5906H21.6228V26.179ZM20.3203 26.4036H21.9159V26.3715H21.8833V26.3394V26.3074H21.8507V26.2753H21.8182V26.2432H21.7856L21.753 26.2111H21.7205H21.6879L21.6554 26.179H21.6228V27.5906H21.5251H21.46H21.3949L21.3297 27.5586H21.2646L21.1995 27.5265H21.1344L21.1018 27.4944L21.0367 27.4623L20.9716 27.4302L20.9064 27.3982L20.8739 27.3661L20.8087 27.334L20.7762 27.3019L20.7111 27.2698L20.6785 27.2377L20.6459 27.1736L20.6134 27.1415L20.5482 27.1094L20.5157 27.0452L20.4831 27.0132V26.949L20.4506 26.9169L20.418 26.8528L20.3854 26.7886V26.7565L20.3529 26.6923V26.6282V26.564L20.3203 26.5319V26.4678V26.4036ZM21.9159 23.42V26.4036H20.3203V23.42H21.9159ZM21.6228 22.2329V23.6445H21.6554H21.6879H21.7205V23.6124H21.753H21.7856V23.5804H21.8182L21.8507 23.5483V23.5162H21.8833V23.4841V23.452H21.9159V23.42H20.3203V23.3558V23.2916L20.3529 23.2595V23.1954V23.1312L20.3854 23.067V23.035L20.418 22.9708L20.4506 22.9066L20.4831 22.8746V22.8104L20.5157 22.7783L20.5482 22.7462L20.6134 22.6821L20.6459 22.65L20.6785 22.6179L20.7111 22.5537L20.7762 22.5217L20.8087 22.4896L20.8739 22.4575L20.9064 22.4254L20.9716 22.3933L21.0367 22.3612L21.1018 22.3292L21.1344 22.2971H21.1995L21.2646 22.265H21.3297L21.3949 22.2329H21.46H21.5251H21.6228Z" fill="white"/>
<path d="M27.189 10.2983C27.4169 10.2983 27.6123 10.5229 27.6123 10.7796C27.6123 11.0362 27.4169 11.2287 27.189 11.2287V10.2983ZM5.9259 10.2983H27.189V11.2287H5.9259V10.2983ZM5.9259 11.2287C5.69797 11.2287 5.53516 11.0362 5.53516 10.7796C5.53516 10.5229 5.69797 10.2983 5.9259 10.2983V11.2287Z" fill="white"/>
<path d="M27.189 13.3142C27.4169 13.3142 27.6123 13.5388 27.6123 13.7954C27.6123 14.0521 27.4169 14.2446 27.189 14.2446V13.3142ZM5.9259 13.3142H27.189V14.2446H5.9259V13.3142ZM5.9259 14.2446C5.69797 14.2446 5.53516 14.0521 5.53516 13.7954C5.53516 13.5388 5.69797 13.3142 5.9259 13.3142V14.2446Z" fill="white"/>
<path d="M13.7408 16.4902C13.9687 16.4902 14.1316 16.7148 14.1316 16.9715C14.1316 17.2281 13.9687 17.4206 13.7408 17.4206V16.4902ZM5.9259 16.4902H13.7408V17.4206H5.9259V16.4902ZM5.9259 17.4206C5.69797 17.4206 5.53516 17.2281 5.53516 16.9715C5.53516 16.7148 5.69797 16.4902 5.9259 16.4902V17.4206Z" fill="white"/>
<path d="M13.7408 19.5061C13.9687 19.5061 14.1316 19.7307 14.1316 19.9873C14.1316 20.244 13.9687 20.4365 13.7408 20.4365V19.5061ZM5.9259 19.5061H13.7408V20.4365H5.9259V19.5061ZM5.9259 20.4365C5.69797 20.4365 5.53516 20.244 5.53516 19.9873C5.53516 19.7307 5.69797 19.5061 5.9259 19.5061V20.4365Z" fill="white"/>
</svg>
