<svg width="70" height="70" viewBox="0 0 70 70" fill="none" xmlns="http://www.w3.org/2000/svg">
<path d="M19.723 15.3597C19.723 21.8616 11.3615 27.4347 11.3615 27.4347C11.3615 27.4347 3 21.8616 3 15.3597C3 13.1425 3.88094 11.0162 5.44902 9.44849C7.0171 7.88075 9.14388 7 11.3615 7C13.5791 7 15.7059 7.88075 17.2739 9.44849C18.842 11.0162 19.723 13.1425 19.723 15.3597Z" stroke="white" stroke-width="2" stroke-linecap="round" stroke-linejoin="round"/>
<path d="M68.0003 51.9248C68.0003 58.4268 59.6388 63.9999 59.6388 63.9999C59.6388 63.9999 51.2773 58.4268 51.2773 51.9248C51.2773 49.7077 52.1583 47.5814 53.7264 46.0137C55.2944 44.4459 57.4212 43.5652 59.6388 43.5652C61.8564 43.5652 63.9832 44.4459 65.5513 46.0137C67.1194 47.5814 68.0003 49.7077 68.0003 51.9248Z" stroke="white" stroke-width="2" stroke-linecap="round" stroke-linejoin="round"/>
<path d="M11.3609 18.1456C12.9002 18.1456 14.1481 16.898 14.1481 15.3591C14.1481 13.8201 12.9002 12.5725 11.3609 12.5725C9.82158 12.5725 8.57373 13.8201 8.57373 15.3591C8.57373 16.898 9.82158 18.1456 11.3609 18.1456Z" stroke="white" stroke-width="2" stroke-linecap="round" stroke-linejoin="round"/>
<path d="M59.6382 54.7115C61.1775 54.7115 62.4254 53.464 62.4254 51.925C62.4254 50.386 61.1775 49.1384 59.6382 49.1384C58.0989 49.1384 56.8511 50.386 56.8511 51.925C56.8511 53.464 58.0989 54.7115 59.6382 54.7115Z" stroke="white" stroke-width="2" stroke-linecap="round" stroke-linejoin="round"/>
<path d="M25.5049 17.2175H43.9163C57.2602 17.2175 57.7204 34.7018 43.9163 34.7018H25.5049C12.159 34.7018 13.5402 54.3716 25.5049 54.3716H43.9163" stroke="white" stroke-width="2" stroke-linecap="round" stroke-linejoin="round" stroke-dasharray="6 6"/>
</svg>
