<svg width="70" height="70" viewBox="0 0 70 70" fill="none" xmlns="http://www.w3.org/2000/svg">
<path d="M30.2188 14.2891V26.0481L43.0923 26.4156" stroke="white" stroke-width="2" stroke-linecap="round" stroke-linejoin="round"/>
<path d="M30.7737 15.0631L31.4402 14.3175L30.7737 15.0631L36.8983 20.5378L42.568 25.8875L43.2543 25.1601L42.568 25.8875C42.9685 26.2653 43.1954 26.7916 43.1954 27.3422V62C43.1954 63.1046 42.3 64 41.1954 64H6C4.89543 64 4 63.1046 4 62V16.5542C4 15.4496 4.89543 14.5542 6 14.5542H29.4408C29.9326 14.5542 30.4071 14.7354 30.7737 15.0631Z" stroke="white" stroke-width="2"/>
<path d="M9.25293 32.6626H34.2644" stroke="white" stroke-width="2" stroke-linecap="round"/>
<path d="M9.62061 39.2771H34.6321" stroke="white" stroke-width="2" stroke-linecap="round"/>
<path d="M9.62061 45.8916H34.6321" stroke="white" stroke-width="2" stroke-linecap="round"/>
<path d="M9.62061 52.5061H34.6321" stroke="white" stroke-width="2" stroke-linecap="round"/>
<path d="M54.4941 53.9758V41.8605L66.9999 41.4819" stroke="white" stroke-width="2" stroke-linecap="round" stroke-linejoin="round"/>
<path d="M48.6089 34.8674H58.1721" stroke="white" stroke-width="2" stroke-linecap="round"/>
<path d="M48.6089 28.2532H58.1721" stroke="white" stroke-width="2" stroke-linecap="round"/>
<path d="M48.6089 21.6387H58.1721" stroke="white" stroke-width="2" stroke-linecap="round"/>
<path d="M48.6089 15.0242H58.1721" stroke="white" stroke-width="2" stroke-linecap="round"/>
<path d="M30.2188 9.55288V7C30.2188 5.34315 31.5619 4 33.2188 4H63.058C64.6835 4 66.0134 5.29467 66.0569 6.91964L66.9664 40.8604C66.9881 41.6718 66.6802 42.4574 66.1128 43.0378L56.3036 53.0729C55.7392 53.6504 54.9658 53.9759 54.1583 53.9759H49.2907" stroke="white" stroke-width="2" stroke-linecap="round"/>
</svg>
