<svg width="69" height="67" viewBox="0 0 69 67" fill="none" xmlns="http://www.w3.org/2000/svg">
<path d="M32.4857 66H2L7.93692 54H32.4857M36.5263 66H67L61.0612 54H36.5263" stroke="white" stroke-width="2"/>
<path d="M32.5014 50H9.92725L13.8683 42H32.5014M36.4713 50H59.081L55.1311 42H36.4713" stroke="white" stroke-width="2"/>
<path d="M36.408 38H53.1582L48.7148 29H34.5057H20.2988L15.8413 38H32.5859" stroke="white" stroke-width="2"/>
<path d="M22.0519 25L25.8895 18H43.1083L46.9569 25H22.0519Z" stroke="white" stroke-width="2"/>
<path d="M28.099 14L34.5056 2.10837L40.9123 14H28.099Z" stroke="white" stroke-width="2"/>
<path d="M32.4854 67V38H29.4551L34.5059 30L39.5567 38H36.5262L36.5261 67" stroke="white" stroke-width="2"/>
</svg>
