<svg width="67" height="67" viewBox="0 0 67 67" fill="none" xmlns="http://www.w3.org/2000/svg">
<path fill-rule="evenodd" clip-rule="evenodd" d="M64.8932 53.5263C64.0381 60.6507 57.7145 65.5733 50.6426 64.8859C43.9611 64.2364 38.1075 58.4343 38.9157 50.9214C39.6198 44.3742 45.6779 38.8383 53.2174 39.5974C60.3474 40.3153 65.7212 46.63 64.8932 53.5263ZM49.1322 55.1429C48.7039 54.6818 47.9464 53.3421 47.5524 52.7222C47.2573 52.2583 46.2403 50.5516 45.9415 50.36C44.9809 49.7424 43.7758 50.7386 44.6811 52.0961C45.237 52.9293 45.7502 53.7259 46.2685 54.5595C46.7727 55.3702 47.308 56.1874 47.8174 56.984C48.8447 58.5903 49.5769 57.5754 51.2327 56.1002L59.7404 48.6389C60.9961 47.4407 59.6991 46.407 58.8229 46.764C58.6099 46.8507 57.8547 47.5227 57.6741 47.6867L50.2829 54.1978C49.9409 54.4817 49.5004 54.925 49.1317 55.1424L49.1322 55.1429ZM20.6835 38.5969C21.0344 37.4831 22.5162 36.231 23.5946 35.7184C25.2294 34.9414 26.8411 35.1242 28.7817 35.1242C30.7453 35.1242 32.2862 34.9344 33.9632 35.7259C35.1668 36.2933 36.3733 37.3936 36.8574 38.5974C36.6317 38.9245 35.6631 39.5664 35.2611 39.8284C31.9653 41.9745 27.7113 42.2716 24.067 40.7646C22.9403 40.2989 21.3116 39.3022 20.6835 38.5974V38.5969ZM28.5035 22.4277C30.9428 22.184 33.0681 24.2435 33.176 26.5237C33.2947 29.0269 31.3691 30.9833 29.0233 31.1201C26.5264 31.2653 24.4873 29.294 24.3644 26.9998C24.227 24.4427 26.1553 22.662 28.5035 22.4277ZM19.1633 36.9808C18.6815 36.5815 17.8489 35.0249 17.5266 34.2751C16.0392 30.8113 16.2681 26.9182 17.9835 23.7604C22.6513 15.1669 34.7714 15.0174 39.6062 23.8129C41.9516 28.0794 41.2728 33.1247 38.4161 36.9981C38.0873 36.7291 37.7782 36.0328 37.0201 35.3702C34.5284 33.1931 33.5405 33.2981 30.295 33.0282C30.6045 32.8839 31.0441 32.7869 31.3917 32.628C32.4396 32.1491 33.2215 31.5385 33.9341 30.6407C37.0239 26.7495 34.3727 20.3645 28.7822 20.3584C25.4452 20.3547 22.7437 22.8476 22.361 25.907C22.1213 27.824 22.7367 29.5128 23.6228 30.6491C25.1398 32.5952 26.4523 32.591 27.2155 33.0394C24.9512 33.1617 24.0515 33.1121 22.2193 34.105C20.191 35.2043 19.6164 36.5534 19.1633 36.9808ZM14.4884 30.0208C14.9786 38.082 21.2652 43.8916 29.2602 43.7594C33.495 43.6891 37.2725 41.4066 39.1263 39.3218C40.3942 37.8964 41.1621 36.8875 41.9609 35.0056C45.9669 25.5696 38.6901 14.7423 28.2244 15.232C22.5697 15.4968 17.6205 18.9236 15.5645 24.0439C14.8576 25.8048 14.359 27.8957 14.4879 30.0212L14.4884 30.0208ZM8.351 18.268C9.16109 17.9245 10.3211 17.6317 11.1706 17.3505C13.8387 16.4672 16.5322 15.3656 19.1056 14.2414C20.7745 13.5123 22.5092 12.6651 24.0651 11.8099L28.7817 9.10986C29.1926 9.29402 29.6021 9.59204 29.999 9.82587L33.5757 11.8122C35.1846 12.651 36.9076 13.4828 38.5864 14.1917C41.2761 15.3281 45.0963 16.8988 47.9281 17.8013C48.2743 17.9114 49.0567 18.0904 49.2298 18.3472C49.2424 22.8251 48.3812 27.1132 47.1156 31.0221C46.5209 32.8595 45.7774 34.6298 44.9921 36.2891C44.6 37.1181 44.1698 37.9226 43.766 38.716C43.3616 39.5107 42.954 40.3495 42.2794 40.8832C38.1867 44.1226 38.0455 47.2842 37.037 48.5123C35.9234 49.8689 34.7348 51.1374 33.5072 52.3712C32.6404 53.2423 29.5299 56.3683 28.7812 56.7708L26.7975 55.0295C26.479 54.6874 26.1774 54.4738 25.8457 54.1561C24.1833 52.5661 22.9712 51.217 21.3473 49.4397C20.7652 48.8024 20.2543 48.0981 19.6539 47.398L18.0375 45.3545C14.8196 40.7764 12.3025 36.545 10.421 30.8919C9.8103 29.0559 9.25444 27.0143 8.91858 25.0045C8.69108 23.6451 8.10145 19.5309 8.35053 18.268H8.351ZM36.7903 51.9513C36.8625 52.9508 36.8325 53.6889 37.0032 54.6898C37.1341 55.4569 37.5389 56.506 37.6032 57.0997C36.119 58.491 35.0533 59.6269 33.3848 61.0622C32.8317 61.5378 29.4314 64.3713 28.7817 64.6802C27.927 64.2528 24.0998 60.9947 23.4178 60.3921C21.7164 58.8898 19.4738 56.7197 17.9751 55.0319C17.7565 54.7858 17.6538 54.6387 17.4141 54.4002C17.0224 54.0108 16.6734 53.5417 16.2981 53.1322C15.5673 52.3337 14.7994 51.344 14.1216 50.4626C9.69959 44.7092 6.35882 38.9798 4.07018 31.5962C2.09677 25.2299 2.07003 20.8247 2.05831 14.262C5.95307 13.4172 12.6323 10.8643 16.2343 9.14829C19.5432 7.57241 22.6485 5.98483 25.7543 4.1278C26.1408 3.89678 28.5936 2.34152 28.7531 2.30216L34.9857 5.63807C37.1196 6.72286 39.3013 7.82405 41.535 8.78466C45.5527 10.5114 49.4835 12.1871 53.6508 13.5891C54.2184 13.7803 54.9896 14.106 55.5117 14.1899C55.3372 16.3543 55.5347 18.7432 55.3996 20.9694C55.2734 23.0453 55.0004 25.0818 54.6059 27.0733C54.1509 29.3722 52.4331 35.6561 51.2782 37.4831C50.3255 37.619 49.5633 37.6321 48.6068 37.8416C47.6452 38.0524 46.6719 38.4367 46.2103 38.5332L47.876 34.8773C49.5553 30.9209 50.6938 26.3789 51.1122 21.9975C51.1938 21.1438 51.4879 17.5173 51.1464 16.971C50.782 16.3885 48.1068 15.68 47.3089 15.4007C41.2676 13.2864 36.2143 11.0761 30.7575 7.87512C28.7104 6.67412 29.1429 6.38641 27.2014 7.6352C25.5061 8.72562 23.778 9.58267 22.0776 10.5395C21.5359 10.8446 20.8745 11.1651 20.2661 11.4299L18.4259 12.2883C15.853 13.4026 13.4217 14.39 10.6692 15.3389C6.03891 16.9353 6.21434 16.0619 6.26219 18.9822C6.32645 22.8818 7.0432 26.9777 8.14272 30.5442C9.90787 36.2699 12.4367 40.7361 15.2615 44.9562L16.9412 47.249C17.172 47.51 17.2761 47.7218 17.5182 48.0208C18.3428 49.039 19.1098 50.047 19.963 50.9799C20.2342 51.2766 20.3252 51.4059 20.5527 51.6617L22.5176 53.7474C22.9173 54.1996 23.4154 54.6977 23.8597 55.1073L25.9133 57.0266C26.1788 57.297 26.3767 57.4043 26.6361 57.6541C28.7662 59.707 28.8094 59.5669 30.6515 57.9352L34.1597 54.6907C35.0655 53.7751 35.869 52.8768 36.7893 51.9509L36.7903 51.9513ZM38.5784 59.1433C38.9021 59.9774 40.0701 61.4028 40.6198 62.0284C41.3807 62.8943 42.1861 63.5874 43.2434 64.332C45.0845 65.6291 47.7395 66.7152 50.561 66.9453C56.9719 67.4683 61.8311 64.1506 64.2131 60.8086C68.9212 54.2015 67.5984 44.9777 60.7419 40.26C59.7765 39.5955 58.7943 39.0365 57.5386 38.5365C55.5412 37.7413 55.1772 37.9348 53.5322 37.5393C53.7662 36.8346 54.1518 35.9574 54.4267 35.2315C54.7405 34.4016 55.0266 33.5858 55.2818 32.7466C55.7988 31.047 56.2805 29.2546 56.6314 27.4281C57.456 23.1301 57.5508 19.5951 57.5494 15.0914C57.5484 12.3998 57.8782 12.8558 54.3868 11.6665C49.1871 9.89475 45.1722 8.14456 40.2024 5.90563C37.136 4.52376 34.2516 2.92117 31.4494 1.38841C28.3595 -0.301801 29.233 -0.420355 27.1137 0.877644C19.251 5.69477 11.2827 9.68951 1.87349 12.1941C0.774439 12.4865 0.0271972 12.4092 0.0159393 13.6585C-0.0473863 20.7309 -0.0150198 24.662 1.94667 31.6566C4.36993 40.297 8.6892 46.861 13.6103 53.1191C14.6137 54.3955 15.6996 55.4962 16.7264 56.6757C17.7781 57.8837 18.9137 58.893 20.0057 59.991C21.9064 61.9019 25.7613 65.19 28.1452 66.7884C28.5908 67.0873 29.027 67.062 29.4666 66.757C31.4592 65.3727 32.41 64.5143 34.1672 63.116C34.4899 62.8592 34.8356 62.5626 35.0655 62.3461L37.6811 59.9539C37.9259 59.7276 38.3078 59.3068 38.5789 59.1437L38.5784 59.1433Z" fill="#FEFEFE"/>
</svg>
