<svg width="56" height="68" viewBox="0 0 56 68" fill="none" xmlns="http://www.w3.org/2000/svg">
<g clip-path="url(#clip0)">
<path d="M23.1262 61.7104H49.3424C52.0411 61.7104 54.3543 59.3972 54.3543 56.6985V6.9648C54.3543 4.26608 52.0411 1.95288 49.3424 1.95288H6.9338C4.23507 1.95288 1.92188 4.26608 1.92188 6.9648V56.6985C1.92188 59.3972 4.23507 61.7104 6.9338 61.7104H11.9457" stroke="white" stroke-width="2.31319" stroke-miterlimit="22.9256"/>
<path fill-rule="evenodd" clip-rule="evenodd" d="M13.4871 54.7708H21.1977C21.5833 54.7708 21.9688 55.1563 21.9688 55.5418V66.3367C21.9688 66.7223 21.1977 67.1078 20.8122 66.7223L19.6556 65.1801C18.499 63.638 16.5714 63.638 15.4148 65.1801L13.8726 66.7223C13.4871 67.1078 13.1016 66.7223 13.1016 66.3367V55.5418C13.1016 55.1563 13.1016 54.7708 13.4871 54.7708Z" stroke="white" stroke-width="2.31319" stroke-miterlimit="22.9256"/>
<path d="M23.1262 61.7104H49.3424C52.0411 61.7104 54.3543 59.3972 54.3543 56.6985V49.7589H7.31933C4.23507 49.7589 1.92188 52.4576 1.92188 55.5419V55.9274C1.92188 59.0117 4.23507 61.7104 7.31933 61.7104H11.9457" stroke="white" stroke-width="2.31319" stroke-miterlimit="22.9256"/>
<path d="M13.1016 2.33838V50.5299" stroke="white" stroke-width="2.31319" stroke-miterlimit="22.9256"/>
<path d="M46.6435 34.3375H19.6562" stroke="white" stroke-width="2.31319" stroke-miterlimit="22.9256" stroke-linecap="round" stroke-linejoin="bevel"/>
<path d="M43.9453 40.8916H22.3555" stroke="white" stroke-width="2.31319" stroke-miterlimit="22.9256" stroke-linecap="round" stroke-linejoin="bevel"/>
<path fill-rule="evenodd" clip-rule="evenodd" d="M32.7645 11.9767L42.4028 28.169H23.5117L32.7645 11.9767Z" stroke="white" stroke-width="2.31319" stroke-miterlimit="22.9256"/>
<path fill-rule="evenodd" clip-rule="evenodd" d="M32.3789 23.9282V19.6873V17.7596H33.5355V19.6873L33.15 23.9282H32.3789ZM32.3789 25.8558V24.6992H33.5355V25.8558H32.3789Z" fill="white"/>
</g>
<defs>
<clipPath id="clip0">
<rect width="54.7614" height="67.0827" fill="white" transform="translate(0.761719 0.796265)"/>
</clipPath>
</defs>
</svg>
