<svg width="74" height="74" viewBox="0 0 74 74" fill="none" xmlns="http://www.w3.org/2000/svg">
<g clip-path="url(#clip0)">
<path d="M69.2613 37.1217C71.1134 38.5108 72.9235 39.5631 73.597 41.9204C74.06 43.5621 73.6391 44.1935 73.2602 45.2458L53.5182 70.881L42.8685 73.6171L42.7422 62.5885L62.2316 37.2901C63.8733 35.1433 67.1145 35.4379 69.2613 37.1217V37.1217ZM57.3067 47.9819L45.4362 63.4304L45.352 70.3338L52.0028 68.5237L63.9154 53.0753L57.3067 47.9819V47.9819ZM65.515 50.9706L66.9462 49.1184L60.3795 44.0251L58.9483 45.9193L65.515 50.9706ZM61.9791 41.9625L68.5457 47.0138L70.903 43.983C72.25 42.2571 68.5457 39.8999 67.6617 39.1843C66.6515 38.4266 65.0098 38.0478 64.3363 38.8896L61.9791 41.9625V41.9625Z" fill="white"/>
<path d="M60.1272 50.0024C60.3798 49.7078 60.7586 49.7078 61.0533 49.9603C61.3058 50.255 61.3058 50.718 61.0954 51.0127L60.1272 50.0024ZM49.8142 63.3462L60.1272 50.0024L61.0954 51.0127L50.7824 64.3564L49.8142 63.3462ZM50.7824 64.3564C50.5298 64.6511 50.1089 64.6932 49.8563 64.3985C49.6037 64.1039 49.5617 63.6408 49.8142 63.3462L50.7824 64.3564Z" fill="white"/>
<path d="M6.50251 4.33069H12.3536V6.56166H6.50251V4.33069V4.33069ZM2.75616 10.5185H0.609375V10.2238L0.651469 9.88708L0.693563 9.59242L0.735657 9.29776L0.77775 8.96101L0.861938 8.66636L0.98822 8.41379L1.07241 8.11914L1.19869 7.82448L1.32497 7.57192L1.45125 7.31935L1.61963 7.06679L1.788 6.81423L1.95638 6.56166L2.12475 6.35119L2.33522 6.14072L2.54569 5.93026L2.75616 5.71979L2.96663 5.55141L3.21919 5.38304L3.42966 5.21466L3.68223 5.04628L3.93479 4.92L4.22945 4.79372L4.48201 4.70953L4.73457 4.58325L5.02923 4.49906L5.32389 4.45697L5.61854 4.37278L5.9132 4.33069H6.20786H6.50251V6.56166H6.33414L6.12367 6.60376H5.95529L5.74482 6.64585L5.57645 6.68794L5.40807 6.77213L5.1976 6.81423L5.02923 6.89841L4.86085 6.9826L4.73457 7.06679L4.5662 7.15098L4.39782 7.23516L4.27154 7.36145L4.10316 7.48773L3.97688 7.61401L3.8506 7.74029L3.72432 7.86657L3.59804 8.03495L3.51385 8.16123L3.38757 8.32961L3.30338 8.49798L3.21919 8.66636L3.13501 8.83473L3.05082 9.00311L2.96663 9.17148L2.92454 9.33986L2.88244 9.55033L2.84035 9.7187L2.79826 9.92917L2.75616 10.1396V10.308V10.5185V10.5185ZM0.609375 60.8206V10.5185H2.75616V60.8206H0.609375ZM6.50251 64.7775V67.0505H6.20786L5.9132 67.0084L5.61854 66.9664L5.32389 66.9243L5.02923 66.8401L4.73457 66.7559L4.48201 66.6717L4.22945 66.5454L3.93479 66.4191L3.68223 66.2928L3.42966 66.1245L3.21919 65.9982L2.96663 65.7877L2.75616 65.6193L2.54569 65.4089L2.33522 65.2405L2.12475 64.9879L1.95638 64.7775L1.788 64.567L1.61963 64.3144L1.45125 64.0619L1.32497 63.8093L1.19869 63.5147L1.07241 63.2621L0.98822 62.9674L0.861938 62.6728L0.77775 62.3781L0.735657 62.0835L0.693563 61.7888L0.651469 61.4521L0.609375 61.1574V60.8206H2.75616V61.0311V61.2416L2.79826 61.4521L2.84035 61.6204L2.88244 61.8309L2.92454 61.9993L2.96663 62.1677L3.05082 62.3781L3.13501 62.5465L3.21919 62.7149L3.30338 62.8832L3.38757 63.0516L3.51385 63.1779L3.59804 63.3463L3.72432 63.4726L3.8506 63.6409L3.97688 63.7672L4.10316 63.8935L4.27154 63.9777L4.39782 64.104L4.5662 64.2303L4.73457 64.3144L4.86085 64.3986L5.02923 64.4828L5.1976 64.5249L5.40807 64.6091L5.57645 64.6512L5.74482 64.6933L5.95529 64.7354L6.12367 64.7775H6.33414H6.50251V64.7775ZM38.5359 67.0505H6.50251V64.7775H38.5359V67.0505ZM53.1846 10.5185V43.3096H51.0378V10.5185H53.1846V10.5185ZM47.2494 6.56166V4.33069H47.5861H47.8808L48.1754 4.37278L48.4701 4.45697L48.7226 4.49906L49.0173 4.58325L49.312 4.70953L49.5645 4.79372L49.8171 4.92L50.0696 5.04628L50.3222 5.21466L50.5748 5.38304L50.7852 5.55141L51.0378 5.71979L51.2483 5.93026L51.4587 6.14072L51.6271 6.35119L51.8376 6.56166L52.006 6.81423L52.1743 7.06679L52.3006 7.31935L52.469 7.57192L52.5953 7.82448L52.7216 8.11914L52.8057 8.41379L52.8899 8.66636L52.9741 8.96101L53.0583 9.29776L53.1004 9.59242L53.1425 9.88708V10.2238L53.1846 10.5185H51.0378V10.308L50.9957 10.1396V9.92917L50.9536 9.7187L50.9115 9.55033L50.8694 9.33986L50.7852 9.17148L50.7431 9.00311L50.659 8.83473L50.5748 8.66636L50.4906 8.49798L50.3643 8.32961L50.2801 8.16123L50.1538 8.03495L50.0276 7.86657L49.9434 7.74029L49.775 7.61401L49.6487 7.48773L49.5224 7.36145L49.3541 7.23516L49.2278 7.15098L49.0594 7.06679L48.891 6.9826L48.7226 6.89841L48.5543 6.81423L48.3859 6.77213L48.2175 6.68794L48.0071 6.64585L47.8387 6.60376H47.6703L47.4598 6.56166H47.2494V6.56166ZM41.3983 4.33069H47.2494V6.56166H41.3983V4.33069Z" fill="white"/>
<path d="M44.048 18.6425C44.4268 18.6425 44.6794 18.9792 44.6794 19.4001C44.6794 19.8211 44.4268 20.1578 44.048 20.1578V18.6425V18.6425ZM22.0329 18.6425H44.048V20.1578H22.0329V18.6425ZM22.0329 20.1578C21.654 20.1578 21.3594 19.8211 21.3594 19.4001C21.3594 18.9792 21.654 18.6425 22.0329 18.6425V20.1578V20.1578Z" fill="white"/>
<path d="M39.5018 22.3046C39.8807 22.3046 40.1332 22.6413 40.1332 23.0623C40.1332 23.4411 39.8807 23.7778 39.5018 23.7778V22.3046ZM22.0329 22.3046H39.5018V23.7778H22.0329V22.3046ZM22.0329 23.7778C21.654 23.7778 21.3594 23.4411 21.3594 23.0623C21.3594 22.6413 21.654 22.3046 22.0329 22.3046V23.7778Z" fill="white"/>
<path d="M10.2031 22.8939L12.855 25.5458L17.0644 21.3364" stroke="white" stroke-width="1.74867" stroke-miterlimit="22.9256" stroke-linecap="round" stroke-linejoin="round"/>
<path d="M40.3455 7.90858V1.38403H42.4923V7.90858H40.3455ZM38.9564 11.234V9.21349H39.0406H39.0827L39.1669 9.17139H39.209H39.2932L39.3774 9.1293H39.4195L39.5037 9.08721H39.5458L39.5879 9.04511L39.672 9.00302L39.7141 8.96093H39.7562L39.8404 8.91883L39.8825 8.87674L39.9246 8.83464L39.9667 8.79255L40.0088 8.75046L40.0509 8.66627L40.093 8.62417L40.1351 8.58208L40.1772 8.53999V8.4558L40.2193 8.41371L40.2614 8.37161V8.28742L40.3034 8.24533V8.16114V8.11905V8.03486L40.3455 7.99277V7.90858H42.4923V8.07695L42.4502 8.24533V8.41371L42.4081 8.58208L42.366 8.75046L42.324 8.87674L42.2819 9.04511L42.1977 9.21349L42.1556 9.33977L42.0714 9.50815L41.9872 9.63443L41.8609 9.76071L41.7767 9.88699L41.6925 10.0133L41.5663 10.1396L41.44 10.2658L41.3137 10.35L41.1874 10.4763L41.0611 10.5605L40.9349 10.6447L40.7665 10.7289L40.6402 10.8131L40.4718 10.8972L40.3455 10.9814L40.1772 11.0235L40.0088 11.0656L39.8404 11.1077L39.672 11.1498L39.5037 11.1919L39.2932 11.234H39.1248H38.9564V11.234ZM14.8367 9.21349H38.9564V11.234H14.8367V9.21349ZM11.3008 7.90858H13.4476V7.99277V8.03486V8.11905L13.4897 8.16114V8.24533V8.28742L13.5318 8.37161L13.5738 8.41371V8.4558L13.6159 8.53999L13.658 8.58208L13.7001 8.62417L13.7422 8.66627V8.75046L13.8264 8.79255L13.8685 8.83464L13.9106 8.87674L13.9527 8.91883L13.9948 8.96093H14.0369L14.1211 9.00302L14.1632 9.04511L14.2474 9.08721H14.2894L14.3736 9.1293H14.4157L14.4999 9.17139H14.542H14.6262L14.6683 9.21349H14.7525H14.8367V11.234H14.6262H14.4578L14.2894 11.1919L14.1211 11.1498L13.9527 11.1077L13.7843 11.0656L13.6159 11.0235L13.4476 10.9814L13.2792 10.8972L13.1529 10.8131L12.9845 10.7289L12.8583 10.6447L12.6899 10.5605L12.5636 10.4763L12.4373 10.35L12.311 10.2658L12.2268 10.1396L12.1006 10.0133L11.9743 9.88699L11.8901 9.76071L11.8059 9.63443L11.7217 9.50815L11.6375 9.33977L11.5533 9.21349L11.5113 9.04511L11.4271 8.87674L11.385 8.75046L11.3429 8.58208V8.41371L11.3008 8.24533V8.07695V7.90858V7.90858ZM13.4476 1.38403V7.90858H11.3008V1.38403L12.3531 0.373779L13.4476 1.38403ZM11.3008 1.38403V0.373779H12.3531L11.3008 1.38403ZM41.3979 2.39428H12.3531V0.373779H41.3979L42.4923 1.38403L41.3979 2.39428ZM41.3979 0.373779H42.4923V1.38403L41.3979 0.373779Z" fill="white"/>
<path d="M39.5018 25.7142C39.8807 25.7142 40.1332 26.051 40.1332 26.4298C40.1332 26.8508 39.8807 27.1875 39.5018 27.1875V25.7142ZM22.0329 25.7142H39.5018V27.1875H22.0329V25.7142ZM22.0329 27.1875C21.654 27.1875 21.3594 26.8508 21.3594 26.4298C21.3594 26.051 21.654 25.7142 22.0329 25.7142V27.1875Z" fill="white"/>
<path d="M44.048 34.0908C44.4268 34.0908 44.6794 34.4276 44.6794 34.8485C44.6794 35.2694 44.4268 35.6062 44.048 35.6062V34.0908ZM22.0329 34.0908H44.048V35.6062H22.0329V34.0908ZM22.0329 35.6062C21.654 35.6062 21.3594 35.2694 21.3594 34.8485C21.3594 34.4276 21.654 34.0908 22.0329 34.0908V35.6062Z" fill="white"/>
<path d="M39.5018 37.7532C39.8807 37.7532 40.1332 38.0899 40.1332 38.4688C40.1332 38.8897 39.8807 39.2265 39.5018 39.2265V37.7532ZM22.0329 37.7532H39.5018V39.2265H22.0329V37.7532ZM22.0329 39.2265C21.654 39.2265 21.3594 38.8897 21.3594 38.4688C21.3594 38.0899 21.654 37.7532 22.0329 37.7532V39.2265Z" fill="white"/>
<path d="M10.2031 38.3003L12.855 40.9943L17.0644 36.7428" stroke="white" stroke-width="1.74867" stroke-miterlimit="22.9256" stroke-linecap="round" stroke-linejoin="round"/>
<path d="M39.5018 41.1627C39.8807 41.1627 40.1332 41.4574 40.1332 41.8783C40.1332 42.2993 39.8807 42.636 39.5018 42.636V41.1627ZM22.0329 41.1627H39.5018V42.636H22.0329V41.1627ZM22.0329 42.636C21.654 42.636 21.3594 42.2993 21.3594 41.8783C21.3594 41.4574 21.654 41.1627 22.0329 41.1627V42.636Z" fill="white"/>
<path d="M44.048 49.0763C44.4268 49.0763 44.6794 49.413 44.6794 49.834C44.6794 50.2549 44.4268 50.5917 44.048 50.5917V49.0763ZM22.0329 49.0763H44.048V50.5917H22.0329V49.0763ZM22.0329 50.5917C21.654 50.5917 21.3594 50.2549 21.3594 49.834C21.3594 49.413 21.654 49.0763 22.0329 49.0763V50.5917Z" fill="white"/>
<path d="M39.5018 52.7385C39.8807 52.7385 40.1332 53.0753 40.1332 53.4962C40.1332 53.8751 39.8807 54.2118 39.5018 54.2118V52.7385ZM22.0329 52.7385H39.5018V54.2118H22.0329V52.7385ZM22.0329 54.2118C21.654 54.2118 21.3594 53.8751 21.3594 53.4962C21.3594 53.0753 21.654 52.7385 22.0329 52.7385V54.2118Z" fill="white"/>
<path d="M39.5018 56.1481C39.8807 56.1481 40.1332 56.4848 40.1332 56.8637C40.1332 57.2846 39.8807 57.6214 39.5018 57.6214V56.1481ZM22.0329 56.1481H39.5018V57.6214H22.0329V56.1481ZM22.0329 57.6214C21.654 57.6214 21.3594 57.2846 21.3594 56.8637C21.3594 56.4848 21.654 56.1481 22.0329 56.1481V57.6214Z" fill="white"/>
<path d="M10.707 50.5496L16.5581 56.4006" stroke="white" stroke-width="1.74867" stroke-miterlimit="22.9256" stroke-linecap="round" stroke-linejoin="round"/>
<path d="M16.5581 50.5496L10.707 56.4006" stroke="white" stroke-width="1.74867" stroke-miterlimit="22.9256" stroke-linecap="round" stroke-linejoin="round"/>
</g>
<defs>
<clipPath id="clip0">
<rect width="73.2433" height="73.2433" fill="white" transform="translate(0.585938 0.373657)"/>
</clipPath>
</defs>
</svg>
