<svg width="42" height="69" viewBox="0 0 42 69" fill="none" xmlns="http://www.w3.org/2000/svg">
<path d="M5.99976 30.9093L9.61087 34.6184L16.8331 27.2002" stroke="white" stroke-width="2" stroke-linecap="round" stroke-linejoin="round"/>
<path d="M5.99976 41.6241L9.61087 45.3332L16.8331 37.915" stroke="white" stroke-width="2" stroke-linecap="round" stroke-linejoin="round"/>
<path d="M5.99976 53.9879L9.61087 57.697L16.8331 50.2788" stroke="white" stroke-width="2" stroke-linecap="round" stroke-linejoin="round"/>
<path d="M6 15.6606H3C1.89543 15.6606 1 16.5561 1 17.6606V66.0001C1 67.1046 1.89543 68.0001 3 68.0001H39C40.1046 68.0001 41 67.1046 41 66.0001V17.6606C41 16.5561 40.1046 15.6606 39 15.6606H36.4167" stroke="white" stroke-width="2" stroke-linecap="round"/>
<rect x="9.5" y="10.8906" width="23" height="7.89091" rx="1" stroke="white" stroke-width="2"/>
<path d="M25.8334 5.7697C25.8334 8.39362 23.6798 10.5394 21.0001 10.5394C18.3203 10.5394 16.1667 8.39362 16.1667 5.7697C16.1667 3.14578 18.3203 1 21.0001 1C23.6798 1 25.8334 3.14578 25.8334 5.7697Z" stroke="white" stroke-width="2"/>
<path d="M35.5833 31.3208H23.5" stroke="white" stroke-width="2" stroke-linecap="round"/>
<path d="M35.5833 42.0366H23.5" stroke="white" stroke-width="2" stroke-linecap="round"/>
<path d="M35.5833 54.3999H23.5" stroke="white" stroke-width="2" stroke-linecap="round"/>
</svg>
