<svg width="67" height="74" viewBox="0 0 67 74" fill="none" xmlns="http://www.w3.org/2000/svg">
<g clip-path="url(#clip0)">
<path d="M6.48345 65.2476H23.1103V67.527H6.48345V65.2476ZM0.0859375 62.4318H2.61828V62.5324V62.6329L2.6516 62.767L2.68493 62.8676L2.71825 63.0017L2.75157 63.1022L2.81821 63.2363L2.88485 63.3704L2.95149 63.471L3.01813 63.605L3.11809 63.7056L3.21805 63.8397L3.31801 63.9403L3.41797 64.0743L3.55125 64.1749L3.68454 64.2755L3.81782 64.376L3.9511 64.4766L4.1177 64.5772L4.25098 64.6777L4.41758 64.7448L4.58419 64.8453L4.75079 64.9124L4.95071 64.9794L5.11731 65.0464L5.31723 65.08L5.48384 65.147L5.68376 65.1805L5.88368 65.214H6.0836L6.28352 65.2476H6.48345V67.527H6.18356H5.85036L5.55048 67.4935L5.21727 67.4264L4.91739 67.3594L4.61751 67.2924L4.31762 67.2253L4.01774 67.1247L3.75118 67.0242L3.48461 66.8901L3.21805 66.7895L2.95149 66.6555L2.71825 66.4879L2.485 66.3538L2.25176 66.1862L2.01852 66.0186L1.8186 65.851L1.61867 65.6498L1.41875 65.4487L1.21883 65.2476L1.05223 65.0464L0.918946 64.8453L0.752345 64.6107L0.619063 64.4095L0.519102 64.1749L0.385821 63.9403L0.31918 63.7056L0.219219 63.4374L0.152578 63.2028L0.119258 62.9346L0.0859375 62.6665V62.4318H0.0859375ZM2.61828 10.7425V62.4318H0.0859375V10.7425H2.61828ZM6.48345 5.11096V7.42391H6.28352L6.0836 7.45743H5.88368L5.68376 7.49095L5.51716 7.52447L5.31723 7.59151L5.11731 7.62503L4.95071 7.69208L4.78411 7.75912L4.61751 7.82616L4.4509 7.92672L4.2843 7.99377L4.15102 8.09433L3.98442 8.19489L3.85114 8.29545L3.71786 8.39602L3.58457 8.5301L3.45129 8.66418L3.35133 8.76475L3.25137 8.89883L3.15141 9.03291L3.05145 9.167L2.98481 9.3346L2.88485 9.46869L2.81821 9.60277L2.78489 9.77038L2.71825 9.93798L2.68493 10.0721L2.6516 10.2397L2.61828 10.4073V10.5749V10.7425H0.0859375V10.4408L0.119258 10.1726L0.152578 9.87094L0.219219 9.60277L0.28586 9.3346L0.385821 9.06644L0.485782 8.79827L0.585743 8.5301L0.719024 8.29545L0.885626 8.02729L1.01891 7.79264L1.18551 7.59151L1.38543 7.35687L1.55203 7.15574L1.75196 6.95462L1.9852 6.75349L2.21844 6.55236L2.45168 6.38476L2.68493 6.21715L2.91817 6.04955L3.18473 5.91547L3.45129 5.78138L3.75118 5.68082L4.01774 5.54673L4.31762 5.44617L4.61751 5.37913L4.91739 5.31209L5.21727 5.24505L5.51716 5.178L5.85036 5.14448H6.18356L6.48345 5.11096V5.11096ZM12.1479 7.42391H6.48345V5.11096H12.1479V7.42391ZM47.734 7.42391H41.5031V5.11096H47.734V7.42391ZM53.5651 10.7425H51.0661V10.5749L51.0328 10.4073L50.9994 10.2397L50.9661 10.0721L50.9328 9.90446L50.8995 9.77038L50.8328 9.60277L50.7662 9.43517L50.6996 9.30108L50.5996 9.167L50.533 8.99939L50.433 8.86531L50.333 8.73123L50.1998 8.63066L50.0998 8.49658L49.9665 8.3625L49.8666 8.26193L49.7333 8.16137L49.6 8.06081L49.4667 7.96024L49.3334 7.8932L49.1668 7.79264L49.0335 7.7256L48.9003 7.65856L48.7337 7.62503L48.6004 7.55799L48.4671 7.52447L48.3005 7.49095L48.1672 7.45743L48.0006 7.42391H47.8673H47.734V5.11096L48.0339 5.14448H48.3005L48.6004 5.178L48.8669 5.24505L49.1335 5.31209L49.4001 5.37913L49.6666 5.47969L49.9332 5.58026L50.1998 5.68082L50.433 5.8149L50.6996 5.94899L50.9328 6.08307L51.1327 6.25067L51.366 6.41828L51.5659 6.58588L51.7991 6.78701L51.9991 6.95462L52.1657 7.15574L52.3323 7.39039L52.5322 7.59151L52.6655 7.82616L52.8321 8.06081L52.9653 8.29545L53.0653 8.56362L53.1986 8.79827L53.2985 9.06644L53.3652 9.3346L53.4318 9.60277L53.4985 9.87094L53.5318 10.1726L53.5651 10.4408V10.7425V10.7425ZM51.0661 24.5531V10.7425H53.5651V24.5531H51.0661Z" fill="white"/>
<path d="M40.406 8.42947V1.79232H42.6052V8.42947H40.406ZM39.0399 11.7816V9.73679H39.1065H39.1732L39.2398 9.70327H39.3064H39.3731L39.4397 9.66975H39.5064L39.573 9.63623L39.6396 9.60271L39.673 9.56919L39.7396 9.53567L39.8062 9.50214L39.8729 9.46862L39.9062 9.4351L39.9729 9.40158L40.0062 9.33454L40.0728 9.30102L40.1061 9.2675L40.1395 9.20046L40.1728 9.13341L40.2061 9.09989L40.2394 9.03285L40.2727 8.99933L40.3061 8.93229L40.3394 8.86525L40.3727 8.79821V8.73116L40.406 8.69764V8.6306V8.56356V8.49652V8.42947H42.6052V8.59708L42.5718 8.76468V8.93229L42.5385 9.09989L42.5052 9.2675L42.4386 9.4351L42.3719 9.56919L42.3053 9.73679L42.2386 9.87088L42.172 10.0385L42.072 10.1726L42.0054 10.3066L41.9054 10.4407L41.7721 10.5748L41.6722 10.6754L41.5389 10.8095L41.4389 10.91L41.3057 11.0106L41.1724 11.1112L41.0391 11.2117L40.8725 11.3123L40.7392 11.3793L40.5726 11.4464L40.406 11.5134L40.2727 11.5804L40.1061 11.6475L39.9062 11.681L39.7396 11.7145L39.573 11.748L39.4064 11.7816H39.2065H39.0399V11.7816ZM14.6494 9.73679H39.0399V11.7816H14.6494V9.73679ZM11.0508 8.42947H13.2499V8.49652V8.56356V8.6306L13.2832 8.69764V8.73116L13.3166 8.79821V8.86525L13.3499 8.93229L13.3832 8.99933L13.4165 9.03285L13.4498 9.09989L13.4832 9.13341L13.5165 9.20046L13.5498 9.2675L13.6164 9.30102L13.6498 9.33454L13.7164 9.40158L13.7497 9.4351L13.8164 9.46862L13.8497 9.50214L13.9163 9.53567L13.983 9.56919L14.0496 9.60271L14.0829 9.63623L14.1496 9.66975H14.2162L14.2829 9.70327H14.3495H14.4161L14.4828 9.73679H14.5494H14.6494V11.7816H14.4495H14.2829L14.0829 11.748L13.9163 11.7145L13.7497 11.681L13.5831 11.6475L13.4165 11.5804L13.2499 11.5134L13.0833 11.4464L12.9167 11.3793L12.7834 11.3123L12.6502 11.2117L12.4836 11.1112L12.3503 11.0106L12.217 10.91L12.117 10.8095L11.9838 10.6754L11.8838 10.5748L11.7838 10.4407L11.6839 10.3066L11.5839 10.1726L11.4839 10.0385L11.4173 9.87088L11.3507 9.73679L11.284 9.56919L11.2174 9.4351L11.1841 9.2675L11.1174 9.09989V8.93229L11.0841 8.76468L11.0508 8.59708V8.42947V8.42947ZM13.2499 1.79232V8.42947H11.0508V1.79232L12.1504 0.753174L13.2499 1.79232ZM11.0508 1.79232V0.753174H12.1504L11.0508 1.79232ZM41.5056 2.83147H12.1504V0.753174H41.5056L42.6052 1.79232L41.5056 2.83147ZM41.5056 0.753174H42.6052V1.79232L41.5056 0.753174Z" fill="white"/>
<path d="M43.5339 17.5471C43.9004 17.5471 44.167 17.8823 44.167 18.3181C44.167 18.7204 43.9004 19.0891 43.5339 19.0891V17.5471V17.5471ZM9.54715 17.5471H43.5339V19.0891H9.54715V17.5471ZM9.54715 19.0891C9.21395 19.0891 8.91406 18.7204 8.91406 18.3181C8.91406 17.8823 9.21395 17.5471 9.54715 17.5471V19.0891V19.0891Z" fill="white"/>
<path d="M43.5339 22.4749C43.9004 22.4749 44.167 22.8101 44.167 23.2123C44.167 23.6481 43.9004 23.9833 43.5339 23.9833V22.4749ZM9.54715 22.4749H43.5339V23.9833H9.54715V22.4749ZM9.54715 23.9833C9.21395 23.9833 8.91406 23.6481 8.91406 23.2123C8.91406 22.8101 9.21395 22.4749 9.54715 22.4749V23.9833Z" fill="white"/>
<path d="M22.0423 27.6705C22.3755 27.6705 22.6754 28.0057 22.6754 28.408C22.6754 28.8438 22.3755 29.179 22.0423 29.179V27.6705V27.6705ZM9.54715 27.6705H22.0423V29.179H9.54715V27.6705ZM9.54715 29.179C9.21395 29.179 8.91406 28.8438 8.91406 28.408C8.91406 28.0057 9.21395 27.6705 9.54715 27.6705V29.179V29.179Z" fill="white"/>
<path d="M22.0423 32.5646C22.3755 32.5646 22.6754 32.8998 22.6754 33.3356C22.6754 33.7378 22.3755 34.073 22.0423 34.073V32.5646V32.5646ZM9.54715 32.5646H22.0423V34.073H9.54715V32.5646ZM9.54715 34.073C9.21395 34.073 8.91406 33.7378 8.91406 33.3356C8.91406 32.8998 9.21395 32.5646 9.54715 32.5646V34.073V34.073Z" fill="white"/>
<path d="M23.9102 50.5317H26.4425L26.4758 51.5038L26.5425 52.4759L26.6757 53.448L26.8423 54.3866L27.0423 55.2917L27.3088 56.1968L27.5754 57.0683L27.9419 57.9398L28.3084 58.7779L28.7083 59.6159L29.1748 60.3869L29.6746 61.1579L30.2077 61.8953L30.7408 62.6328L31.3406 63.3032L31.9737 63.9736L32.6068 64.577L33.3065 65.1804L34.0062 65.7502L34.7393 66.253L35.5056 66.7559L36.272 67.2251L37.0717 67.6274L37.9047 67.9961L38.771 68.3313L39.6374 68.633L40.5037 68.8677L41.4033 69.1023L42.3363 69.2699L43.236 69.3705L44.2023 69.4375L45.1685 69.471V71.784L44.069 71.7505L42.9694 71.6499L41.9031 71.5158L40.8702 71.3482L39.8373 71.1136L38.8044 70.8119L37.8047 70.4767L36.8385 70.1079L35.9055 69.6722L35.0058 69.2029L34.1062 68.6665L33.2399 68.1302L32.4068 67.5268L31.6072 66.8899L30.8408 66.2195L30.1077 65.5156L29.408 64.7781L28.7416 64.0071L28.1085 63.2026L27.5088 62.3646L26.9756 61.4931L26.4758 60.6215L26.0093 59.7164L25.5762 58.7779L25.2096 57.8058L24.8764 56.8336L24.5766 55.828L24.3433 54.7889L24.1767 53.7497L24.0434 52.7106L23.9435 51.6044L23.9102 50.5317V50.5317ZM45.1685 29.2794V31.5924L44.2023 31.6259L43.236 31.6929L42.3363 31.827L41.4033 31.9611L40.5037 32.1957L39.6374 32.4304L38.771 32.7321L37.9047 33.0673L37.0717 33.436L36.272 33.8718L35.5056 34.3076L34.7393 34.8104L34.0062 35.3132L33.3065 35.883L32.6068 36.4864L31.9737 37.0898L31.3406 37.7602L30.7408 38.4306L30.2077 39.1681L29.6746 39.9056L29.1748 40.6765L28.7083 41.481L28.3084 42.2856L27.9419 43.1236L27.5754 43.9951L27.3088 44.8667L27.0423 45.7717L26.8423 46.7103L26.6757 47.6489L26.5425 48.5875L26.4758 49.5596L26.4425 50.5317H23.9102L23.9435 49.459L24.0434 48.3864L24.1767 47.3137L24.3433 46.2745L24.5766 45.2354L24.8764 44.2298L25.2096 43.2577L25.5762 42.2856L26.0093 41.347L26.4758 40.4419L26.9756 39.5704L27.5088 38.6988L28.1085 37.8608L28.7416 37.0563L29.408 36.2853L30.1077 35.5478L30.8408 34.8439L31.6072 34.1735L32.4068 33.5366L33.2399 32.9332L34.1062 32.3969L35.0058 31.8941L35.9055 31.3912L36.8385 30.989L37.8047 30.5867L38.8044 30.2515L39.8373 29.9834L40.8702 29.7152L41.9031 29.5476L42.9694 29.4135L44.069 29.3129L45.1685 29.2794V29.2794ZM66.3936 50.5317H63.8613L63.8279 49.5596L63.7613 48.5875L63.6613 47.6489L63.4947 46.7103L63.2615 45.7717L63.0283 44.8667L62.7284 43.9951L62.3952 43.1236L61.9953 42.2856L61.5955 41.481L61.129 40.6765L60.6292 39.9056L60.1294 39.1681L59.5629 38.4306L58.9632 37.7602L58.3301 37.0898L57.697 36.4864L56.9973 35.883L56.2975 35.3132L55.5645 34.8104L54.7981 34.3076L54.0318 33.8718L53.2321 33.436L52.3991 33.0673L51.566 32.7321L50.6997 32.4304L49.8001 32.1957L48.9004 31.9611L48.0008 31.827L47.0678 31.6929L46.1015 31.6259L45.1685 31.5924V29.2794L46.2348 29.3129L47.3344 29.4135L48.4006 29.5476L49.4669 29.7152L50.4998 29.9834L51.4994 30.2515L52.499 30.5867L53.4653 30.989L54.3983 31.3912L55.3313 31.8941L56.1976 32.3969L57.0639 32.9332L57.8969 33.5366L58.6966 34.1735L59.463 34.8439L60.196 35.5478L60.8958 36.2853L61.5622 37.0563L62.1952 37.8608L62.795 38.6988L63.3281 39.5704L63.8279 40.4419L64.2944 41.347L64.7276 42.2856L65.0941 43.2577L65.4273 44.2298L65.7272 45.2354L65.9604 46.2745L66.127 47.3137L66.2603 48.3864L66.3603 49.459L66.3936 50.5317V50.5317ZM56.764 68.3313L55.2979 66.4542L55.7977 66.119L56.2642 65.7502L56.7307 65.415L57.1972 65.0463L57.6304 64.644L58.0635 64.2418L58.4634 63.8395L58.8965 63.4038L59.2631 62.968L59.6296 62.5322L59.9961 62.0629L60.3293 61.5936L60.6625 61.1243L60.9957 60.6215L61.2956 60.1187L61.5622 59.6159L61.862 59.0795L62.0953 58.5767L62.3285 58.0404L62.5618 57.5041L62.7617 56.9342L62.9616 56.3979L63.1282 55.828L63.2615 55.2582L63.4281 54.6883L63.5281 54.0849L63.628 53.5151L63.728 52.9117L63.7946 52.3418L63.8279 51.7385L63.8613 51.1351V50.5317H66.3936L66.3603 51.2021L66.327 51.8725L66.2937 52.543L66.227 53.1799L66.127 53.8503L66.0271 54.4872L65.8938 55.1241L65.7272 55.761L65.5606 56.3979L65.3607 57.0348L65.1608 57.6381L64.9275 58.275L64.6943 58.8784L64.4277 59.4818L64.1278 60.0517L63.8279 60.6215L63.5281 61.1914L63.1949 61.7612L62.8283 62.2976L62.4618 62.8339L62.062 63.3702L61.6621 63.873L61.2623 64.4094L60.7958 64.8787L60.3626 65.348L59.8961 65.8173L59.3963 66.2866L58.8965 66.7223L58.3967 67.1581L57.8636 67.5604L57.3305 67.9291L56.764 68.3313V68.3313Z" fill="white"/>
<path d="M60.6619 50.5318H59.3624V49.7943L59.2957 49.0904L59.1958 48.3864L59.0958 47.6825L58.9292 47.0121L58.7293 46.3416L58.5294 45.7047L58.2628 45.0343L57.9962 44.4309L57.663 43.794L57.3298 43.2242L56.9633 42.6543L56.5635 42.0845L56.1636 41.5481L55.6971 41.0453L55.2307 40.5425L54.7642 40.0732L54.231 39.6039L53.6979 39.2017L53.1315 38.7994L52.565 38.4307L51.9653 38.062L51.3655 37.7603L50.7324 37.4586L50.066 37.2239L49.3996 36.9893L48.7332 36.7882L48.0335 36.6206L47.3337 36.52L46.6007 36.4194L45.901 36.3524H45.1679V34.8104L45.9343 34.8439L46.734 34.911L47.5003 35.0116L48.2667 35.1456L48.9998 35.3132L49.7328 35.5144L50.4658 35.749L51.1656 36.0507L51.832 36.3524L52.4984 36.6876L53.1648 37.0563L53.7979 37.4921L54.3976 37.9279L54.9974 38.3636L55.5305 38.8665L56.097 39.3693L56.5968 39.9391L57.0966 40.509L57.5631 41.0788L57.9962 41.7157L58.3961 42.3526L58.7626 42.9895L59.1291 43.6935L59.429 44.3639L59.7289 45.1014L59.9621 45.8388L60.1621 46.5763L60.362 47.3473L60.4953 48.1182L60.5952 48.9228L60.6619 49.7273V50.5318V50.5318ZM45.1679 66.2531V64.7446L45.901 64.7111L46.6007 64.6441L47.3337 64.577L48.0335 64.443L48.7332 64.2754L49.3996 64.0742L50.066 63.8731L50.7324 63.6049L51.3655 63.3032L51.9653 63.0016L52.565 62.6663L53.1315 62.2641L53.6979 61.8954L54.231 61.4596L54.7642 60.9903L55.2307 60.521L55.6971 60.0517L56.1636 59.5154L56.5635 58.979L56.9633 58.4427L57.3298 57.8393L57.663 57.2695L57.9962 56.6326L58.2628 56.0292L58.5294 55.3923L58.7293 54.7219L58.9292 54.0515L59.0958 53.381L59.1958 52.6771L59.2957 51.9732L59.3624 51.2692V50.5318H60.6619V51.3363L60.5952 52.1408L60.4953 52.9453L60.362 53.7163L60.1621 54.4872L59.9621 55.2247L59.7289 55.9622L59.429 56.6996L59.1291 57.4036L58.7626 58.074L58.3961 58.7109L57.9962 59.3478L57.5631 59.9847L57.0966 60.5545L56.5968 61.1244L56.097 61.6942L55.5305 62.1971L54.9974 62.6999L54.3976 63.1692L53.7979 63.6049L53.1648 64.0072L52.4984 64.3759L51.832 64.7111L51.1656 65.0128L50.4658 65.3145L49.7328 65.5492L48.9998 65.7503L48.2667 65.9179L47.5003 66.052L46.734 66.1525L45.9343 66.2196L45.1679 66.2531V66.2531ZM29.6406 50.5318H30.9401V51.2692L31.0068 51.9732L31.1067 52.6771L31.2067 53.381L31.3733 54.0515L31.5732 54.7219L31.7731 55.3923L32.0397 56.0292L32.3063 56.6326L32.6395 57.2695L32.9727 57.8393L33.3392 58.4427L33.739 58.979L34.1389 59.5154L34.6054 60.0517L35.0718 60.521L35.5716 60.9903L36.0715 61.4596L36.6046 61.8954L37.171 62.2641L37.7375 62.6663L38.3372 63.0016L38.9703 63.3032L39.6034 63.6049L40.2365 63.8731L40.9029 64.0742L41.5693 64.2754L42.269 64.443L42.9688 64.577L43.7018 64.6441L44.4015 64.7111L45.1679 64.7446V66.2531L44.3682 66.2196L43.5685 66.1525L42.8022 66.052L42.0358 65.9179L41.3028 65.7503L40.5697 65.5492L39.8367 65.3145L39.1369 65.0128L38.4705 64.7111L37.8041 64.3759L37.1377 64.0072L36.5046 63.6049L35.9049 63.1692L35.3384 62.6999L34.772 62.1971L34.2055 61.6942L33.7057 61.1244L33.2059 60.5545L32.7394 59.9847L32.3063 59.3478L31.9064 58.7109L31.5399 58.074L31.1734 57.4036L30.8735 56.6996L30.6069 55.9622L30.3404 55.2247L30.1404 54.4872L29.9738 53.7163L29.8072 52.9453L29.7073 52.1408L29.6739 51.3363L29.6406 50.5318V50.5318ZM45.1679 34.8104V36.3524H44.4015L43.7018 36.4194L42.9688 36.52L42.269 36.6206L41.5693 36.7882L40.9029 36.9893L40.2365 37.2239L39.6034 37.4586L38.9703 37.7603L38.3372 38.062L37.7375 38.4307L37.171 38.7994L36.6046 39.2017L36.0715 39.6039L35.5716 40.0732L35.0718 40.5425L34.6054 41.0453L34.1389 41.5481L33.739 42.0845L33.3392 42.6543L32.9727 43.2242L32.6395 43.794L32.3063 44.4309L32.0397 45.0343L31.7731 45.7047L31.5732 46.3416L31.3733 47.0121L31.2067 47.6825L31.1067 48.3864L31.0068 49.0904L30.9401 49.7943V50.5318H29.6406L29.6739 49.7273L29.7073 48.9228L29.8072 48.1182L29.9738 47.3473L30.1404 46.5763L30.3404 45.8388L30.6069 45.1014L30.8735 44.3639L31.1734 43.6935L31.5399 42.9895L31.9064 42.3526L32.3063 41.7157L32.7394 41.0788L33.2059 40.509L33.7057 39.9391L34.2055 39.3693L34.772 38.8665L35.3384 38.3636L35.9049 37.9279L36.5046 37.4921L37.1377 37.0563L37.8041 36.6876L38.4705 36.3524L39.1369 36.0507L39.8367 35.749L40.5697 35.5144L41.3028 35.3132L42.0358 35.1456L42.8022 35.0116L43.5685 34.911L44.3682 34.8439L45.1679 34.8104V34.8104Z" fill="white"/>
<path d="M35.8425 50.5317C35.8425 50.9675 35.5759 51.3027 35.2094 51.3027C34.8429 51.3027 34.543 50.9675 34.543 50.5317H35.8425V50.5317ZM45.1722 39.7715V41.2799H44.6724L44.2059 41.3134L43.7394 41.3805L43.2729 41.4811L42.8064 41.5816L42.3733 41.7157L41.9401 41.8498L41.5069 42.0174L41.1071 42.2185L40.6739 42.4196L40.3074 42.6543L39.9075 42.8889L39.541 43.1571L39.2078 43.4253L38.8746 43.727L38.5414 44.0286L38.2415 44.3639L37.9416 44.6991L37.6751 45.0343L37.4085 45.403L37.1753 45.7717L36.942 46.174L36.7421 46.5762L36.5755 46.9785L36.4089 47.3807L36.2756 47.8165L36.1423 48.2523L36.0424 48.6881L35.9757 49.1574L35.9091 49.5931L35.8758 50.0624L35.8425 50.5317H34.543L34.5763 49.9619L34.6096 49.4255L34.6763 48.8892L34.7762 48.3529L34.9095 47.8165L35.0428 47.3137L35.2094 46.8109L35.4093 46.3081L35.6092 45.8388L35.8758 45.3695L36.109 44.9002L36.4089 44.4644L36.7088 44.0622L37.0087 43.6264L37.3419 43.2577L37.7084 42.8889L38.0749 42.5202L38.4415 42.185L38.8413 41.8833L39.2745 41.5816L39.7076 41.3134L40.1408 41.0453L40.6073 40.8106L41.0738 40.6095L41.5402 40.4084L42.0401 40.2408L42.5399 40.1067L43.0397 39.9726L43.5728 39.872L44.0726 39.805L44.6057 39.7715H45.1722V39.7715ZM45.1722 39.7715C45.5054 39.7715 45.8053 40.1067 45.8053 40.5089C45.8053 40.9447 45.5054 41.2799 45.1722 41.2799V39.7715V39.7715Z" fill="white"/>
<path d="M29.6406 72.8904L33.1059 66.8231L35.3384 67.8958L31.8731 73.9631L29.6406 72.8904Z" fill="white"/>
<path d="M60.6631 72.8567L58.464 73.9964L54.2656 66.957L56.4648 65.8508L60.6631 72.8567Z" fill="white"/>
<path d="M40.4018 31.4249C40.3018 31.8272 39.902 32.0283 39.5688 31.8942C39.2356 31.7601 39.069 31.3244 39.2023 30.9221L40.4018 31.4249V31.4249ZM45.1666 26.4303V27.9723H44.9334H44.7334L44.5335 28.0058L44.3336 28.0393L44.1337 28.0728L43.9338 28.1063L43.7338 28.1734L43.5672 28.2069L43.3673 28.274L43.2007 28.3745L43.0008 28.4416L42.8342 28.5421L42.6676 28.6092L42.501 28.7097L42.3344 28.8438L42.1678 28.9444L42.0345 29.0785L41.8679 29.179L41.7346 29.3131L41.6013 29.4472L41.468 29.5813L41.3348 29.7489L41.2015 29.883L41.1015 30.0506L41.0016 30.2182L40.8683 30.3523L40.8016 30.5199L40.7017 30.721L40.6017 30.8886L40.5351 31.0562L40.4684 31.2573L40.4018 31.4249L39.2023 30.9221L39.2689 30.6539L39.3689 30.4193L39.4688 30.1846L39.5688 29.95L39.7021 29.7154L39.8353 29.4807L39.9686 29.2796L40.1019 29.0785L40.2352 28.8773L40.4018 28.6762L40.5684 28.4751L40.735 28.3075L40.9016 28.1399L41.1015 27.9723L41.3014 27.8047L41.468 27.6706L41.668 27.5365L41.9012 27.4024L42.1011 27.2683L42.3011 27.1342L42.5343 27.0337L42.7342 26.9331L42.9675 26.8326L43.2007 26.7655L43.4339 26.6985L43.6672 26.6314L43.9004 26.5644L44.167 26.5309L44.4002 26.4973L44.6668 26.4638H44.9L45.1666 26.4303V26.4303ZM51.0976 30.9221L49.8981 31.4249L49.8315 31.2573L49.7648 31.0562L49.6982 30.8886L49.5982 30.721L49.5316 30.5199L49.4316 30.3523L49.3316 30.2182L49.1984 30.0506L49.0984 29.883L48.9651 29.7489L48.8318 29.5813L48.6986 29.4472L48.5653 29.3131L48.432 29.179L48.2987 29.0785L48.1321 28.9444L47.9655 28.8438L47.7989 28.7097L47.6323 28.6092L47.4657 28.5421L47.2991 28.4416L47.0992 28.3745L46.9326 28.274L46.7327 28.2069L46.5661 28.1734L46.3661 28.1063L46.1662 28.0728L45.9663 28.0393L45.7664 28.0058L45.5664 27.9723H45.3665H45.1666V26.4303L45.3998 26.4638H45.6664L45.8997 26.4973L46.1329 26.5309L46.3995 26.5644L46.6327 26.6314L46.8659 26.6985L47.0992 26.7655L47.3324 26.8326L47.5657 26.9331L47.7656 27.0337L47.9988 27.1342L48.1988 27.2683L48.432 27.4024L48.6319 27.5365L48.8318 27.6706L49.0318 27.8047L49.1984 27.9723L49.3983 28.1399L49.5649 28.3075L49.7315 28.4751L49.8981 28.6762L50.0647 28.8773L50.198 29.0785L50.3313 29.2796L50.4645 29.4807L50.5978 29.7154L50.7311 29.95L50.8311 30.1846L50.931 30.4193L51.031 30.6539L51.0976 30.9221V30.9221ZM51.0976 30.9221C51.2309 31.3244 51.0643 31.7601 50.7311 31.8942C50.3979 32.0283 49.9981 31.8272 49.8981 31.4249L51.0976 30.9221V30.9221Z" fill="white"/>
<path fill-rule="evenodd" clip-rule="evenodd" d="M45.1346 47.4479C46.0009 47.4479 45.701 47.5149 46.3674 46.7439L48.4 44.6656L47.2338 47.3138L46.8006 48.2189C47.1338 48.6211 47.3004 49.0904 47.3004 49.6267C47.3004 50.8335 46.3341 51.8056 45.1346 51.8056C43.935 51.8056 42.9688 50.8335 42.9688 49.6267C42.9688 48.42 43.935 47.4479 45.1346 47.4479V47.4479Z" fill="white" stroke="white" stroke-width="1.60556" stroke-miterlimit="22.9256"/>
</g>
<defs>
<clipPath id="clip0">
<rect width="66.3981" height="73.2433" fill="white" transform="translate(0.0390625 0.753174)"/>
</clipPath>
</defs>
</svg>
