<svg width="77" height="66" viewBox="0 0 77 66" fill="none" xmlns="http://www.w3.org/2000/svg">
<circle cx="38.6679" cy="8.8914" r="7.05908" stroke="white" stroke-width="2.05355"/>
<circle cx="38.6679" cy="57.4065" r="7.05908" stroke="white" stroke-width="2.05355"/>
<circle cx="38.6679" cy="33.1491" r="9.75436" stroke="white" stroke-width="2.05355"/>
<path d="M39.8229 10.502H38.8836V6.96239C38.5405 7.28325 38.1361 7.52056 37.6704 7.67431V6.82201C37.9155 6.74179 38.1818 6.59027 38.4692 6.36744C38.7566 6.14239 38.9538 5.88057 39.0608 5.58199H39.8229V10.502Z" fill="white"/>
<path d="M41.513 36.2845V37.6803H36.2454C36.3024 37.1526 36.4736 36.6535 36.7588 36.1829C37.044 35.7087 37.6073 35.0813 38.4487 34.3005C39.1261 33.6695 39.5414 33.2416 39.6947 33.017C39.9015 32.7069 40.0049 32.4002 40.0049 32.0972C40.0049 31.7621 39.914 31.5054 39.7322 31.3271C39.5539 31.1453 39.3061 31.0544 38.9888 31.0544C38.6751 31.0544 38.4255 31.1489 38.2401 31.3378C38.0547 31.5268 37.9478 31.8405 37.9193 32.279L36.4219 32.1293C36.511 31.3022 36.7909 30.7086 37.2615 30.3485C37.7321 29.9884 38.3203 29.8084 39.0262 29.8084C39.7999 29.8084 40.4078 30.0169 40.8498 30.434C41.2919 30.8512 41.513 31.3699 41.513 31.9903C41.513 32.3432 41.4488 32.6801 41.3204 33.001C41.1957 33.3183 40.996 33.6516 40.7215 34.001C40.5397 34.2328 40.2117 34.5661 39.7375 35.0011C39.2633 35.436 38.9621 35.7248 38.8337 35.8674C38.7089 36.01 38.6073 36.149 38.5289 36.2845H41.513Z" fill="white"/>
<path d="M37.3863 57.871L38.2954 57.7607C38.3244 57.9924 38.4023 58.1695 38.5294 58.2921C38.6564 58.4147 38.8101 58.4759 38.9906 58.4759C39.1845 58.4759 39.3471 58.4024 39.4786 58.2553C39.6123 58.1083 39.6791 57.91 39.6791 57.6604C39.6791 57.4242 39.6156 57.237 39.4886 57.0989C39.3616 56.9607 39.2067 56.8916 39.024 56.8916C38.9037 56.8916 38.76 56.915 38.5929 56.9618L38.6965 56.1964C38.9505 56.2031 39.1444 56.1485 39.278 56.0327C39.4117 55.9146 39.4786 55.7586 39.4786 55.5647C39.4786 55.3998 39.4296 55.2684 39.3315 55.1703C39.2335 55.0723 39.1031 55.0233 38.9405 55.0233C38.78 55.0233 38.643 55.079 38.5294 55.1904C38.4157 55.3018 38.3466 55.4645 38.3221 55.6784L37.4565 55.5313C37.5166 55.2349 37.6069 54.9988 37.7272 54.8227C37.8497 54.6445 38.0191 54.5052 38.2352 54.4049C38.4536 54.3024 38.6976 54.2512 38.9672 54.2512C39.4285 54.2512 39.7983 54.3982 40.0769 54.6924C40.3064 54.933 40.4211 55.2049 40.4211 55.5079C40.4211 55.938 40.1861 56.2811 39.7159 56.5374C39.9967 56.5975 40.2206 56.7323 40.3877 56.9418C40.5571 57.1512 40.6417 57.4041 40.6417 57.7005C40.6417 58.1306 40.4846 58.4971 40.1705 58.8001C39.8563 59.1032 39.4652 59.2547 38.9973 59.2547C38.5539 59.2547 38.1862 59.1277 37.8943 58.8737C37.6024 58.6174 37.4331 58.2832 37.3863 57.871Z" fill="white"/>
<path d="M38.6641 15.6296L38.6641 23.7155" stroke="white" stroke-width="2.05355"/>
<path d="M38.6641 42.5825L38.6641 50.6684" stroke="white" stroke-width="2.05355"/>
<path d="M31.9411 8.19836H9.60873C5.07216 8.19836 1.39453 11.876 1.39453 16.4126V49.2694C1.39453 53.806 5.07215 57.4836 9.60873 57.4836H32.1978M45.4432 8.19836H67.1081C71.6447 8.19836 75.3224 11.876 75.3224 16.4126V49.2694C75.3224 53.8059 71.6447 57.4836 67.1082 57.4836H45.7512" stroke="white" stroke-width="2.05355"/>
<path d="M12.1758 19.5955H30.0417M65.1574 19.5955H46.3674" stroke="white" stroke-width="2.05355" stroke-linecap="round"/>
<path d="M12.1758 33.457H24.8051M65.1574 33.457H52.8361" stroke="white" stroke-width="2.05355" stroke-linecap="round"/>
<path d="M12.1758 47.0105H30.0417M65.1574 47.0105H46.3674" stroke="white" stroke-width="2.05355" stroke-linecap="round"/>
</svg>
