<svg width="86" height="53" viewBox="0 0 86 53" fill="none" xmlns="http://www.w3.org/2000/svg">
<g clip-path="url(#clip0)">
<path fill-rule="evenodd" clip-rule="evenodd" d="M69.9245 41.6332C71.2259 42.4299 71.7571 42.0847 75.5551 42.0847L75.2098 47.2903C74.2271 47.5558 73.4835 47.7418 72.6336 48.3261C70.6682 49.7071 71.2259 51.2476 72.8726 50.5836C73.1382 50.4508 74.4927 49.0697 76.644 49.0697C79.8045 49.0431 79.3265 51.0351 81.7965 50.6367C82.3276 47.9277 80.0701 48.4854 77.6267 46.9715L77.6001 41.8456C78.9546 41.8456 80.2826 41.8191 81.6106 41.8191C81.9824 41.8191 83.1244 41.8722 83.4166 41.8191L84.6117 41.2082C85.196 40.5177 86.3381 21.2358 85.2226 19.2969C82.6995 18.6861 82.8588 20.2531 82.8057 22.4044L82.2745 39.0038C80.681 39.11 70.801 38.7382 69.9777 39.2163C68.9419 39.8271 69.0215 41.1817 69.9245 41.6332V41.6332ZM76.4581 47.7949C76.4846 47.7949 76.4846 47.7949 76.5112 47.7949L76.4581 47.7418V47.7949ZM76.3253 40.8098V40.5974L77.6001 40.5708C78.9281 40.5442 80.2826 40.5442 81.6106 40.5442C82.0621 40.5442 82.5932 40.5974 83.0713 40.5708L83.5494 40.3318C83.6025 40.0396 83.629 39.7475 83.6556 39.5084C83.7618 38.7117 83.815 37.8618 83.8946 37.0384C84.0806 34.7543 84.2133 32.4437 84.293 30.1596C84.3993 27.9287 84.4524 25.6977 84.3993 23.4667C84.3993 22.9355 84.3461 21.342 84.2133 20.439C84.0805 20.8639 84.1071 22.1388 84.0806 22.4575L83.5228 40.199L82.3542 40.2786C81.584 40.3318 80.7341 40.3052 79.9373 40.2786C78.6891 40.2786 77.4408 40.2521 76.1925 40.2521C74.9442 40.2521 73.7225 40.2255 72.4742 40.2521C72.0227 40.2786 71.5447 40.2786 71.0931 40.3318C70.9604 40.3318 70.7213 40.3583 70.562 40.3849C70.5088 40.4114 70.4823 40.4646 70.5088 40.5177H70.5354L70.5885 40.5442C70.7744 40.6505 70.9338 40.7567 71.1463 40.8098C71.4915 40.9161 72.0227 40.8895 72.3945 40.8895C73.4569 40.8629 74.4927 40.8098 75.5551 40.8098H76.3253ZM28.9438 15.6583L28.7579 15.4193C28.6782 15.3131 28.5986 15.2334 28.5189 15.1272C28.1736 15.1537 27.7487 15.2068 27.5893 15.3131C27.5893 15.4193 27.6424 15.6052 27.669 15.6849L27.7221 15.8974L27.8549 16.163C28.0143 16.5614 28.2533 16.9332 28.4923 17.305C29.5281 18.8454 30.5108 20.4124 31.4935 21.9794C31.7591 22.3778 32.9011 24.1573 33.4589 24.3166C33.751 24.1573 34.3619 23.1746 34.4947 22.909C35.1852 21.7935 35.7695 20.678 36.5397 19.6157L38.3723 17.1457L39.4081 23.8917L39.5409 24.6884C39.5409 24.715 39.5675 24.715 39.5675 24.7416C39.6737 24.7416 39.8065 24.715 39.8862 24.715C40.3111 24.6619 40.7095 24.6353 41.1345 24.6353C42.5421 24.6088 43.9763 24.6619 45.4105 24.6884C46.3666 24.6884 47.3493 24.715 48.332 24.6619C48.6773 24.6619 49.1022 24.6619 49.5271 24.6088L51.4394 19.4032L53.1923 24.6088H54.7327C54.5734 23.7854 54.3609 22.9621 54.1484 22.2184C53.8563 21.1826 53.5641 20.1734 53.272 19.1376C53.0329 18.2611 52.9002 17.3847 52.6611 16.5082C52.5549 16.0833 52.3955 15.4459 52.0768 15.1006C51.7581 14.8085 51.28 14.7819 50.8817 14.8085L50.1114 14.835L49.7396 14.1976C49.7131 14.1976 49.7131 14.171 49.7131 14.171L48.7835 13.7992L45.2246 18.7126L44.9855 17.5175L44.7731 19.0048L42.8874 16.3489C42.2765 15.499 41.7188 14.6757 41.2141 13.7726C39.594 14.0914 38.1333 14.7288 37.0975 16.1364C36.1414 17.4112 35.6898 18.9517 34.6275 20.1468C34.415 20.3859 34.2025 20.5983 33.9635 20.7843L32.9277 21.6341L32.1309 20.5452C31.042 19.0579 30.2452 17.4112 29.1563 15.9239L28.9438 15.6583V15.6583ZM20.0996 30.4252L27.5628 30.4518L27.6424 50.5836C29.5016 50.6898 31.3873 50.6633 33.2464 50.6633C36.2476 50.6633 39.2753 50.6101 42.3031 50.557C45.8885 50.4773 49.474 50.3977 53.0595 50.4242C54.4671 50.4242 55.8748 50.4242 57.2824 50.5039C57.7339 50.5305 58.1854 50.5305 58.6635 50.5836L58.6104 30.4518L66.1531 30.4252V28.513L20.0731 28.5926L20.0996 30.4252V30.4252ZM80.3092 35.9761C80.3092 35.6839 80.2826 35.3652 80.256 35.1793C80.2029 34.3825 80.0967 33.5857 79.9905 32.8155C79.6983 30.6642 79.2999 28.5395 78.9015 26.4148C78.4766 24.2369 78.0251 22.0857 77.5205 19.9344C77.3345 19.1641 77.1486 18.3939 76.9361 17.6237C76.883 17.4378 76.8299 17.1722 76.7502 16.9332C76.2722 17.0394 75.502 17.4909 75.2629 17.6503C74.1474 18.3143 73.1116 19.1907 72.1024 19.9875C71.04 20.8639 70.0308 21.7404 68.9684 22.5903C68.2248 23.148 67.1358 23.9979 66.2328 24.2104L66.0735 24.2635L65.9141 24.2369C64.8518 24.2369 63.7628 24.1041 62.7005 24.051C62.063 24.051 61.346 24.051 60.7351 24.1838C60.5757 24.2104 60.0977 24.3166 59.9914 24.4494C59.9383 24.5556 59.8055 24.9009 59.8055 25.0603C60.1242 25.3524 61.4787 25.4055 61.8506 25.4055C62.5677 25.4055 63.3113 25.379 64.0284 25.379C64.9049 25.379 67.2155 25.4321 67.9592 24.8744C68.3841 24.5822 68.8356 24.051 69.234 23.7058C70.2167 22.8559 71.3056 22.1388 72.4477 21.5279L74.1209 20.6249L75.6348 34.6216L74.2802 34.7012C72.6867 34.7809 71.1197 34.7809 69.5262 34.834C68.995 34.8606 68.092 34.8871 67.6139 35.1527C66.7109 35.6574 65.622 38.2867 65.2236 39.1897C64.4799 40.8364 63.63 42.4831 62.9395 44.1297C62.5677 44.9796 62.1693 46.042 62.249 46.9715C62.2755 47.2637 62.3286 47.5293 62.4349 47.7949C62.9661 47.8214 63.5504 47.7949 63.9222 47.5027C64.5862 46.9981 65.1173 45.1921 65.3829 44.4219C66.2063 42.005 67.0562 39.8803 68.3841 37.7024L68.7028 37.1447L69.3668 37.0915C71.04 36.9322 72.7664 36.9588 74.4662 36.9056C75.8207 36.8525 78.9015 36.7463 80.3092 35.9761V35.9761ZM26.2082 24.5556C24.535 23.9979 21.2151 24.1838 19.7013 24.1573L19.1701 24.1307L18.7982 23.7323C18.1077 22.9887 17.1516 22.2716 16.3282 21.6607C15.4784 20.9967 14.6019 20.3859 13.752 19.7219C12.9552 19.0845 12.2116 18.4205 11.3617 17.8362C11.0961 17.6503 10.0337 16.9597 9.50256 16.9066C9.42288 17.1457 9.3432 17.4112 9.29008 17.5972C9.07761 18.3408 8.8917 19.111 8.70578 19.8812C8.20116 22.006 7.77622 24.1307 7.35127 26.2554C6.95288 28.3802 6.5545 30.5049 6.26235 32.6296C6.15611 33.4264 6.04987 34.1966 5.9702 34.9668C5.9702 35.1793 5.91708 35.5511 5.91708 35.8167C6.12955 36.0823 6.36858 36.2948 6.68729 36.401C7.05912 36.5338 7.56374 36.5338 7.96213 36.5338C8.78546 36.5604 9.58224 36.5338 10.379 36.5869C12.5569 36.7463 14.7347 36.8791 16.9125 37.1181L17.4703 37.1712L17.789 37.6227C18.7451 38.9241 19.5153 40.8895 20.1262 42.3768C20.6574 43.6782 21.162 45.0858 21.7729 46.3607C21.9057 46.6794 22.0385 46.9715 22.1978 47.2903C22.2244 47.3434 22.2775 47.4762 22.3041 47.5293C22.3837 47.609 22.6228 47.7418 22.8087 47.848C23.1805 47.9011 23.871 47.9542 24.0038 47.7683C24.296 47.3434 23.7914 45.6967 23.632 45.2452C23.3399 44.4219 22.968 43.6251 22.5962 42.8283C21.7463 40.9426 21.0292 39.0835 20.259 37.1712C20.0731 36.7197 19.6747 35.6308 19.2498 35.3386C18.8779 35.0465 17.8952 34.9934 17.4172 34.9668C15.5846 34.834 13.752 34.8075 11.8929 34.6747L10.5649 34.5684L12.0788 20.9171L13.6192 21.5279C14.4957 21.8732 15.2659 22.3512 15.983 22.9355C16.5407 23.387 17.0453 23.8651 17.5765 24.3166C18.5327 25.0603 19.356 25.379 20.5777 25.379C21.9853 25.379 23.393 25.4587 24.8006 25.4055C25.0131 25.4055 25.9958 25.3524 26.1551 25.1931C26.2348 25.1134 26.2348 24.8212 26.2082 24.5556V24.5556ZM9.42288 47.7418L9.36976 47.6886L9.3432 47.7418C9.36976 47.7418 9.39632 47.7418 9.42288 47.7418ZM9.58223 40.7036V40.4911L10.8571 40.5442C11.7601 40.5974 12.6365 40.5974 13.513 40.5974C13.991 40.5974 15.1331 40.5974 15.6908 40.4911C15.4518 40.3583 15.0003 40.3052 14.8409 40.3052C14.1504 40.2521 13.4333 40.3052 12.7428 40.3318C11.6804 40.3583 10.618 40.3849 9.55568 40.3849C8.04181 40.4114 4.72192 40.4646 3.42052 39.7209L2.86278 39.4288L2.7831 38.8179C2.46439 36.7728 2.43783 34.595 2.41127 32.5499C2.35816 30.8502 2.35816 29.1238 2.27848 27.424C2.25192 26.3351 2.27848 25.2727 2.27848 24.1838C2.27848 23.5464 2.27848 21.0764 1.93321 20.3593C1.93321 20.5983 1.93321 20.8108 1.93321 21.0233C1.93321 21.8466 1.93321 22.67 1.93321 23.5198C1.95977 25.9102 1.98633 28.327 2.03945 30.7439C2.09256 32.9483 2.17224 35.1793 2.35816 37.4103C2.41127 38.0211 2.54407 39.9334 2.7831 40.7036C2.88934 40.7567 3.02213 40.8098 3.12837 40.8364C3.31428 40.8629 3.55332 40.8629 3.73923 40.8629C4.13762 40.8364 4.536 40.8098 4.93439 40.8098C6.10299 40.7833 7.27159 40.8098 8.41363 40.7567L9.58223 40.7036V40.7036ZM73.6959 5.80492C72.7929 6.09707 72.1024 6.70793 71.6243 7.55782C71.4915 7.82341 71.3587 8.14212 71.2791 8.46083C70.8807 9.81534 71.04 12.0994 72.3414 12.9493C73.0851 13.4008 73.9615 13.1883 74.7052 12.8165C75.6879 12.365 76.7502 11.0371 77.1752 10.0809C77.4142 9.52319 77.5736 8.91233 77.4939 8.30147C77.4142 7.45158 76.9361 6.65481 76.2722 6.15018C75.502 5.59244 74.5989 5.51277 73.6959 5.80492V5.80492ZM11.043 5.93771C10.6712 6.09707 10.2993 6.2033 9.9275 6.36266C9.79471 6.41578 9.63535 6.46889 9.50256 6.54857C9.31664 6.68137 9.13073 7.13287 9.02449 7.34534C8.46675 8.56706 8.67923 9.23104 9.29008 10.3996C9.74159 11.223 10.2197 11.9401 10.9633 12.4978C11.946 13.2415 12.2913 13.3211 13.4864 13.029C13.8583 12.9228 14.177 12.7368 14.4426 12.4713C15.2659 11.5682 15.319 9.9747 15.0534 8.83265C14.6285 6.86728 13.2474 5.0347 11.043 5.93771V5.93771ZM44.3481 2.6975C43.8435 2.90997 43.4451 3.22868 43.1264 3.68019C42.5155 4.50352 42.3296 5.64556 42.3827 6.65481C42.4624 7.90309 43.0733 10.0278 44.4012 10.5059C44.8262 10.6387 45.2246 10.5856 45.623 10.4262C45.8354 10.32 46.0479 10.2137 46.2073 10.0544C47.1634 9.2576 47.5086 7.74373 47.5086 6.57513C47.5086 5.35341 47.1103 3.22868 45.8885 2.61782C45.3839 2.37879 44.8527 2.48503 44.3481 2.6975V2.6975ZM23.0743 8.69986L28.4923 6.36266L28.7048 6.89384L23.3133 9.2576L23.0743 8.69986V8.69986ZM22.4634 7.53126L27.8815 5.1675L28.1205 5.69868L22.7024 8.06244L22.4634 7.53126V7.53126ZM21.8525 6.3361L27.2706 3.97234L27.5096 4.50352L22.0916 6.86728L21.8525 6.3361V6.3361ZM21.2417 5.14094L26.6597 2.77718L26.8988 3.33492L21.4807 5.67212L21.2417 5.14094V5.14094ZM18.8779 4.4504L27.5362 0.705566L33.2464 13.8523L30.1921 15.1803C31.281 16.6676 31.9981 18.208 33.1667 19.8016C35.6367 17.8362 34.8931 13.3211 41.9047 12.365C42.489 13.5867 43.153 14.5163 43.9232 15.6052L44.2684 13.0556L43.9232 12.2322L46.101 12.0463C45.5698 13.7992 45.4636 13.7726 45.862 15.6318L48.332 12.2322L50.1114 12.9493C51.3863 13.1883 50.4036 12.8696 50.8285 13.5336C53.9625 13.3743 53.7766 16.163 54.4937 18.7923C55.1046 20.9436 56.0341 23.8651 56.22 25.857L52.2627 25.9102L51.3863 23.2543L50.4567 25.7508C48.8897 26.1492 43.631 25.857 41.161 25.9102C39.2753 25.9367 38.9566 26.3882 38.3192 25.0868L38.1598 24.1041L37.5755 20.3593C34.9196 23.9979 34.2557 28.7785 30.4046 22.67C29.3157 20.9436 28.5986 19.775 27.43 17.9955C27.1378 17.544 26.8722 17.1191 26.6863 16.6942L24.5881 17.5972L18.8779 4.4504V4.4504ZM19.8075 4.82223L24.96 16.6942L26.4207 16.0302C26.0489 14.7553 26.5801 13.7726 29.0766 13.8523C29.3157 14.0914 29.5281 14.357 29.7406 14.596L32.3168 13.4805L27.1644 1.63514L19.8075 4.82223V4.82223ZM18.8248 31.7001L26.3145 31.7266L26.3676 51.7787C33.751 52.3896 55.4764 51.1148 59.9383 52.0443L59.9118 31.7266L67.4545 31.7001L67.4014 27.2381L18.7982 27.3178L18.8248 31.7001ZM64.0284 26.6538C70.4557 26.6538 67.5077 25.6977 73.0585 22.6434L74.2271 33.4264C66.6047 33.8513 66.8702 32.4437 64.055 38.6585C61.6115 44.05 60.0446 46.1482 61.5584 48.9635C66.9765 49.8665 65.2236 45.3514 69.473 38.3664C73.1116 38.0477 79.3265 38.5257 81.4778 36.7197C82.248 35.4449 78.3703 16.3223 77.6267 15.8177C75.4223 14.2773 68.092 22.4575 65.9407 22.9621C64.1347 22.9355 59.6196 22.1919 58.8228 23.9182C57.3355 27.185 61.8506 26.6538 64.0284 26.6538ZM13.1677 22.7231C16.222 23.9182 16.7266 26.6538 20.5777 26.6538C25.8099 26.6538 28.0143 27.3444 27.4034 23.6792C25.6505 22.6168 21.9057 22.9355 19.7544 22.8824C18.5592 21.581 16.0095 19.8547 14.5488 18.7126C13.4864 17.8628 10.1134 14.7022 8.54643 15.8974C7.5903 17.5175 4.32353 34.1966 4.6688 36.2948C6.12955 38.3133 7.37783 37.6758 10.2993 37.8618C12.4241 38.0211 14.6285 38.1539 16.7798 38.3929C18.0812 40.1458 19.5419 44.6609 20.6043 46.9184C21.3214 48.4057 21.0558 48.3526 22.3837 49.0697C27.3768 49.9727 24.8272 44.5812 23.7648 42.2971C19.1966 32.3375 22.5165 34.1435 11.9991 33.3998L13.1677 22.7231V22.7231ZM8.14804 47.2903C6.60761 47.7683 3.79235 48.6182 4.56256 50.3445C5.38589 51.3804 5.46557 50.6898 7.006 49.7868C10.6977 47.5558 12.6631 50.9288 14.7081 50.6101C15.2924 48.0339 12.3444 48.1136 10.5649 46.9715L10.804 41.8191C11.7866 41.8722 15.6643 41.9784 16.3548 41.6332C17.6562 40.9957 17.2844 39.1366 14.8941 39.0304C13.0349 38.9241 5.59837 39.5084 4.05794 38.6054C3.57987 35.5246 3.71267 30.7439 3.55332 27.3709C3.44708 24.6088 3.89858 19.7484 2.54407 19.1907C1.56138 18.8189 1.00364 19.1907 0.684931 19.8016C0.631813 19.8812 0.552136 40.0131 1.77386 41.6066C2.88934 42.3237 3.34084 42.1112 4.96095 42.0847C6.15611 42.0581 7.27159 42.0847 8.46675 42.0315C8.51987 43.811 8.70578 45.6436 8.14804 47.2903V47.2903ZM73.2976 4.5832C67.6139 6.41578 69.2606 16.8801 75.2629 13.9851C76.644 13.3211 79.0609 10.798 78.7687 8.16868C78.5031 5.77836 76.2191 3.65363 73.2976 4.5832ZM10.5649 4.74255C8.94482 5.40653 8.57299 5.24717 7.85589 6.81416C7.11224 8.51395 7.43095 9.57631 8.1746 10.9839C8.7589 12.0994 9.3432 12.8696 10.1931 13.5071C11.4148 14.4632 12.1319 14.6757 13.8051 14.2507C18.7717 12.9759 16.3283 2.40535 10.5649 4.74255V4.74255ZM43.8435 1.5289C38.8238 3.65363 41.3469 13.6133 46.1276 11.5948C50.6426 9.70911 49.1022 -0.702066 43.8435 1.5289V1.5289Z" fill="#FEFEFE"/>
</g>
<defs>
<clipPath id="clip0">
<rect width="85.5646" height="51.3388" fill="white" transform="translate(0.398438 0.705566)"/>
</clipPath>
</defs>
</svg>
