<svg width="59" height="71" viewBox="0 0 59 71" fill="none" xmlns="http://www.w3.org/2000/svg">
<g clip-path="url(#clip0)">
<path d="M5.9944 15.5994V13.5145H34.7763V15.5994H5.9944V15.5994ZM0.0351563 18.1896V17.9369L0.0985524 17.7474V17.4947L0.161949 17.242L0.225345 17.0524L0.352137 16.7997L0.415533 16.6102L0.542326 16.3575L0.669118 16.1679L0.795911 15.9784L0.922703 15.7889L1.11289 15.5994L1.23968 15.4098L1.42987 15.2203L1.62006 15.0308L1.81025 14.9044L2.06383 14.7149L2.25402 14.5885L2.44421 14.4622L2.6978 14.3358L2.95138 14.2095L3.20497 14.0831L3.45855 13.9568L3.71214 13.8936L3.96572 13.7672L4.21931 13.7041L4.53629 13.6409L4.78987 13.5777L5.10685 13.5145H5.36044H5.67742H5.9944V15.5994H5.80421H5.61402L5.42383 15.6625H5.23364L5.04346 15.7257H4.85327L4.72647 15.7889L4.53629 15.8521L4.3461 15.9152L4.21931 15.9784L4.02912 16.0416L3.90232 16.1048L3.77553 16.2311L3.64874 16.2943L3.52195 16.3575L3.39515 16.4838L3.26836 16.547L3.14157 16.6734L3.01478 16.7997L2.95138 16.8629L2.82459 16.9892L2.76119 17.1156L2.6978 17.242L2.6344 17.3051L2.571 17.4315L2.50761 17.5578L2.44421 17.6842V17.7474L2.38082 17.8737V18.0001V18.0633V18.1896H0.0351563H0.0351563ZM2.38082 65.6985H0.0351563V18.1896H2.38082V65.6985ZM5.9944 70.879L5.67742 70.8158H5.36044H5.10685L4.78987 70.7527L4.53629 70.6895L4.21931 70.6263L3.96572 70.5631L3.71214 70.4368L3.39515 70.3736L3.14157 70.2472L2.88799 70.1209L2.6978 69.9945L2.44421 69.8682L2.19063 69.6786L2.00044 69.5523L1.81025 69.3628L1.62006 69.1732L1.42987 68.9837L1.23968 68.7942L1.0495 68.6046L0.922703 68.4151L0.732514 68.1624L0.605722 67.9729L0.47893 67.7202L0.415533 67.4675L0.288741 67.2148L0.225345 66.962L0.161949 66.7093L0.0985524 66.4566L0.0351562 66.2039V65.9512V65.6985H2.38082V65.8249V66.0144V66.1407L2.44421 66.2671L2.50761 66.4566V66.583L2.571 66.7093L2.6344 66.8357L2.6978 67.0252L2.82459 67.1516L2.88799 67.2779L2.95138 67.4043L3.07817 67.4675L3.14157 67.5938L3.26836 67.7202L3.39515 67.8465L3.52195 67.9097L3.64874 68.0361L3.77553 68.0992L3.96572 68.2256L4.09251 68.2888L4.21931 68.3519L4.40949 68.4151L4.53629 68.4783L4.72647 68.5415L4.91666 68.6046L5.04346 68.6678H5.23364L5.42383 68.731H5.61402H5.80421H5.9944V70.879V70.879ZM44.2223 68.731V70.879H5.9944V68.731H44.2223ZM49.6744 65.6985V65.9512L49.611 66.2039V66.4566L49.5476 66.7093L49.4842 66.962L49.4208 67.2148L49.294 67.4675L49.2306 67.7202L49.1038 67.9097L48.977 68.1624L48.8502 68.3519L48.66 68.6046L48.5332 68.7942L48.3431 68.9837L48.2163 69.1732L48.0261 69.3628L47.8359 69.4891L47.6457 69.6786L47.3921 69.805L47.2019 69.9314L47.0117 70.1209L46.7582 70.1841L46.5046 70.3104L46.3144 70.4368L46.0608 70.4999L45.8072 70.6263L45.5536 70.6895L45.3 70.7527L45.0465 70.8158H44.7929H44.5393L44.2223 70.879V68.731H44.3491H44.4759H44.6661L44.7929 68.6678H44.9197L45.0465 68.6046L45.1732 68.5415H45.3L45.4268 68.4783L45.5536 68.4151L45.7438 68.2888L45.8706 68.2256L45.9974 68.1624L46.1242 68.0361L46.1876 67.9729L46.3144 67.8465L46.4412 67.7833L46.568 67.657L46.6314 67.5306L46.7582 67.4043L46.8215 67.2779L46.8849 67.1516L47.0117 67.0252L47.0751 66.8989L47.1385 66.7093L47.2019 66.583V66.4566L47.2653 66.3303V66.1407L47.3287 66.0144V65.8249V65.6985H49.6744V65.6985ZM47.3287 33.6679H49.6744V65.6985H47.3287V33.6679Z" fill="white"/>
<path d="M45.9341 6.5018C45.9341 8.08122 43.5251 8.08122 43.5251 6.5018V5.30144C43.2715 5.49097 43.0179 5.74368 42.7643 5.93321C42.0035 6.69133 41.433 7.63898 41.1794 8.71299H51.8934C51.6398 7.63898 51.0692 6.69133 50.3084 5.93321C50.1183 5.74368 49.8647 5.49097 49.5477 5.30144V6.5018C49.5477 8.08122 47.202 8.08122 47.202 6.5018V4.41697C46.7583 4.35379 46.3145 4.35379 45.9341 4.41697V6.5018V6.5018ZM43.5251 2.58484C43.5251 1.70037 43.3983 0.373657 44.7296 0.373657C45.6805 0.373657 45.9341 1.19495 45.9341 1.95308C46.3145 1.95308 46.7583 1.95308 47.202 1.95308C47.202 1.19495 47.3922 0.373657 48.3432 0.373657C49.6745 0.373657 49.5477 1.70037 49.5477 2.58484C50.4986 2.9639 51.3228 3.53249 52.0201 4.22744C53.2247 5.4278 54.0488 6.94404 54.3658 8.71299H54.7462C55.4435 8.71299 55.9507 9.2184 55.9507 9.91334C55.9507 10.5451 55.4435 11.1137 54.7462 11.1137H53.0345V17.3682C53.0345 18.5686 52.5273 19.6426 51.7032 20.4639C50.9424 21.222 49.8013 21.7274 48.5967 21.7274H44.476C43.2715 21.7274 42.1303 21.222 41.3696 20.4639C40.5454 19.6426 40.1017 18.5686 40.1017 17.3682V11.1137H38.3266C37.6292 11.1137 37.122 10.5451 37.122 9.91334C37.122 9.2184 37.6292 8.71299 38.3266 8.71299H38.7069C39.0239 6.94404 39.8481 5.4278 41.0526 4.22744C41.75 3.53249 42.5741 2.9639 43.5251 2.58484V2.58484ZM50.562 11.1137H42.5107V17.3682C42.5107 17.8736 42.7009 18.379 43.0813 18.7581C43.3983 19.074 43.9054 19.3267 44.476 19.3267H48.5967C49.1673 19.3267 49.6745 19.074 49.9915 18.7581C50.3718 18.379 50.562 17.8736 50.562 17.3682V11.1137V11.1137ZM43.2081 24.1281L36.4247 26.5288V27.7292H56.4579V26.5288L49.6745 24.1281H46.4413H43.2081V24.1281ZM34.8398 24.5703L42.5107 21.8537C42.6375 21.7906 42.8277 21.7274 42.9545 21.7274H46.4413H49.9281C50.0549 21.7274 50.1817 21.7906 50.3084 21.7906L57.916 24.5703C58.4866 24.6967 58.8669 25.1389 58.8669 25.7075V28.9295C58.8669 29.6245 58.2964 30.1931 57.6624 30.1931H35.2202C34.5862 30.1931 34.0156 29.6245 34.0156 28.9295V25.7075C34.0156 25.2021 34.3326 24.7599 34.8398 24.5703V24.5703Z" fill="white"/>
<path d="M5.99609 53.8843H10.4338V59.0016H5.99609V53.8843ZM11.258 53.8843H15.9493V59.0016H11.258V53.8843V53.8843ZM16.7734 53.8843H21.5282V59.0016H16.7734V53.8843ZM22.2889 53.8843H27.0436V59.0016H22.2889V53.8843V53.8843ZM27.8044 53.8843H32.5591V59.0016H27.8044V53.8843ZM33.3199 53.8843H38.0746V59.0016H33.3199V53.8843ZM38.8353 53.8843H43.7168V59.0016H38.8353V53.8843V53.8843ZM26.5999 44.85H22.9229V30.8247C21.5282 32.0883 19.9433 33.0359 18.1048 33.6045V30.2562C19.0557 29.9403 20.1334 29.3085 21.2746 28.424C22.4157 27.5396 23.1765 26.5287 23.6202 25.3284H26.5999V44.85V44.85Z" fill="white"/>
<path d="M10.6836 9.72388V19.3267" stroke="white" stroke-width="3.21404" stroke-miterlimit="22.9256"/>
<path d="M15.9453 9.72388V19.3267" stroke="white" stroke-width="3.21404" stroke-miterlimit="22.9256"/>
<path d="M31.4141 9.72388V19.3267" stroke="white" stroke-width="3.21404" stroke-miterlimit="22.9256"/>
</g>
<defs>
<clipPath id="clip0">
<rect width="58.8685" height="70.5052" fill="white" transform="translate(0.0195312 0.373657)"/>
</clipPath>
</defs>
</svg>
