<svg width="129" height="112" viewBox="0 0 129 112" fill="none" xmlns="http://www.w3.org/2000/svg">
<mask id="path-1-inside-1_1929_70634" fill="white">
<path fill-rule="evenodd" clip-rule="evenodd" d="M20.1768 42.1443C18.4223 42.1443 17 43.5666 17 45.3211V68.6187C17 70.1329 18.0595 71.3997 19.4775 71.7182C19.9145 71.9111 20.3978 72.0183 20.9061 72.0183H22V80C22 81.6569 23.3431 83 25 83C26.6569 83 28 81.6569 28 80V72.0183H33V80C33 81.6569 34.3431 83 36 83C37.6569 83 39 81.6569 39 80V72.0183H39.4937C41.4491 72.0183 43.0342 70.4331 43.0342 68.4778C43.0342 66.5224 41.4491 64.9373 39.4937 64.9373H23.3536V45.3211C23.3536 43.5666 21.9313 42.1443 20.1768 42.1443Z"/>
</mask>
<path d="M19.4775 71.7182L20.2853 69.8886L20.1065 69.8097L19.9159 69.7668L19.4775 71.7182ZM22 72.0183H24V70.0183H22V72.0183ZM28 72.0183V70.0183H26V72.0183H28ZM33 72.0183H35V70.0183H33V72.0183ZM39 72.0183V70.0183H37V72.0183H39ZM23.3536 64.9373H21.3536V66.9373H23.3536V64.9373ZM19 45.3211C19 44.6711 19.5269 44.1443 20.1768 44.1443V40.1443C17.3177 40.1443 15 42.462 15 45.3211H19ZM19 68.6187V45.3211H15V68.6187H19ZM19.9159 69.7668C19.3909 69.6489 19 69.1771 19 68.6187H15C15 71.0887 16.728 73.1505 19.0392 73.6696L19.9159 69.7668ZM20.9061 70.0183C20.6813 70.0183 20.4727 69.9713 20.2853 69.8886L18.6698 73.5478C19.3563 73.851 20.1143 74.0183 20.9061 74.0183V70.0183ZM22 70.0183H20.9061V74.0183H22V70.0183ZM24 80V72.0183H20V80H24ZM25 81C24.4477 81 24 80.5523 24 80H20C20 82.7614 22.2386 85 25 85V81ZM26 80C26 80.5523 25.5523 81 25 81V85C27.7614 85 30 82.7614 30 80H26ZM26 72.0183V80H30V72.0183H26ZM33 70.0183H28V74.0183H33V70.0183ZM35 80V72.0183H31V80H35ZM36 81C35.4477 81 35 80.5523 35 80H31C31 82.7614 33.2386 85 36 85V81ZM37 80C37 80.5523 36.5523 81 36 81V85C38.7614 85 41 82.7614 41 80H37ZM37 72.0183V80H41V72.0183H37ZM39.4937 70.0183H39V74.0183H39.4937V70.0183ZM41.0342 68.4778C41.0342 69.3286 40.3445 70.0183 39.4937 70.0183V74.0183C42.5536 74.0183 45.0342 71.5377 45.0342 68.4778H41.0342ZM39.4937 66.9373C40.3445 66.9373 41.0342 67.627 41.0342 68.4778H45.0342C45.0342 65.4178 42.5536 62.9373 39.4937 62.9373V66.9373ZM23.3536 66.9373H39.4937V62.9373H23.3536V66.9373ZM21.3536 45.3211V64.9373H25.3536V45.3211H21.3536ZM20.1768 44.1443C20.8267 44.1443 21.3536 44.6711 21.3536 45.3211H25.3536C25.3536 42.462 23.0358 40.1443 20.1768 40.1443V44.1443Z" fill="white" mask="url(#path-1-inside-1_1929_70634)"/>
<mask id="path-3-inside-2_1929_70634" fill="white">
<path fill-rule="evenodd" clip-rule="evenodd" d="M57 56.5C57 54.567 58.567 53 60.5 53H86.5C88.433 53 90 54.567 90 56.5V79.5C90 81.433 88.433 83 86.5 83C84.567 83 83 81.433 83 79.5V60H64V79.5C64 81.433 62.433 83 60.5 83C58.567 83 57 81.433 57 79.5V56.5Z"/>
</mask>
<path d="M83 60H85V58H83V60ZM64 60V58H62V60H64ZM60.5 51C57.4624 51 55 53.4624 55 56.5H59C59 55.6716 59.6716 55 60.5 55V51ZM86.5 51H60.5V55H86.5V51ZM92 56.5C92 53.4624 89.5376 51 86.5 51V55C87.3284 55 88 55.6716 88 56.5H92ZM92 79.5V56.5H88V79.5H92ZM86.5 85C89.5376 85 92 82.5376 92 79.5H88C88 80.3284 87.3284 81 86.5 81V85ZM81 79.5C81 82.5376 83.4624 85 86.5 85V81C85.6716 81 85 80.3284 85 79.5H81ZM81 60V79.5H85V60H81ZM64 62H83V58H64V62ZM62 60V79.5H66V60H62ZM62 79.5C62 80.3284 61.3284 81 60.5 81V85C63.5376 85 66 82.5376 66 79.5H62ZM60.5 81C59.6716 81 59 80.3284 59 79.5H55C55 82.5376 57.4624 85 60.5 85V81ZM59 79.5V56.5H55V79.5H59Z" fill="white" mask="url(#path-3-inside-2_1929_70634)"/>
<mask id="path-5-inside-3_1929_70634" fill="white">
<path fill-rule="evenodd" clip-rule="evenodd" d="M71.3584 23.779C71.3584 22.5569 72.3491 21.5662 73.5712 21.5662C74.7933 21.5662 75.784 22.5569 75.784 23.779V44.1368C75.784 44.2378 75.7773 44.3372 75.7642 44.4345L78.9556 51.5454H82.8646C83.8423 51.5454 84.6349 52.338 84.6349 53.3157H82.8646H82.6349H78.7833L78.1461 53.5985L78.0192 53.3157H74.2432H74.0134H72.2432C72.2432 52.338 73.0357 51.5454 74.0134 51.5454H77.2247L74.7424 46.0146C74.4027 46.2269 74.0013 46.3496 73.5712 46.3496C72.3491 46.3496 71.3584 45.3589 71.3584 44.1368V23.779Z"/>
</mask>
<path d="M75.7642 44.4345L73.782 44.168L73.706 44.7332L73.9395 45.2535L75.7642 44.4345ZM78.9556 51.5454L77.1309 52.3643L77.661 53.5454H78.9556V51.5454ZM84.6349 53.3157V55.3157H86.6349V53.3157H84.6349ZM78.7833 53.3157V51.3157H78.3593L77.9718 51.4877L78.7833 53.3157ZM78.1461 53.5985L76.3215 54.4174L77.1371 56.2347L78.9577 55.4265L78.1461 53.5985ZM78.0192 53.3157L79.8438 52.4967L79.3138 51.3157H78.0192V53.3157ZM72.2432 53.3157H70.2432V55.3157H72.2432V53.3157ZM77.2247 51.5454V53.5454H80.3145L79.0493 50.7265L77.2247 51.5454ZM74.7424 46.0146L76.567 45.1957L75.6277 43.1027L73.6824 44.3186L74.7424 46.0146ZM73.5712 19.5662C71.2445 19.5662 69.3584 21.4523 69.3584 23.779H73.3584C73.3584 23.6614 73.4537 23.5662 73.5712 23.5662V19.5662ZM77.784 23.779C77.784 21.4523 75.8979 19.5662 73.5712 19.5662V23.5662C73.6887 23.5662 73.784 23.6614 73.784 23.779H77.784ZM77.784 44.1368V23.779H73.784V44.1368H77.784ZM77.7463 44.7011C77.7713 44.5156 77.784 44.3272 77.784 44.1368H73.784C73.784 44.1484 73.7832 44.1587 73.782 44.168L77.7463 44.7011ZM80.7803 50.7265L77.5888 43.6156L73.9395 45.2535L77.1309 52.3643L80.7803 50.7265ZM82.8646 49.5454H78.9556V53.5454H82.8646V49.5454ZM86.6349 53.3157C86.6349 51.2334 84.9469 49.5454 82.8646 49.5454V53.5454C82.7377 53.5454 82.6349 53.4425 82.6349 53.3157H86.6349ZM82.8646 55.3157H84.6349V51.3157H82.8646V55.3157ZM82.6349 55.3157H82.8646V51.3157H82.6349V55.3157ZM78.7833 55.3157H82.6349V51.3157H78.7833V55.3157ZM78.9577 55.4265L79.5948 55.1436L77.9718 51.4877L77.3346 51.7706L78.9577 55.4265ZM76.1945 54.1346L76.3215 54.4174L79.9708 52.7796L79.8438 52.4967L76.1945 54.1346ZM74.2432 55.3157H78.0192V51.3157H74.2432V55.3157ZM74.0134 55.3157H74.2432V51.3157H74.0134V55.3157ZM72.2432 55.3157H74.0134V51.3157H72.2432V55.3157ZM74.0134 49.5454C71.9312 49.5454 70.2432 51.2334 70.2432 53.3157H74.2432C74.2432 53.4425 74.1403 53.5454 74.0134 53.5454V49.5454ZM77.2247 49.5454H74.0134V53.5454H77.2247V49.5454ZM72.9177 46.8335L75.4 52.3643L79.0493 50.7265L76.567 45.1957L72.9177 46.8335ZM73.5712 48.3496C74.3869 48.3496 75.1541 48.1158 75.8024 47.7106L73.6824 44.3186C73.6513 44.338 73.6157 44.3496 73.5712 44.3496V48.3496ZM69.3584 44.1368C69.3584 46.4635 71.2445 48.3496 73.5712 48.3496V44.3496C73.4537 44.3496 73.3584 44.2543 73.3584 44.1368H69.3584ZM69.3584 23.779V44.1368H73.3584V23.779H69.3584Z" fill="white" mask="url(#path-5-inside-3_1929_70634)"/>
<path d="M58.7997 53.8108L58.7997 52.8108L58.7997 53.8108ZM67.6269 51.1356L67.7924 52.1218L67.6269 51.1356ZM58.6997 52.6342L58.5341 51.648L58.6997 52.6342ZM58.8652 53.6204L67.7924 52.1218L67.4613 50.1494L58.5341 51.648L58.8652 53.6204ZM67.8543 52.8107L58.7997 52.8108L58.7997 54.8108L67.8543 54.8107L67.8543 52.8107ZM58.7997 52.8108C59.0238 52.8108 59.2061 52.9922 59.2061 53.2174L57.2061 53.2174C57.2061 54.0977 57.9202 54.8108 58.7997 54.8108L58.7997 52.8108ZM68.1984 52.4352C68.2164 52.6369 68.058 52.8107 67.8543 52.8107L67.8543 54.8107C69.232 54.8107 70.313 53.63 70.1904 52.2573L68.1984 52.4352ZM67.7924 52.1218C67.993 52.0881 68.1803 52.233 68.1984 52.4352L70.1904 52.2573C70.0687 50.8941 68.811 49.9228 67.4613 50.1494L67.7924 52.1218ZM58.5341 51.648C57.7676 51.7767 57.2061 52.4399 57.2061 53.2174L59.2061 53.2174C59.2061 53.4171 59.0617 53.5874 58.8652 53.6204L58.5341 51.648Z" fill="white"/>
<mask id="path-8-inside-4_1929_70634" fill="white">
<path fill-rule="evenodd" clip-rule="evenodd" d="M47.7895 27.8052C47.7895 31.5636 44.7261 34.6104 40.9472 34.6104C37.1683 34.6104 34.1049 31.5636 34.1049 27.8052C34.1049 24.0468 37.1683 21 40.9472 21C44.7261 21 47.7895 24.0468 47.7895 27.8052ZM30.5423 38.3734C31.2458 35.4898 34.1551 33.7165 37.0406 34.4128C39.8352 35.0872 41.5824 37.8308 41.0504 40.6228C44.7308 43.9039 49.0329 46.0709 54.7601 47.2166C57.6169 47.7881 58.9845 51.3639 56.9392 53.4371C56.2487 54.1371 55.2822 54.5101 54.3024 54.4192C47.8608 53.8218 43.3819 52.1234 39.0941 48.672L36.8919 57.6995H49.44C49.625 57.6722 49.817 57.6579 50.0158 57.6577C50.2235 57.6574 50.4312 57.6726 50.6372 57.702C51.9893 57.7498 53.1657 58.4878 53.8248 59.5745C54.3249 60.2338 54.6305 61.0195 54.6305 61.8596V78.3356C54.6305 80.63 52.7706 82.4899 50.4763 82.4899C48.182 82.4899 46.322 80.63 46.322 78.3357V65.4769H30.9057C30.8778 65.4769 30.85 65.4766 30.8223 65.476C30.3862 65.4806 29.9426 65.4319 29.4996 65.325C26.6142 64.6287 24.8453 61.7266 25.5488 58.843L30.5423 38.3734Z"/>
</mask>
<path d="M37.0406 34.4128L37.5097 32.4686L37.0406 34.4128ZM30.5423 38.3734L32.4853 38.8474L30.5423 38.3734ZM41.0504 40.6228L39.0857 40.2484L38.8736 41.3616L39.7195 42.1157L41.0504 40.6228ZM54.7601 47.2166L55.1524 45.2554L54.7601 47.2166ZM56.9392 53.4371L55.5154 52.0325L56.9392 53.4371ZM54.3024 54.4192L54.4871 52.4278H54.4871L54.3024 54.4192ZM39.0941 48.672L40.3482 47.114L37.8969 45.1408L37.1511 48.198L39.0941 48.672ZM36.8919 57.6995L34.9488 57.2255L34.3453 59.6995H36.8919V57.6995ZM49.44 57.6995V59.6995H49.5871L49.7325 59.678L49.44 57.6995ZM50.0158 57.6577L50.0182 59.6577H50.0183L50.0158 57.6577ZM50.6372 57.702L50.3544 59.6819L50.46 59.697L50.5666 59.7008L50.6372 57.702ZM53.8248 59.5745L52.1148 60.6116L52.1686 60.7004L52.2313 60.7831L53.8248 59.5745ZM46.322 65.4769H48.322V63.4769H46.322V65.4769ZM30.8223 65.476L30.8643 63.4765L30.8327 63.4758L30.8011 63.4761L30.8223 65.476ZM29.4996 65.325L29.9687 63.3808H29.9687L29.4996 65.325ZM25.5488 58.843L23.6058 58.369L25.5488 58.843ZM40.9472 36.6104C45.8204 36.6104 49.7895 32.6784 49.7895 27.8052H45.7895C45.7895 30.4488 43.6318 32.6104 40.9472 32.6104V36.6104ZM32.1049 27.8052C32.1049 32.6784 36.074 36.6104 40.9472 36.6104V32.6104C38.2626 32.6104 36.1049 30.4488 36.1049 27.8052H32.1049ZM40.9472 19C36.074 19 32.1049 22.932 32.1049 27.8052H36.1049C36.1049 25.1616 38.2626 23 40.9472 23V19ZM49.7895 27.8052C49.7895 22.932 45.8204 19 40.9472 19V23C43.6318 23 45.7895 25.1616 45.7895 27.8052H49.7895ZM37.5097 32.4686C33.5524 31.5137 29.5641 33.9445 28.5993 37.8994L32.4853 38.8474C32.9275 37.035 34.7578 35.9194 36.5714 36.357L37.5097 32.4686ZM43.015 40.9972C43.7458 37.1624 41.3466 33.3945 37.5097 32.4686L36.5714 36.357C38.3238 36.7799 39.4191 38.4993 39.0857 40.2484L43.015 40.9972ZM55.1524 45.2554C49.7464 44.174 45.7757 42.156 42.3813 39.1299L39.7195 42.1157C43.6859 45.6518 48.3194 47.9678 54.3678 49.1777L55.1524 45.2554ZM58.3631 54.8417C60.0067 53.1755 60.2334 50.9195 59.5685 49.0828C58.9106 47.2657 57.3318 45.6914 55.1524 45.2554L54.3678 49.1777C55.0452 49.3133 55.5786 49.8126 55.8074 50.4445C56.0291 51.0569 55.917 51.6255 55.5154 52.0325L58.3631 54.8417ZM54.1177 56.4107C55.7232 56.5596 57.272 55.9476 58.3631 54.8417L55.5154 52.0325C55.2253 52.3266 54.8412 52.4606 54.4871 52.4278L54.1177 56.4107ZM37.84 50.2299C42.4831 53.9673 47.3526 55.7832 54.1177 56.4107L54.4871 52.4278C48.369 51.8603 44.2808 50.2795 40.3482 47.114L37.84 50.2299ZM38.8349 58.1735L41.0371 49.146L37.1511 48.198L34.9488 57.2255L38.8349 58.1735ZM49.44 55.6995H36.8919V59.6995H49.44V55.6995ZM49.7325 59.678C49.8186 59.6653 49.9136 59.6578 50.0182 59.6577L50.0133 55.6577C49.7203 55.6581 49.4313 55.6791 49.1475 55.721L49.7325 59.678ZM50.0183 59.6577C50.1273 59.6576 50.2396 59.6655 50.3544 59.6819L50.9201 55.7221C50.6228 55.6796 50.3198 55.6573 50.0133 55.6577L50.0183 59.6577ZM55.5349 58.5373C54.5399 56.8969 52.7595 55.7757 50.7078 55.7033L50.5666 59.7008C51.2192 59.7238 51.7915 60.0787 52.1148 60.6116L55.5349 58.5373ZM52.2313 60.7831C52.5077 61.1475 52.6305 61.5179 52.6305 61.8596H56.6305C56.6305 60.5211 56.1421 59.3201 55.4183 58.3659L52.2313 60.7831ZM52.6305 61.8596V78.3356H56.6305V61.8596H52.6305ZM52.6305 78.3356C52.6305 79.5254 51.666 80.4899 50.4763 80.4899V84.4899C53.8752 84.4899 56.6305 81.7345 56.6305 78.3356H52.6305ZM50.4763 80.4899C49.2865 80.4899 48.322 79.5254 48.322 78.3357H44.322C44.322 81.7345 47.0774 84.4899 50.4763 84.4899V80.4899ZM48.322 78.3357V65.4769H44.322V78.3357H48.322ZM30.9057 67.4769H46.322V63.4769H30.9057V67.4769ZM30.7802 67.4756C30.8219 67.4764 30.8638 67.4769 30.9057 67.4769V63.4769C30.8919 63.4769 30.8781 63.4767 30.8643 63.4765L30.7802 67.4756ZM29.0304 67.2692C29.6354 67.4152 30.2437 67.4822 30.8434 67.4759L30.8011 63.4761C30.5287 63.479 30.2498 63.4487 29.9687 63.3808L29.0304 67.2692ZM23.6058 58.369C22.6401 62.3276 25.0694 66.3134 29.0304 67.2692L29.9687 63.3808C28.159 62.9441 27.0506 61.1256 27.4918 59.317L23.6058 58.369ZM28.5993 37.8994L23.6058 58.369L27.4918 59.317L32.4853 38.8474L28.5993 37.8994Z" fill="white" mask="url(#path-8-inside-4_1929_70634)"/>
<mask id="path-10-inside-5_1929_70634" fill="white">
<path fill-rule="evenodd" clip-rule="evenodd" d="M101.25 83.3539C106.394 75.0174 109.361 65.1957 109.361 54.6807C109.361 24.4814 84.8801 0 54.6807 0C24.4814 0 0 24.4814 0 54.6807C0 84.8801 24.4814 109.361 54.6807 109.361C71.1054 109.361 85.8388 102.12 95.8621 90.6552C95.9811 90.7668 96.1073 90.8732 96.2405 90.9737L121.68 110.161C123.695 111.68 126.559 111.279 128.079 109.265C129.598 107.25 129.197 104.385 127.182 102.866L101.743 83.6786C101.583 83.5584 101.419 83.4502 101.25 83.3539Z"/>
</mask>
<path d="M101.25 83.3539L99.5476 82.3037L98.4603 84.0658L100.259 85.0914L101.25 83.3539ZM95.8621 90.6552L97.2301 89.1963L95.7195 87.7797L94.3564 89.3388L95.8621 90.6552ZM96.2405 90.9737L95.0361 92.5704L95.0362 92.5705L96.2405 90.9737ZM121.68 110.161L122.884 108.564L121.68 110.161ZM128.079 109.265L126.482 108.06V108.06L128.079 109.265ZM127.182 102.866L125.978 104.463L127.182 102.866ZM101.743 83.6786L100.538 85.2754L100.538 85.2754L101.743 83.6786ZM107.361 54.6807C107.361 64.8142 104.502 74.2738 99.5476 82.3037L102.952 84.4042C108.285 75.7611 111.361 65.5771 111.361 54.6807H107.361ZM54.6807 2C83.7755 2 107.361 25.586 107.361 54.6807H111.361C111.361 23.3768 85.9846 -2 54.6807 -2V2ZM2 54.6807C2 25.586 25.586 2 54.6807 2V-2C23.3768 -2 -2 23.3768 -2 54.6807H2ZM54.6807 107.361C25.586 107.361 2 83.7755 2 54.6807H-2C-2 85.9846 23.3768 111.361 54.6807 111.361V107.361ZM94.3564 89.3388C84.6967 100.387 70.5043 107.361 54.6807 107.361V111.361C71.7065 111.361 86.9808 103.852 97.3678 91.9716L94.3564 89.3388ZM97.4449 89.377C97.3687 89.3196 97.2972 89.2592 97.2301 89.1963L94.494 92.1141C94.665 92.2745 94.8458 92.4269 95.0361 92.5704L97.4449 89.377ZM122.884 108.564L97.4448 89.377L95.0362 92.5705L120.476 111.758L122.884 108.564ZM126.482 108.06C125.628 109.193 124.017 109.419 122.884 108.564L120.476 111.758C123.372 113.942 127.491 113.365 129.675 110.469L126.482 108.06ZM125.978 104.463C127.111 105.317 127.336 106.928 126.482 108.06L129.675 110.469C131.86 107.573 131.283 103.454 128.387 101.269L125.978 104.463ZM100.538 85.2754L125.978 104.463L128.387 101.269L102.947 82.0819L100.538 85.2754ZM100.259 85.0914C100.354 85.1456 100.447 85.2068 100.538 85.2754L102.947 82.0819C102.719 81.9101 102.483 81.7549 102.24 81.6165L100.259 85.0914Z" fill="white" mask="url(#path-10-inside-5_1929_70634)"/>
<circle cx="54.6813" cy="54.6807" r="50.0353" stroke="white" stroke-width="2"/>
</svg>
