<svg xmlns="http://www.w3.org/2000/svg" xml:space="preserve" width="40px" height="40px" version="1.1"
     style="shape-rendering:geometricPrecision; text-rendering:geometricPrecision; image-rendering:optimizeQuality; fill-rule:evenodd; clip-rule:evenodd"
     viewBox="0 0 0.75 0.75"
>
 <defs>
  <style type="text/css">
   <![CDATA[
    .fil1 {fill:none;fill-rule:nonzero}
    .fil0 {fill:#B55A6E;fill-rule:nonzero}
   ]]>
  </style>
 </defs>
 <g id="Слой_x0020_1">
  <metadata id="CorelCorpID_0Corel-Layer"/>
  <g id="_2478458780000">
   <path class="fil0" d="M0.43 0.13l0.03 0c0.01,0 0.02,0 0.03,0.01l0 0c0.01,0.01 0.01,0.02 0.01,0.03l0 0.41c0,0.01 0,0.02 -0.01,0.03l0 0c-0.01,0.01 -0.02,0.01 -0.03,0.01l-0.32 0c-0.01,0 -0.02,0 -0.03,-0.01l0 0c-0.01,-0.01 -0.02,-0.02 -0.02,-0.03l0 -0.41c0,-0.01 0.01,-0.02 0.02,-0.03l0 0c0.01,-0.01 0.02,-0.01 0.03,-0.01l0.03 0 0 -0.01c0,-0.01 0.01,-0.02 0.01,-0.02 0.09,0 0.15,0 0.23,0 0.01,0 0.02,0.01 0.02,0.02l0 0.01 0 0 0 0zm-0.27 0.21l0 -0.01 0.11 0 0 0.01 -0.11 0zm0.18 0.1l0 0.02 -0.01 0 0 0.07 0.08 0 0 -0.02 0.02 0 0 0.03c0,0.01 -0.01,0.01 -0.01,0.01l-0.1 0c-0.01,0 -0.01,0 -0.01,-0.01l0 -0.09c0,0 0,-0.01 0.01,-0.01l0.02 0 0 0 0 0zm0.02 -0.03l0.02 0 0 0.06 0.04 -0.04 0.01 0.01 -0.05 0.07c-0.01,0 -0.01,0 -0.01,0 -0.01,0 -0.01,0 -0.01,0l0 -0.1 0 0 0 0zm-0.01 -0.14l0 0.02 -0.02 0 0 0.07 0.09 0 0 -0.02 0.01 0 0 0.03c0,0.01 0,0.01 0,0.01l-0.11 0c0,0 0,0 0,-0.01l0 -0.09c0,0 0,-0.01 0,-0.01l0.03 0 0 0zm0.02 -0.03l0.02 0 0 0.06 0.04 -0.04 0.01 0.01 -0.06 0.07 0 0c0,0 0,0.01 -0.01,0.01 0,0 0,-0.01 0,-0.01l0 -0.1 0 0 0 0zm-0.21 0.27l0 -0.02 0.11 0 0 0.02 -0.11 0zm0.43 -0.29l0.02 0c0.01,0 0.02,0 0.03,0 0.01,0.01 0.01,0.02 0.01,0.03l0 0.02 0 0.03 0 0.16 -0.05 0.07 -0.04 -0.07 0 -0.16 0 -0.03 0 -0.02c0,-0.01 0,-0.02 0.01,-0.03 0.01,0 0.01,0 0.02,0l0 0zm-0.01 0.05l0.05 0 0 -0.03 -0.05 0 0 0.03zm0.05 0.03l-0.05 0 0 0.16 0.02 0.03 0.03 -0.03 0 -0.16 0 0 0 0zm-0.46 -0.15l-0.03 0c-0.01,0 -0.01,0 -0.02,0.01l0 0c0,0 0,0.01 0,0.01l0 0.41c0,0 0,0.01 0,0.01l0 0c0.01,0 0.01,0.01 0.02,0.01l0.32 0c0,0 0.01,-0.01 0.01,-0.01l0 0c0.01,0 0.01,-0.01 0.01,-0.01l0 -0.41c0,0 0,-0.01 -0.01,-0.01l0 0c0,-0.01 -0.01,-0.01 -0.01,-0.01l-0.04 0 0 0.05c0,0.01 0,0.01 -0.01,0.01l-0.23 0c0,0 -0.01,0 -0.01,-0.01l0 -0.05 0 0 0 0zm0.03 -0.02l0 0.01 0 0.05 0.2 0 0 -0.06c-0.1,0 -0.11,0 -0.2,0l0 0 0 0z"/>
   <rect class="fil1" width="0.75" height="0.75"/>
  </g>
 </g>
</svg>
