<svg xmlns="http://www.w3.org/2000/svg" xml:space="preserve" width="40px" height="40px" version="1.1"
     style="shape-rendering:geometricPrecision; text-rendering:geometricPrecision; image-rendering:optimizeQuality; fill-rule:evenodd; clip-rule:evenodd"
     viewBox="0 0 0.78 0.78"
>
 <defs>
  <style type="text/css">
   <![CDATA[
    .str0 {stroke:#A5616C;stroke-width:0.03;stroke-miterlimit:22.9256}
    .fil0 {fill:none}
    .fil1 {fill:#A5616C;fill-rule:nonzero}
   ]]>
  </style>
 </defs>
 <g id="Слой_x0020_1">
  <metadata id="CorelCorpID_0Corel-Layer"/>
  <g id="_2478466930224">
   <rect class="fil0" width="0.78" height="0.78"/>
   <g id="_2672506024928">
    <path class="fil0 str0" d="M0.14 0.18l0 0.36c0,0.01 0.01,0.02 0.03,0.01 0.05,-0.03 0.12,-0.03 0.17,-0.02 0.01,0.01 0.01,0.01 0.02,0.01 0.02,0.01 0.02,0.03 0.04,0.01 0.01,0 0.01,0 0.01,0 0.01,-0.01 0.02,-0.01 0.03,-0.01 0.05,-0.02 0.11,-0.02 0.15,0.01 0.01,0 0.02,0.01 0.03,0.01 0.01,0 0.01,-0.01 0.01,-0.02l0 -0.36c0,-0.01 0,-0.01 0,-0.01 -0.01,-0.01 -0.02,-0.02 -0.03,-0.02 -0.02,-0.01 -0.03,-0.01 -0.06,-0.02 0,0 -0.01,0 -0.02,0 -0.03,0 -0.07,0 -0.11,0.02 0,0 0,0 -0.01,0 -0.02,0.01 0,0.01 -0.04,0 -0.07,-0.03 -0.14,-0.03 -0.21,0.01 0,0.01 -0.01,0.01 -0.01,0.02l0 0z"/>
    <g>
     <polygon class="fil1" points="0.37,0.56 0.37,0.16 0.41,0.16 0.41,0.56 "/>
    </g>
    <g>
     <path class="fil1" d="M0.06 0.26c0,-0.01 0.01,-0.02 0.02,-0.02 0,0 0.01,0.01 0.01,0.02l-0.03 0 0 0zm0 0.4l0 -0.4 0.03 0 0 0.4 -0.02 0.01 -0.01 -0.01 0 0zm0.03 0c0,0 -0.01,0.01 -0.02,0.01 0,0 -0.01,-0.01 -0.01,-0.01l0.03 0 0 0zm0.61 0.01l-0.63 0 0 -0.03 0.63 0 0.02 0.02 -0.02 0.01 0 0zm0 -0.03c0.01,0 0.02,0.01 0.02,0.02 0,0 -0.01,0.01 -0.02,0.01l0 -0.03 0 0zm0.02 -0.38l0 0.4 -0.03 0 0 -0.4 0.03 0zm-0.03 0c0,-0.01 0,-0.02 0.01,-0.02 0.01,0 0.02,0.01 0.02,0.02l-0.03 0 0 0z"/>
    </g>
    <g>
     <path class="fil1" d="M0.45 0.27c-0.01,0 -0.01,0 -0.01,-0.01 0,-0.01 0,-0.02 0.01,-0.02l0 0.03 0 0zm0.12 0l-0.12 0 0 -0.03 0.12 0 0 0.03zm0 -0.03c0.01,0 0.02,0.01 0.02,0.02 0,0.01 -0.01,0.01 -0.02,0.01l0 -0.03 0 0z"/>
    </g>
    <g>
     <path class="fil1" d="M0.45 0.34c-0.01,0 -0.01,0 -0.01,-0.01 0,-0.01 0,-0.02 0.01,-0.02l0 0.03 0 0zm0.12 0l-0.12 0 0 -0.03 0.12 0 0 0.03zm0 -0.03c0.01,0 0.02,0.01 0.02,0.02 0,0.01 -0.01,0.01 -0.02,0.01l0 -0.03 0 0z"/>
    </g>
    <g>
     <path class="fil1" d="M0.45 0.41c-0.01,0 -0.01,0 -0.01,-0.01 0,-0.01 0,-0.02 0.01,-0.02l0 0.03 0 0zm0.12 0l-0.12 0 0 -0.03 0.12 0 0 0.03zm0 -0.03c0.01,0 0.02,0.01 0.02,0.02 0,0.01 -0.01,0.01 -0.02,0.01l0 -0.03 0 0z"/>
    </g>
   </g>
  </g>
 </g>
</svg>
