<svg xmlns="http://www.w3.org/2000/svg" xml:space="preserve" width="40px" height="40px" version="1.1"
     style="shape-rendering:geometricPrecision; text-rendering:geometricPrecision; image-rendering:optimizeQuality; fill-rule:evenodd; clip-rule:evenodd"
     viewBox="0 0 0.68 0.68"
>
 <defs>
  <style type="text/css">
   <![CDATA[
    .fil1 {fill:none;fill-rule:nonzero}
    .fil0 {fill:#B55A6E;fill-rule:nonzero}
   ]]>
  </style>
 </defs>
 <g id="Слой_x0020_1">
  <metadata id="CorelCorpID_0Corel-Layer"/>
  <g id="_2478464923024">
   <path class="fil0" d="M0.27 0.26l0.13 0 0 0.02 -0.13 0 0 -0.02zm0.11 -0.17l0.16 0.09c0.01,0.01 0.02,0.02 0.02,0.03l0 0c0.01,0.01 0.01,0.02 0.01,0.04l0 0.18c0,0.02 0,0.03 -0.01,0.04l0 0c0,0.01 -0.01,0.02 -0.02,0.03l-0.16 0.09 0 0c-0.02,0.01 -0.03,0.01 -0.04,0.01 -0.01,0 -0.03,0 -0.04,-0.01l0 0 -0.16 -0.09c-0.01,-0.01 -0.02,-0.02 -0.02,-0.03l0 0c-0.01,-0.01 -0.01,-0.02 -0.01,-0.04l0 -0.18c0,-0.02 0,-0.03 0.01,-0.04l0 0c0,-0.01 0.01,-0.02 0.02,-0.03l0.16 -0.09 0 0c0.01,-0.01 0.03,-0.01 0.04,-0.01 0.01,0 0.02,0 0.04,0.01l0 0zm0.14 0.12l-0.16 -0.09c-0.01,-0.01 -0.01,-0.01 -0.02,-0.01 -0.01,0 -0.02,0 -0.02,0.01l-0.16 0.09 0 0c-0.01,0 -0.02,0.01 -0.02,0.01l0 0c0,0.01 -0.01,0.02 -0.01,0.03l0 0.18c0,0.01 0.01,0.02 0.01,0.02l0 0c0,0.01 0.01,0.02 0.02,0.02l0 0 0.16 0.09c0,0.01 0.01,0.01 0.02,0.01 0.01,0 0.01,0 0.02,-0.01l0.16 -0.09 0 0c0.01,0 0.01,-0.01 0.02,-0.02l0 0c0,0 0,-0.01 0,-0.02l0 -0.18c0,-0.01 0,-0.02 0,-0.03l0 0c-0.01,0 -0.01,-0.01 -0.02,-0.01l0 0zm-0.28 0l0.21 0 0 0.26 -0.22 0 0 -0.26 0.01 0 0 0zm0.18 0.02l-0.17 0 0 0.22 0.17 0 0 -0.22zm-0.05 0.13c0.01,0 0.02,0.01 0.03,0.01 0,0.01 0.01,0.01 0.01,0.02 0,0.01 -0.01,0.02 -0.01,0.03 -0.01,0 -0.02,0.01 -0.03,0.01 -0.01,0 -0.01,-0.01 -0.02,-0.01 -0.01,-0.01 -0.01,-0.02 -0.01,-0.03 0,-0.01 0,-0.01 0.01,-0.02 0.01,0 0.01,-0.01 0.02,-0.01zm0.01 0.03c0,0 0,0 -0.01,0 0,0 0,0 0,0 0,0 -0.01,0 -0.01,0 0,0.01 0.01,0.01 0.01,0.01 0,0 0,0 0,0 0.01,0 0.01,0 0.01,0 0,0 0,0 0,-0.01 0,0 0,0 0,0zm-0.11 -0.09l0.14 0 0 0.02 -0.14 0 0 -0.02z"/>
   <rect class="fil1" width="0.68" height="0.68"/>
  </g>
 </g>
</svg>
