<svg xmlns="http://www.w3.org/2000/svg" xml:space="preserve" width="40px" height="40px" version="1.1"
     style="shape-rendering:geometricPrecision; text-rendering:geometricPrecision; image-rendering:optimizeQuality; fill-rule:evenodd; clip-rule:evenodd"
     viewBox="0 0 1.3 1.3"
>
 <defs>
  <style type="text/css">
   <![CDATA[
    .fil1 {fill:none}
    .fil0 {fill:#B55A6E}
   ]]>
  </style>
 </defs>
 <g id="Слой_x0020_1">
  <metadata id="CorelCorpID_0Corel-Layer"/>
  <path class="fil0" d="M0.71 0.95l-0.56 0 0 -0.69 1 0 0 0.69 -0.07 0 0 -0.06 0.02 0 0 -0.57 -0.9 0 0 0.57 0.51 0 0 0.06zm-0.36 -0.43c0,-0.02 0.02,-0.04 0.02,-0.02l0.11 0.24 0.13 0.04c0.08,-0.11 0.08,-0.11 0.17,-0.11l0.17 0c0.04,0 0.07,0.04 0.07,0.07l0 0.21c0,0.02 -0.05,0.02 -0.05,0l0 -0.21c0,-0.01 -0.02,-0.01 -0.04,-0.01l0 0.44c0,0.04 -0.06,0.04 -0.06,0l0 -0.22 -0.03 0 0 -0.08 0.03 0 0 -0.13 -0.05 0 0 0.13 0.02 0 0 0.08 -0.02 0 0 0.22c0,0.04 -0.06,0.04 -0.06,0l0 -0.44c-0.02,0 -0.03,0 -0.05,0.01l-0.08 0.1c-0.01,0.01 -0.14,-0.03 -0.17,-0.04 -0.01,0 -0.01,-0.02 -0.01,-0.04l-0.1 -0.24 0 0zm0.49 -0.04l0 -0.05c-0.06,0 -0.1,0.03 -0.1,0.11 0,0.05 0.04,0.09 0.1,0.09 0.05,0 0.11,-0.04 0.11,-0.09 0,-0.06 -0.04,-0.11 -0.11,-0.11l0 0.05c0.03,0 0.05,0.02 0.05,0.06 0,0.02 -0.02,0.04 -0.05,0.04 -0.08,0 -0.07,-0.1 0,-0.1z"/>
  <rect class="fil1" width="1.3" height="1.3"/>
 </g>
</svg>
