<svg xmlns="http://www.w3.org/2000/svg" xml:space="preserve" width="40px" height="40px" version="1.1"
     style="shape-rendering:geometricPrecision; text-rendering:geometricPrecision; image-rendering:optimizeQuality; fill-rule:evenodd; clip-rule:evenodd"
     viewBox="0 0 0.89 0.89"
>
 <defs>
  <style type="text/css">
   <![CDATA[
    .fil1 {fill:none;fill-rule:nonzero}
    .fil0 {fill:#B55A6E;fill-rule:nonzero}
   ]]>
  </style>
 </defs>
 <g id="Слой_x0020_1">
  <metadata id="CorelCorpID_0Corel-Layer"/>
  <path class="fil0" d="M0.35 0.13l0.19 0c0.02,0 0.02,0.01 0.02,0.02l0 0.18 0.19 0c0.01,0 0.02,0.01 0.02,0.02l0 0.19c0,0.02 -0.01,0.02 -0.02,0.02l-0.19 0 0 0.19c0,0.01 0,0.02 -0.02,0.02l-0.19 0c-0.01,0 -0.02,-0.01 -0.02,-0.02l0 -0.19 -0.18 0c-0.01,0 -0.02,0 -0.02,-0.02l0 -0.19c0,-0.01 0.01,-0.02 0.02,-0.02l0.18 0 0 -0.18c0,-0.01 0.01,-0.02 0.02,-0.02zm0.17 0.04l-0.15 0 0 0.18c0,0.01 -0.01,0.02 -0.02,0.02l-0.18 0 0 0.15 0.18 0c0.01,0 0.02,0.01 0.02,0.02l0 0.19 0.15 0 0 -0.19c0,-0.01 0.01,-0.02 0.02,-0.02l0.19 0 0 -0.15 -0.19 0c-0.01,0 -0.02,-0.01 -0.02,-0.02l0 -0.18z"/>
  <rect class="fil1" width="0.89" height="0.89"/>
 </g>
</svg>
