<svg xmlns="http://www.w3.org/2000/svg" xml:space="preserve" width="40px" height="40px" version="1.1"
     style="shape-rendering:geometricPrecision; text-rendering:geometricPrecision; image-rendering:optimizeQuality; fill-rule:evenodd; clip-rule:evenodd"
     viewBox="0 0 0.97 0.97"
>
 <defs>
  <style type="text/css">
   <![CDATA[
    .fil1 {fill:none}
    .fil0 {fill:#B55A6E}
   ]]>
  </style>
 </defs>
 <g id="Слой_x0020_1">
  <metadata id="CorelCorpID_0Corel-Layer"/>
  <g id="_2478739849264">
   <path class="fil0" d="M0.57 0.37c0,-0.07 0.03,-0.12 0.1,-0.08 0.14,0.07 0.18,0.31 0.15,0.47 -0.01,0.01 -0.04,-0.01 -0.05,-0.02 -0.09,-0.02 -0.17,0.01 -0.2,-0.03 -0.01,-0.03 -0.01,-0.26 -0.01,-0.3 0.04,0.01 0.03,0.02 0.03,0.06 0.01,0.03 0.01,0.07 0.02,0.08l0.02 0c0,-0.03 -0.01,-0.08 -0.01,-0.11 0.04,0.02 0.1,0.08 0.11,0.04 0.01,-0.02 -0.08,-0.05 -0.1,-0.07 0.01,-0.01 0.04,-0.02 0.06,-0.03 0.03,-0.02 0.02,-0.04 -0.01,-0.03 -0.06,0.03 -0.07,0.06 -0.11,0.02l0 0 0 0zm-0.05 -0.04l-0.01 -0.17 -0.05 0 0 0.17c0,0.01 0,0.01 -0.01,0.02 -0.02,-0.04 -0.02,-0.13 -0.11,-0.12 -0.06,0.01 -0.12,0.06 -0.14,0.09 -0.07,0.09 -0.1,0.22 -0.09,0.36 0,0.03 0,0.07 0.01,0.1 0.01,0.04 0.03,0.04 0.06,0.02 0.08,-0.04 0.12,-0.02 0.2,-0.03 0.07,-0.02 0.07,-0.08 0.07,-0.16 0,-0.07 0,-0.16 0,-0.23 0.04,-0.03 0.04,-0.01 0.07,0 0,0.08 0,0.15 0,0.23 0,0.07 0,0.14 0.07,0.16 0.08,0.01 0.12,-0.01 0.19,0.03 0.08,0.04 0.08,-0.01 0.09,-0.12 0,-0.14 -0.03,-0.27 -0.1,-0.35 -0.07,-0.09 -0.2,-0.16 -0.24,0l-0.01 0.02c0,-0.01 0,-0.01 0,-0.02l0 0 0 0zm-0.18 0.08l-0.06 0.04c-0.02,0.01 -0.04,0.02 -0.04,0.04 0.03,0.01 0.08,-0.03 0.11,-0.05 0,0.03 -0.02,0.09 0,0.11 0.03,0.01 0.03,-0.04 0.03,-0.07 0,-0.04 0,-0.06 0.03,-0.07l0 0.2c0,0.04 0,0.1 -0.03,0.11 -0.04,0.02 -0.12,0 -0.18,0.02 -0.01,0.01 -0.03,0.02 -0.04,0.02l-0.02 -0.14c0.01,-0.12 0.04,-0.2 0.09,-0.27 0.04,-0.06 0.17,-0.15 0.18,0.02 -0.02,0.02 -0.03,0.03 -0.06,0.01 -0.01,-0.01 -0.04,-0.02 -0.05,-0.03 -0.04,-0.01 -0.04,0.01 -0.02,0.03 0.02,0.01 0.04,0.02 0.06,0.03l0 0 0 0z"/>
   <rect class="fil1" width="0.97" height="0.97"/>
  </g>
 </g>
</svg>
