<svg xmlns="http://www.w3.org/2000/svg" xml:space="preserve" width="40px" height="40px" version="1.1"
     style="shape-rendering:geometricPrecision; text-rendering:geometricPrecision; image-rendering:optimizeQuality; fill-rule:evenodd; clip-rule:evenodd"
     viewBox="0 0 0.84 0.84"
>
 <defs>
  <style type="text/css">
   <![CDATA[
    .fil1 {fill:none}
    .fil0 {fill:#B55A6E}
   ]]>
  </style>
 </defs>
 <g id="Слой_x0020_1">
  <metadata id="CorelCorpID_0Corel-Layer"/>
  <g id="_2478739855056">
   <path class="fil0" d="M0.57 0.43c0,0.01 0.01,0.02 0.01,0.02 0,0.01 0,0.01 0,0.02 0,0.01 0,0.02 0,0.03l0 0 0 0c-0.01,0.01 -0.02,0.02 -0.03,0.03 0,0 0.01,0 0.01,0 0,0.01 0,0.01 0,0.01 0.01,0.02 0.01,0.03 0,0.05 0,0.01 -0.01,0.02 -0.02,0.03l0 0 0 0 0 0c-0.01,0.01 -0.03,0.01 -0.04,0.01l0 0 0 0 -0.19 0c-0.04,0 -0.08,-0.01 -0.12,-0.03 -0.03,-0.02 -0.05,-0.05 -0.07,-0.09 -0.01,-0.04 -0.01,-0.09 -0.01,-0.13 0,-0.01 0,-0.02 0,-0.03 0,-0.08 0.06,-0.13 0.12,-0.15 0.02,-0.01 0.04,-0.01 0.06,-0.01 0.01,0 0.03,0 0.05,0 0.02,0.01 0.04,0.02 0.05,0.04l0.26 0 0.01 0c0.01,0 0.02,0 0.04,0 0.01,0.01 0.02,0.02 0.03,0.03 0,0.01 0,0.02 0,0.02 0,0.01 0,0.02 0,0.03 -0.01,0.01 -0.02,0.02 -0.03,0.03l0 0c-0.02,0.01 -0.03,0.01 -0.05,0.01l0 0 -0.05 0c0,0 0,0 0,0 0,0.01 0.01,0.02 0.01,0.03 0,0.01 -0.01,0.02 -0.01,0.03 -0.01,0.01 -0.01,0.02 -0.02,0.02 -0.01,0 -0.01,0 -0.01,0l0 0 0 0zm-0.14 0.02l0.08 0c0.01,0 0.02,0 0.02,0 0.01,0 0.01,0.01 0.02,0.01 0,0.02 -0.01,0.03 -0.02,0.03l-0.1 0 0 0.05c0.01,0 0.04,0 0.06,0 0.02,0 0.03,0 0.04,0.01 0,0.01 0,0.03 -0.01,0.03 -0.01,0.01 -0.01,0.01 -0.02,0.01l-0.19 0c-0.07,0 -0.13,-0.03 -0.15,-0.09 -0.02,-0.04 -0.01,-0.1 -0.01,-0.15 0,-0.14 0.21,-0.16 0.21,-0.09l0.29 0c0.01,0 0.02,0 0.03,0 0.02,0.01 0.02,0.04 0,0.05 -0.01,0 -0.02,0 -0.03,0l-0.22 0 0 0.04c0.01,0 0.08,0 0.1,0 0.01,0 0.02,0 0.03,0.01 0.01,0 0.02,0.03 0,0.04 -0.01,0 -0.02,0 -0.03,0l-0.1 0 0 0.05 0 0 0 0z"/>
   <rect class="fil1" width="0.84" height="0.84"/>
  </g>
 </g>
</svg>
