<svg xmlns="http://www.w3.org/2000/svg" xml:space="preserve" width="40px" height="40px" version="1.1"
     style="shape-rendering:geometricPrecision; text-rendering:geometricPrecision; image-rendering:optimizeQuality; fill-rule:evenodd; clip-rule:evenodd"
     viewBox="0 0 1.03 1.03"
>
 <defs>
  <style type="text/css">
   <![CDATA[
    .fil1 {fill:none;fill-rule:nonzero}
    .fil0 {fill:#B55A6E;fill-rule:nonzero}
   ]]>
  </style>
 </defs>
 <g id="Слой_x0020_1">
  <metadata id="CorelCorpID_0Corel-Layer"/>
  <g id="_2479641907408">
   <path class="fil0" d="M0.12 0.72l0.8 0 0 -0.01 -0.04 -0.02c0,-0.01 -0.01,-0.02 -0.01,-0.02 0,-0.09 -0.02,-0.17 -0.07,-0.23 -0.04,-0.05 -0.1,-0.1 -0.17,-0.12l0 0.12c0,0 0,0 0,0 0.03,0.03 0.04,0.07 0.04,0.11 0,0.04 -0.02,0.08 -0.04,0.11 -0.03,0.02 -0.07,0.04 -0.11,0.04 -0.05,0 -0.09,-0.02 -0.11,-0.04 -0.03,-0.03 -0.05,-0.07 -0.05,-0.11 0,-0.04 0.02,-0.08 0.04,-0.11 0,0 0,0 0,0l0 -0.12c-0.07,0.02 -0.13,0.07 -0.17,0.12 -0.05,0.06 -0.07,0.14 -0.07,0.23 0,0.01 -0.01,0.01 -0.01,0.02l-0.04 0.02 0 0.01 0 0 0.01 0zm0.47 -0.31l0 -0.12 -0.14 0 0 0.12c0.02,-0.01 0.04,-0.02 0.07,-0.02 0.02,0 0.05,0.01 0.07,0.02l0 0 0 0zm0 0.06c-0.02,-0.02 -0.04,-0.03 -0.07,-0.03 -0.03,0 -0.06,0.01 -0.08,0.03 -0.02,0.02 -0.03,0.05 -0.03,0.08 0,0.03 0.01,0.05 0.03,0.07 0.02,0.02 0.05,0.03 0.08,0.03 0.03,0 0.05,-0.01 0.07,-0.03 0.02,-0.02 0.04,-0.04 0.04,-0.07 0,-0.03 -0.02,-0.06 -0.04,-0.08l0 0zm0.35 0.3l-0.85 0c-0.01,0 -0.02,-0.01 -0.02,-0.02l0 -0.06 0 0c0,-0.01 0,-0.01 0.01,-0.02l0.03 -0.02c0.01,-0.09 0.04,-0.17 0.09,-0.24 0.05,-0.06 0.12,-0.11 0.2,-0.14 0.01,0 0.01,-0.01 0.01,-0.01l0 0c0.01,-0.01 0.02,-0.01 0.03,-0.01l0.15 0c0.01,0 0.02,0 0.03,0.01l0 0c0,0 0.01,0.01 0.01,0.01 0.08,0.03 0.16,0.08 0.21,0.14 0.05,0.07 0.08,0.15 0.08,0.24l0.03 0.02c0.01,0 0.01,0.01 0.01,0.02l0 0.06c0,0.01 -0.01,0.02 -0.02,0.02l0 0 0 0z"/>
   <rect class="fil1" width="1.03" height="1.03"/>
  </g>
 </g>
</svg>
