<svg xmlns="http://www.w3.org/2000/svg" xml:space="preserve" width="40px" height="40px" version="1.1"
     style="shape-rendering:geometricPrecision; text-rendering:geometricPrecision; image-rendering:optimizeQuality; fill-rule:evenodd; clip-rule:evenodd"
     viewBox="0 0 1.01 1.01"
>
 <defs>
  <style type="text/css">
   <![CDATA[
    .fil1 {fill:none;fill-rule:nonzero}
    .fil0 {fill:#B55A6E;fill-rule:nonzero}
   ]]>
  </style>
 </defs>
 <g id="Слой_x0020_1">
  <metadata id="CorelCorpID_0Corel-Layer"/>
  <g id="_2478744120656">
   <path class="fil0" d="M0.59 0.19c0.01,0 0.02,0.01 0.02,0.02 0,0.01 -0.01,0.02 -0.02,0.02l-0.37 0 0 0.57 0.46 0 0 -0.2c0,-0.01 0,-0.02 0.01,-0.02 0.02,0 0.02,0.01 0.02,0.02l0 0.22c0,0.01 -0.01,0.02 -0.02,0.02l-0.49 0c-0.01,0 -0.02,-0.01 -0.02,-0.02l0 -0.61c0,-0.01 0.01,-0.02 0.02,-0.02l0.39 0 0 0 0 0zm-0.27 0.51c-0.02,0 -0.02,-0.01 -0.02,-0.02 0,-0.01 0.01,-0.02 0.02,-0.02l0.26 0c0.01,0 0.02,0.01 0.02,0.02 0,0.01 -0.01,0.02 -0.02,0.02l-0.26 0zm0 -0.32c-0.02,0 -0.02,-0.01 -0.02,-0.02 0,-0.01 0.01,-0.01 0.02,-0.01l0.22 0c0.01,0 0.02,0 0.02,0.01 0,0.02 -0.01,0.02 -0.02,0.02l-0.22 0zm0 0.16c-0.02,0 -0.02,-0.01 -0.02,-0.02 0,-0.01 0.01,-0.02 0.02,-0.02l0.21 0c0.01,0 0.02,0.01 0.02,0.02 0,0.02 -0.01,0.02 -0.02,0.02l-0.21 0zm0.42 -0.39c0.01,-0.02 0.02,-0.03 0.03,-0.03 0.01,0 0.02,0 0.03,0 0.01,0 0.01,0.01 0.02,0.02 0.01,0.01 0.01,0.03 0.01,0.05l0 0 -0.05 0.17c0,0 0,0 0,0l-0.11 0.18c0,0.01 -0.01,0.01 -0.02,0.01l0 0 0 0 -0.03 0.04c0,0.01 -0.01,0.02 -0.02,0.01 -0.01,0 -0.02,-0.01 -0.01,-0.02l0.01 -0.05 0 0c-0.01,-0.01 -0.01,-0.02 -0.01,-0.03l0.05 -0.19c0,-0.01 0,-0.01 0.01,-0.01l0.09 -0.15 0 0 0 0zm0.04 0.01c0,0 -0.01,0 -0.01,0.01l-0.09 0.15 -0.05 0.18 0.01 0 0 0c0,0 0,0 0,0 0,0 0,0 0,0l0.01 0 0.09 -0.16 0.05 -0.16c0,-0.01 0,-0.02 0,-0.02 0,0 0,0 0,0 0,0 0,0 0,0l0 0 -0.01 0z"/>
   <rect class="fil1" width="1.01" height="1.01"/>
  </g>
 </g>
</svg>
