<svg xmlns="http://www.w3.org/2000/svg" xml:space="preserve" width="145px" height="145px" version="1.1"
     style="shape-rendering:geometricPrecision; text-rendering:geometricPrecision; image-rendering:optimizeQuality; fill-rule:evenodd; clip-rule:evenodd"
     viewBox="0 0 0.7 0.7"
>
 <defs>
  <style type="text/css">
   <![CDATA[
    .fil1 {fill:none}
    .fil0 {fill:#B55A6E}
   ]]>
  </style>
 </defs>
 <g id="Слой_x0020_1">
  <metadata id="CorelCorpID_0Corel-Layer"/>
  <path class="fil0" d="M0.38 0.51l-0.3 0 0 -0.37 0.54 0 0 0.37 -0.04 0 0 -0.03 0.01 0 0 -0.31 -0.48 0 0 0.31 0.27 0 0 0.03zm-0.19 -0.23c0,-0.01 0.01,-0.02 0.01,-0.01l0.06 0.13 0.07 0.02c0.04,-0.06 0.04,-0.06 0.09,-0.06l0.09 0c0.02,0 0.04,0.02 0.04,0.04l0 0.11c0,0.01 -0.03,0.01 -0.03,0l0 -0.11c0,-0.01 -0.01,-0.01 -0.02,-0.01l0 0.24c0,0.02 -0.03,0.02 -0.03,0l0 -0.12 -0.02 0 0 -0.04 0.02 0 0 -0.07 -0.04 0 0 0.07 0.02 0 0 0.04 -0.02 0 0 0.12c0,0.02 -0.02,0.02 -0.02,0l0 -0.24c-0.01,0 -0.02,0 -0.03,0.01l-0.04 0.05c0,0 -0.01,0.01 -0.01,0l-0.08 -0.02c-0.01,0 -0.01,-0.01 -0.01,-0.02l-0.05 -0.13zm0.26 -0.02l0 -0.03c-0.03,0 -0.05,0.02 -0.05,0.06 0,0.03 0.02,0.05 0.05,0.05 0.03,0 0.06,-0.02 0.06,-0.05 0,-0.03 -0.02,-0.06 -0.06,-0.06l0 0.03c0.02,0 0.03,0.01 0.03,0.03 0,0.01 -0.01,0.02 -0.03,0.02 -0.01,0 -0.03,-0.01 -0.03,-0.02 0,-0.02 0.02,-0.03 0.03,-0.03z"/>
  <rect class="fil1" width="0.7" height="0.7"/>
 </g>
</svg>
