<svg xmlns="http://www.w3.org/2000/svg" xml:space="preserve" width="23mm" height="23mm" version="1.1"
     style="shape-rendering:geometricPrecision; text-rendering:geometricPrecision; image-rendering:optimizeQuality; fill-rule:evenodd; clip-rule:evenodd"
     viewBox="0 0 14.59 14.59"
>
 <defs>
  <style type="text/css">
   <![CDATA[
    .fil1 {fill:none}
    .fil0 {fill:#B55A6E;fill-rule:nonzero}
   ]]>
  </style>
 </defs>
 <g id="Слой_x0020_1">
  <metadata id="CorelCorpID_0Corel-Layer"/>
  <path class="fil0" d="M8.57 2.79c0.16,0 0.28,0.13 0.28,0.28 0,0.16 -0.13,0.28 -0.28,0.28l-5.38 0 0 8.21 6.57 0 0 -2.85c0,-0.16 0.13,-0.28 0.28,-0.28 0.16,0 0.28,0.13 0.28,0.28l0 3.13c0,0.16 -0.13,0.28 -0.28,0.28l-7.13 0c-0.16,0 -0.28,-0.13 -0.28,-0.28l0 -8.77c0,-0.16 0.13,-0.28 0.28,-0.28l5.66 0 -0 0zm-4.01 7.37c-0.16,0 -0.28,-0.13 -0.28,-0.28 0,-0.16 0.13,-0.28 0.28,-0.28l3.84 0c0.16,0 0.28,0.13 0.28,0.28 0,0.16 -0.13,0.28 -0.28,0.28l-3.84 0zm0 -4.61c-0.16,0 -0.28,-0.13 -0.28,-0.28 0,-0.16 0.13,-0.28 0.28,-0.28l3.27 0c0.16,0 0.28,0.13 0.28,0.28 0,0.16 -0.13,0.28 -0.28,0.28l-3.27 0zm0 2.31c-0.16,0 -0.28,-0.13 -0.28,-0.28 0,-0.16 0.13,-0.28 0.28,-0.28l3.15 0c0.16,0 0.28,0.13 0.28,0.28 0,0.16 -0.13,0.28 -0.28,0.28l-3.15 0zm6.09 -5.69c0.17,-0.25 0.36,-0.39 0.55,-0.44 0.13,-0.03 0.26,-0.02 0.37,0.02 0.11,0.05 0.21,0.13 0.28,0.24 0.1,0.17 0.15,0.4 0.09,0.69l-0 0.02 -0.65 2.45c-0.01,0.03 -0.02,0.06 -0.04,0.08l-1.5 2.56c-0.07,0.12 -0.22,0.17 -0.34,0.12l-0 0 -0.07 -0.03 -0.35 0.68c-0.07,0.14 -0.24,0.19 -0.38,0.12 -0.13,-0.07 -0.18,-0.21 -0.14,-0.35l0.25 -0.69 -0.03 -0.01c-0.14,-0.05 -0.21,-0.2 -0.17,-0.34l0.78 -2.88c0.01,-0.03 0.02,-0.06 0.04,-0.09l1.31 -2.16 0 -0zm0.69 0.1c-0.06,0.02 -0.14,0.08 -0.22,0.21l-1.29 2.12 -0.7 2.6 0.05 0.02 -0 0c0.02,0.01 0.04,0.02 0.06,0.03 0.02,0 0.04,0.01 0.07,0.02l0.08 0.03 1.37 -2.33 0.64 -2.4c0.02,-0.13 0.01,-0.23 -0.02,-0.28 -0.01,-0.01 -0.01,-0.01 -0.01,-0.02 -0,-0 -0.01,0 -0.01,0l-0 -0z"/>
  <rect class="fil1" width="14.59" height="14.59"/>
 </g>
</svg>
