<svg width="45" height="45" viewBox="0 0 45 45" fill="none" xmlns="http://www.w3.org/2000/svg">
<path d="M22.5 0L41.9856 11.25V33.75L22.5 45L3.01443 33.75V11.25L22.5 0Z" fill="#56698F"/>
<g clip-path="url(#clip0)">
<path d="M16.0309 14.1907V13.48H25.8093V14.1907H16.0309V14.1907ZM14.0063 15.0738V14.9877L14.0279 14.923V14.8369L14.0494 14.7507L14.071 14.6861L14.114 14.6L14.1356 14.5354L14.1787 14.4492L14.2217 14.3846L14.2648 14.32L14.3079 14.2554L14.3725 14.1907L14.4156 14.1261L14.4802 14.0615L14.5448 13.9969L14.6094 13.9538L14.6956 13.8892L14.7602 13.8461L14.8248 13.8031L14.911 13.76L14.9971 13.7169L15.0833 13.6738L15.1694 13.6307L15.2556 13.6092L15.3417 13.5661L15.4279 13.5446L15.5356 13.5231L15.6217 13.5015L15.7294 13.48H15.8156H15.9233H16.0309V14.1907H15.9663H15.9017L15.8371 14.2123H15.7725L15.7079 14.2338H15.6433L15.6002 14.2554L15.5356 14.2769L15.4709 14.2984L15.4279 14.32L15.3633 14.3415L15.3202 14.363L15.2771 14.4061L15.234 14.4277L15.191 14.4492L15.1479 14.4923L15.1048 14.5138L15.0617 14.5569L15.0186 14.6L14.9971 14.6215L14.954 14.6646L14.9325 14.7077L14.911 14.7507L14.8894 14.7723L14.8679 14.8154L14.8463 14.8584L14.8248 14.9015V14.923L14.8033 14.9661V15.0092V15.0307V15.0738H14.0063H14.0063ZM14.8033 31.2706H14.0063V15.0738H14.8033V31.2706ZM16.0309 33.0367L15.9233 33.0152H15.8156H15.7294L15.6217 32.9936L15.5356 32.9721L15.4279 32.9506L15.3417 32.929L15.2556 32.886L15.1479 32.8644L15.0617 32.8213L14.9756 32.7783L14.911 32.7352L14.8248 32.6921L14.7386 32.6275L14.674 32.5844L14.6094 32.5198L14.5448 32.4552L14.4802 32.3906L14.4156 32.326L14.351 32.2613L14.3079 32.1967L14.2433 32.1106L14.2002 32.046L14.1571 31.9598L14.1356 31.8737L14.0925 31.7875L14.071 31.7013L14.0494 31.6152L14.0279 31.529L14.0063 31.4429V31.3567V31.2706H14.8033V31.3137V31.3783V31.4214L14.8248 31.4644L14.8463 31.529V31.5721L14.8679 31.6152L14.8894 31.6583L14.911 31.7229L14.954 31.766L14.9756 31.809L14.9971 31.8521L15.0402 31.8737L15.0617 31.9167L15.1048 31.9598L15.1479 32.0029L15.191 32.0244L15.234 32.0675L15.2771 32.089L15.3417 32.1321L15.3848 32.1537L15.4279 32.1752L15.4925 32.1967L15.5356 32.2183L15.6002 32.2398L15.6648 32.2613L15.7079 32.2829H15.7725L15.8371 32.3044H15.9017H15.9663H16.0309V33.0367V33.0367ZM29.0185 32.3044V33.0367H16.0309V32.3044H29.0185ZM30.8708 31.2706V31.3567L30.8493 31.4429V31.529L30.8277 31.6152L30.8062 31.7013L30.7846 31.7875L30.7416 31.8737L30.72 31.9598L30.677 32.0244L30.6339 32.1106L30.5908 32.1752L30.5262 32.2613L30.4831 32.326L30.4185 32.3906L30.3754 32.4552L30.3108 32.5198L30.2462 32.5629L30.1816 32.6275L30.0954 32.6706L30.0308 32.7136L29.9662 32.7783L29.88 32.7998L29.7939 32.8429L29.7293 32.886L29.6431 32.9075L29.557 32.9506L29.4708 32.9721L29.3847 32.9936L29.2985 33.0152H29.2124H29.1262L29.0185 33.0367V32.3044H29.0616H29.1047H29.1693L29.2124 32.2829H29.2554L29.2985 32.2613L29.3416 32.2398H29.3847L29.4277 32.2183L29.4708 32.1967L29.5354 32.1537L29.5785 32.1321L29.6216 32.1106L29.6647 32.0675L29.6862 32.046L29.7293 32.0029L29.7724 31.9813L29.8154 31.9383L29.837 31.8952L29.88 31.8521L29.9016 31.809L29.9231 31.766L29.9662 31.7229L29.9877 31.6798L30.0093 31.6152L30.0308 31.5721V31.529L30.0523 31.486V31.4214L30.0739 31.3783V31.3137V31.2706H30.8708V31.2706ZM30.0739 20.3507H30.8708V31.2706H30.0739V20.3507Z" fill="white"/>
<path d="M29.6001 11.0892C29.6001 11.6277 28.7816 11.6277 28.7816 11.0892V10.68C28.6955 10.7446 28.6093 10.8308 28.5232 10.8954C28.2647 11.1538 28.0709 11.4769 27.9847 11.8431H31.6247C31.5385 11.4769 31.3447 11.1538 31.0862 10.8954C31.0216 10.8308 30.9355 10.7446 30.8278 10.68V11.0892C30.8278 11.6277 30.0309 11.6277 30.0309 11.0892V10.3784C29.8801 10.3569 29.7293 10.3569 29.6001 10.3784V11.0892V11.0892ZM28.7816 9.75384C28.7816 9.4523 28.7386 9 29.1909 9C29.5139 9 29.6001 9.28 29.6001 9.53846C29.7293 9.53846 29.8801 9.53846 30.0309 9.53846C30.0309 9.28 30.0955 9 30.4185 9C30.8709 9 30.8278 9.4523 30.8278 9.75384C31.1508 9.88307 31.4308 10.0769 31.6678 10.3138C32.077 10.7231 32.357 11.24 32.4647 11.8431H32.5939C32.8308 11.8431 33.0031 12.0154 33.0031 12.2523C33.0031 12.4677 32.8308 12.6615 32.5939 12.6615H32.0124V14.7938C32.0124 15.203 31.8401 15.5692 31.5601 15.8492C31.3016 16.1076 30.9139 16.2799 30.5047 16.2799H29.1047C28.6955 16.2799 28.3078 16.1076 28.0493 15.8492C27.7693 15.5692 27.6186 15.203 27.6186 14.7938V12.6615H27.0155C26.7786 12.6615 26.6063 12.4677 26.6063 12.2523C26.6063 12.0154 26.7786 11.8431 27.0155 11.8431H27.1447C27.2524 11.24 27.5324 10.7231 27.9416 10.3138C28.1786 10.0769 28.4586 9.88307 28.7816 9.75384V9.75384ZM31.1724 12.6615H28.437V14.7938C28.437 14.9661 28.5016 15.1384 28.6309 15.2676C28.7386 15.3753 28.9109 15.4615 29.1047 15.4615H30.5047C30.6985 15.4615 30.8709 15.3753 30.9785 15.2676C31.1078 15.1384 31.1724 14.9661 31.1724 14.7938V12.6615V12.6615ZM28.674 17.0984L26.3694 17.9168V18.3261H33.1754V17.9168L30.8709 17.0984H29.7724H28.674V17.0984ZM25.8309 17.2492L28.437 16.323C28.4801 16.3015 28.5447 16.2799 28.5878 16.2799H29.7724H30.957C31.0001 16.2799 31.0432 16.3015 31.0862 16.3015L33.6708 17.2492C33.8647 17.2922 33.9939 17.443 33.9939 17.6368V18.7353C33.9939 18.9722 33.8001 19.1661 33.5847 19.1661H25.9601C25.7447 19.1661 25.5509 18.9722 25.5509 18.7353V17.6368C25.5509 17.4645 25.6586 17.3138 25.8309 17.2492V17.2492Z" fill="white"/>
<path d="M16.031 27.2429H17.5387V28.9875H16.031V27.2429ZM17.8187 27.2429H19.4125V28.9875H17.8187V27.2429V27.2429ZM19.6925 27.2429H21.3079V28.9875H19.6925V27.2429ZM21.5663 27.2429H23.1817V28.9875H21.5663V27.2429V27.2429ZM23.4402 27.2429H25.0555V28.9875H23.4402V27.2429ZM25.314 27.2429H26.9294V28.9875H25.314V27.2429ZM27.1878 27.2429H28.8463V28.9875H27.1878V27.2429V27.2429ZM23.0309 24.163H21.7817V19.3815C21.3079 19.8122 20.7694 20.1353 20.1448 20.3291V19.1876C20.4679 19.0799 20.834 18.8645 21.2217 18.563C21.6094 18.2615 21.8679 17.9169 22.0186 17.5076H23.0309V24.163V24.163Z" fill="white"/>
<path d="M17.6248 12.1877V15.4615" stroke="white" stroke-width="0.86153" stroke-miterlimit="22.9256"/>
<path d="M19.4125 12.1877V15.4615" stroke="white" stroke-width="0.86153" stroke-miterlimit="22.9256"/>
<path d="M24.6677 12.1877V15.4615" stroke="white" stroke-width="0.86153" stroke-miterlimit="22.9256"/>
</g>
<defs>
<clipPath id="clip0">
<rect width="20" height="24.0367" fill="white" transform="translate(14 9)"/>
</clipPath>
</defs>
</svg>
