<svg width="21" height="16" viewBox="0 0 21 16" fill="none" xmlns="http://www.w3.org/2000/svg">
    <path d="M20.0001 8.95044C20.5524 8.95044 21.0001 8.50272 21.0001 7.95044C21.0001 7.39815 20.5524 6.95044 20.0001 6.95044V8.95044ZM0.29285 7.24333C-0.0976734 7.63386 -0.0976734 8.26702 0.29285 8.65755L6.65681 15.0215C7.04734 15.412 7.6805 15.412 8.07103 15.0215C8.46155 14.631 8.46155 13.9978 8.07103 13.6073L2.41417 7.95044L8.07103 2.29359C8.46155 1.90306 8.46155 1.2699 8.07103 0.879372C7.6805 0.488847 7.04734 0.488847 6.65681 0.879372L0.29285 7.24333ZM20.0001 6.95044L0.999958 6.95044V8.95044L20.0001 8.95044V6.95044Z"
          fill="white"/>
</svg>
